<?xml version="1.0" encoding="iso-8859-1"?>
<!-- Generator: Adobe Illustrator 19.0.0, SVG Export Plug-In . SVG Version: 6.00 Build 0)  -->
<svg xmlns="http://www.w3.org/2000/svg" xmlns:xlink="http://www.w3.org/1999/xlink" version="1.1" id="Layer_1" x="0px" y="0px" viewBox="0 0 511.999 511.999" style="enable-background:new 0 0 511.999 511.999;" xml:space="preserve" width="512px" height="512px">
<g>
	<g>
		<path d="M168.029,254.642c-1.451-1.463-3.478-2.299-5.538-2.299c-2.069,0-4.086,0.836-5.538,2.299    c-1.463,1.452-2.299,3.48-2.299,5.538c0,2.058,0.836,4.086,2.299,5.538c1.452,1.463,3.469,2.299,5.538,2.299    c2.058,0,4.075-0.836,5.538-2.299c1.463-1.452,2.299-3.479,2.299-5.538C170.327,258.111,169.491,256.094,168.029,254.642z" fill="#FF0077"/>
	</g>
</g>
<g>
	<g>
		<path d="M214.944,254.642c-1.463-1.463-3.48-2.299-5.538-2.299c-2.069,0-4.086,0.836-5.548,2.299    c-1.451,1.452-2.288,3.469-2.288,5.538c0,2.058,0.836,4.086,2.288,5.538c1.463,1.463,3.479,2.299,5.548,2.299    c2.058,0,4.075-0.836,5.538-2.299c1.463-1.452,2.299-3.479,2.299-5.538C217.243,258.111,216.407,256.094,214.944,254.642z" fill="#FF0077"/>
	</g>
</g>
<g>
	<g>
		<path d="M261.861,254.642c-1.452-1.463-3.479-2.299-5.538-2.299s-4.086,0.836-5.538,2.299c-1.463,1.452-2.299,3.468-2.299,5.538    c0,2.058,0.836,4.086,2.299,5.538c1.452,1.463,3.478,2.299,5.538,2.299c2.058,0,4.086-0.836,5.538-2.299    c1.463-1.452,2.299-3.479,2.299-5.538C264.16,258.111,263.324,256.094,261.861,254.642z" fill="#FF0077"/>
	</g>
</g>
<g>
	<g>
		<path d="M308.788,254.642c-1.463-1.463-3.49-2.299-5.548-2.299c-2.058,0-4.086,0.836-5.538,2.299    c-1.463,1.452-2.299,3.468-2.299,5.538c0,2.058,0.836,4.086,2.299,5.538c1.451,1.463,3.478,2.299,5.538,2.299    c2.058,0,4.086-0.836,5.548-2.299c1.452-1.452,2.288-3.479,2.288-5.538C311.076,258.121,310.24,256.094,308.788,254.642z" fill="#FF0077"/>
	</g>
</g>
<g>
	<g>
		<path d="M355.704,254.642c-1.463-1.463-3.479-2.299-5.548-2.299c-2.058,0-4.075,0.836-5.538,2.299    c-1.463,1.452-2.299,3.468-2.299,5.538c0,2.069,0.836,4.086,2.299,5.538c1.463,1.463,3.478,2.299,5.538,2.299    c2.069,0,4.086-0.836,5.548-2.299c1.452-1.452,2.288-3.479,2.288-5.538C357.992,258.111,357.156,256.094,355.704,254.642z" fill="#FF0077"/>
	</g>
</g>
<g>
	<g>
		<path d="M402.538,23.662L382.736,3.859C380.249,1.371,376.942,0,373.424,0c-3.512,0-6.818,1.369-9.313,3.858l-10.258,10.26    L343.595,3.86c-2.487-2.488-5.794-3.858-9.312-3.858c-3.518,0-6.825,1.371-9.311,3.857l-10.26,10.259L304.455,3.86    c-2.487-2.488-5.794-3.858-9.312-3.858c-3.519,0-6.826,1.371-9.311,3.857l-10.259,10.259L265.314,3.859    C262.826,1.371,259.519,0,256.002,0c-3.517,0-6.825,1.371-9.311,3.858l-10.261,10.26l-10.259-10.26    c-2.487-2.487-5.794-3.856-9.311-3.856c-3.517,0-6.824,1.37-9.311,3.857l-10.26,10.259L187.031,3.86    c-2.487-2.488-5.794-3.858-9.312-3.858c-3.518,0-6.825,1.371-9.311,3.857l-10.26,10.259L147.89,3.86    c-2.487-2.488-5.794-3.858-9.312-3.858c-3.519,0-6.826,1.371-9.311,3.856l-19.804,19.805c-3.473,3.469-4.725,8.537-3.266,13.228    c9.104,29.245,24.948,87.304,32.537,157.454c-6.643,2.742-11.335,9.283-11.335,16.905v89.576c0,10.082,8.203,18.286,18.286,18.286    h52.367c17.299,15.295,27.703,33.102,28.392,49.242v47.09c-14.021,9.505-23.254,25.567-23.254,43.744    c0,29.12,23.691,52.811,52.811,52.811s52.811-23.691,52.811-52.811c0-18.178-9.232-34.238-23.252-43.743v-47.091    c0.15-3.53,0.77-7.2,1.844-10.912c1.203-4.158-1.192-8.503-5.35-9.705c-4.158-1.206-8.503,1.192-9.706,5.35    c-1.441,4.981-2.267,9.961-2.456,14.803c-0.004,0.102-0.006,0.203-0.006,0.305v12.67h-27.77v-12.67    c0-0.102-0.002-0.204-0.006-0.305c-0.641-16.429-8.397-33.355-21.916-48.778h71.638c-1.513,1.722-2.978,3.463-4.349,5.233    c-2.65,3.421-2.025,8.344,1.397,10.994c3.422,2.65,8.344,2.025,10.994-1.398c3.995-5.158,8.703-10.117,14.054-14.828h52.388    c10.082,0,18.286-8.203,18.286-18.286V211.25c0-7.868-5.005-14.571-11.991-17.146c0.411-3.771,0.841-7.547,1.313-11.315    c0.538-4.294-2.506-8.212-6.801-8.751c-4.3-0.549-8.212,2.506-8.751,6.8c-0.506,4.034-0.97,8.083-1.414,12.126h-29.384v-17.422    c0-4.329-3.509-7.837-7.837-7.837c-4.328,0-7.837,3.508-7.837,7.837v17.421h-17.763v-23.682c0-4.329-3.509-7.837-7.837-7.837    c-4.328,0-7.837,3.508-7.837,7.837v23.682H154.358c-3.222-29.888-7.916-57.633-12.971-81.981h22.662v18.809    c0,10.947,8.906,19.853,19.853,19.853s19.853-8.906,19.853-19.853V94.265c0-0.482-0.021-0.977-0.063-1.489    c0.811-3.808,4.218-6.61,8.161-6.61c3.838,0,7.17,2.625,8.098,6.304v16.423c0,10.946,8.906,19.853,19.853,19.853    c10.241,0,18.696-7.795,19.744-17.763h45.562c4.328,0,7.837-3.509,7.837-7.837c0-4.329-3.509-7.837-7.837-7.837h-51.2    c-5.473,0-9.927,4.453-9.927,9.927v3.657c0,2.305-1.875,4.18-4.18,4.18s-4.18-1.875-4.18-4.18V91.849    c0-0.626-0.06-1.254-0.178-1.869c-2.17-11.292-12.093-19.486-23.594-19.486c-11.923,0-22.15,8.906-23.789,20.724    c-0.114,0.83-0.123,1.675-0.023,2.541c0.037,0.304,0.041,0.457,0.041,0.508v35.526c0,2.305-1.875,4.18-4.18,4.18    s-4.18-1.875-4.18-4.18v-24.556c0-5.473-4.453-9.927-9.927-9.927h-31.811c-5.862-25.884-11.866-47.038-16.372-61.63l16.967-16.966    l10.261,10.261c0.388,0.387,0.801,0.737,1.226,1.07v24.273c0,4.329,3.509,7.837,7.837,7.837c4.328,0,7.837-3.508,7.837-7.837    V28.41c0.606-0.429,1.187-0.903,1.723-1.439l10.257-10.257l10.261,10.261c0.481,0.481,1.001,0.906,1.538,1.301v24.042    c0,4.329,3.509,7.837,7.837,7.837c4.328,0,7.837-3.508,7.837-7.837v-24.14c0.491-0.37,0.968-0.764,1.411-1.207l10.257-10.257    l10.261,10.261c0.252,0.251,0.517,0.483,0.785,0.712v26.648c0,4.329,3.509,7.837,7.837,7.837c4.328,0,7.837-3.508,7.837-7.837    v-25.62c0.771-0.5,1.499-1.079,2.165-1.745l10.258-10.258l10.261,10.261c0.349,0.348,0.717,0.669,1.095,0.973v26.389    c0,4.329,3.509,7.837,7.837,7.837s7.837-3.508,7.837-7.837V28.507c0.655-0.453,1.279-0.961,1.854-1.537l10.258-10.257    l10.261,10.261c0.442,0.442,0.917,0.834,1.407,1.204v26.157c0,4.329,3.509,7.837,7.837,7.837c4.328,0,7.837-3.508,7.837-7.837    v-26.06c0.539-0.396,1.06-0.822,1.542-1.304l10.257-10.257l10.26,10.26c0.535,0.535,1.115,1.007,1.72,1.437v25.924    c0,4.329,3.509,7.837,7.837,7.837c4.328,0,7.837-3.508,7.837-7.837V28.043c0.426-0.332,0.841-0.683,1.23-1.072l10.257-10.258    l16.961,16.962c-6.314,20.275-11.891,40.877-16.704,61.635h-37.222c-4.328,0-7.837,3.508-7.837,7.837    c0,4.328,3.509,7.837,7.837,7.837h33.74c-2.624,12.354-4.977,24.747-7.044,37.15c-0.712,4.269,2.173,8.306,6.442,9.018    c4.273,0.712,8.307-2.173,9.019-6.443c2.559-15.358,5.568-30.705,8.995-45.974c0.001-0.004,0.001-0.008,0.003-0.011    c5.128-22.855,11.203-45.537,18.183-67.813C407.265,32.213,406.017,27.136,402.538,23.662z M242.117,396.539h27.77v11.704    c-4.427-1.208-9.08-1.865-13.886-1.865c-4.806,0-9.457,0.657-13.885,1.865V396.539z M256.002,422.051    c20.478,0,37.138,16.66,37.138,37.138s-16.66,37.138-37.138,37.138c-20.478,0-37.138-16.66-37.138-37.138    C218.863,438.711,235.523,422.051,256.002,422.051z M143.072,243.875h41.874c4.328,0,7.837-3.508,7.837-7.837    s-3.509-7.837-7.837-7.837h-41.873v-16.953c0-1.416,1.196-2.612,2.612-2.612h220.633c1.416,0,2.612,1.196,2.612,2.612v16.953    H216.293c-4.328,0-7.837,3.508-7.837,7.837s3.509,7.837,7.837,7.837h152.638v32.609H143.072V243.875z M143.072,292.158H368.93    v8.668c0,1.417-1.196,2.612-2.612,2.612H145.684c-1.416,0-2.612-1.195-2.612-2.612V292.158z" fill="#FF0077"/>
	</g>
</g>
<g>
	<g>
		<path d="M256.002,436.233c-12.658,0-22.955,10.297-22.955,22.955c-0.001,12.657,10.297,22.955,22.955,22.955    s22.955-10.297,22.955-22.955C278.957,446.532,268.659,436.233,256.002,436.233z M256.002,466.471    c-4.016,0-7.282-3.266-7.282-7.282c0-4.016,3.266-7.282,7.282-7.282c4.016,0,7.282,3.266,7.282,7.282    C263.284,463.204,260.016,466.471,256.002,466.471z" fill="#FF0077"/>
	</g>
</g>
<g>
</g>
<g>
</g>
<g>
</g>
<g>
</g>
<g>
</g>
<g>
</g>
<g>
</g>
<g>
</g>
<g>
</g>
<g>
</g>
<g>
</g>
<g>
</g>
<g>
</g>
<g>
</g>
<g>
</g>
</svg>
