<?xml version="1.0" encoding="iso-8859-1"?>
<!-- Generator: Adobe Illustrator 19.0.0, SVG Export Plug-In . SVG Version: 6.00 Build 0)  -->
<svg xmlns="http://www.w3.org/2000/svg" xmlns:xlink="http://www.w3.org/1999/xlink" version="1.1" id="Capa_1" x="0px" y="0px" viewBox="0 0 511.999 511.999" style="enable-background:new 0 0 511.999 511.999;" xml:space="preserve" width="512px" height="512px">
<g>
	<g>
		<g>
			<path d="M269.89,299.109c1.88,1.891,4.4,2.931,7.07,2.931c2.67,0,5.18-1.04,7.07-2.931c3.9-3.89,3.9-10.239,0-14.14     c-1.89-1.89-4.4-2.93-7.07-2.93c-2.67,0.001-5.19,1.041-7.07,2.93C265.99,288.869,265.99,295.219,269.89,299.109z" fill="#FF0077"/>
			<path d="M508.686,453.637l-224.68-224.688c-0.063-0.066-0.127-0.132-0.192-0.198L98.923,43.853     c-1.875-1.875-4.419-2.929-7.071-2.929c-2.652,0-5.196,1.054-7.071,2.929l-16.029,16.03c-5.386-3.012-11.482-4.615-17.826-4.615     c-9.775,0-18.963,3.804-25.871,10.712c-6.91,6.911-10.715,16.101-10.714,25.875c0,6.342,1.603,12.438,4.617,17.823L2.929,125.707     c-3.905,3.905-3.905,10.237,0,14.143l184.397,184.404c0.265,0.306,0.55,0.596,0.853,0.87     c55.687,50.189,61.612,93.609,61.658,93.983c0.49,4.406,3.823,7.965,8.188,8.741l242.204,43.072     c0.587,0.104,1.173,0.155,1.754,0.155c0.103,0,0.206-0.002,0.309-0.005c5.388-0.155,9.707-4.571,9.707-9.996     C512.001,458.122,510.721,455.468,508.686,453.637z M84.403,72.516l7.449-7.45l40.535,40.537H84.403V72.516z M39.198,80.122     c3.13-3.13,7.295-4.854,11.729-4.854c4.434,0,8.599,1.724,11.729,4.854c0.532,0.532,1.122,0.989,1.749,1.384v24.097H40.747     c-0.422-0.721-0.931-1.405-1.55-2.023C32.73,97.113,32.73,86.59,39.198,80.122z M24.142,132.779l7.175-7.176h121.069     l21.303,21.304H38.27L24.142,132.779z M58.269,166.907h135.419l21.302,21.303H79.572L58.269,166.907z M99.571,208.21h131.64     l-21.303,21.303h-89.035L99.571,208.21z M140.872,249.513h49.036l-24.518,24.519L140.872,249.513z M194.892,303.535l-15.36-15.36     l67.71-67.712l15.359,15.36L194.892,303.535z M438.723,439.669L312.309,313.26c-1.89-1.89-4.4-2.93-7.07-2.93     c-2.67,0-5.18,1.04-7.07,2.93c-3.9,3.89-3.9,10.24,0,14.14l106.156,106.152l-136.097-24.203     c-3.787-15.156-16.725-51.168-58.968-91.897l67.479-67.483l195.688,195.695L438.723,439.669z" fill="#FF0077"/>
		</g>
	</g>
</g>
<g>
</g>
<g>
</g>
<g>
</g>
<g>
</g>
<g>
</g>
<g>
</g>
<g>
</g>
<g>
</g>
<g>
</g>
<g>
</g>
<g>
</g>
<g>
</g>
<g>
</g>
<g>
</g>
<g>
</g>
</svg>
