<?xml version="1.0" encoding="iso-8859-1"?>
<!-- Generator: Adobe Illustrator 19.0.0, SVG Export Plug-In . SVG Version: 6.00 Build 0)  -->
<svg xmlns="http://www.w3.org/2000/svg" xmlns:xlink="http://www.w3.org/1999/xlink" version="1.1" id="Capa_1" x="0px" y="0px" viewBox="0 0 512 512" style="enable-background:new 0 0 512 512;" xml:space="preserve" width="512px" height="512px">
<g>
	<g>
		<g>
			<path d="M338.331,417.593c-5.088-18.772-9.914-36.592-11.937-49.094c13.115-13.179,47.377-52.892,41.132-102.757     c-2.365-18.86-10.371-37.071-23.791-54.12c-44.549-56.653-59.709-107.806-64.582-140.742c-5.275-35.659,0.021-58.28,0.068-58.475     c1.072-4.326-0.848-8.839-4.708-11.066c-3.857-2.228-8.729-1.632-11.938,1.461c-1.385,1.335-34.285,33.254-65.361,81.664     c-18.342,28.572-32.189,56.956-41.157,84.361c-11.36,34.716-14.897,67.986-10.515,98.881     c5.205,36.828,21.689,70.566,49.006,100.373c-1.979,12.532-6.861,30.566-12.013,49.576c-7.561,27.897-16.13,59.517-18.138,83.511     c-0.233,2.787,0.711,5.545,2.604,7.604c1.894,2.059,4.563,3.23,7.36,3.23H346.51c2.797,0,5.466-1.171,7.359-3.23     s2.839-4.815,2.606-7.603C354.474,477.156,345.898,445.512,338.331,417.593z M327.725,223.612     c0.099,0.126,0.192,0.251,0.292,0.378c8.17,10.378,13.895,21.151,17.126,32.151c-3.933,1.277-6.889,3.021-9.492,4.566     c-2.618,1.554-4.519,2.68-7.324,3.227C326.574,250.992,326.376,237.499,327.725,223.612z M296.609,177.555     c4.292,7.504,9.035,15.164,14.288,22.955c-3.845,19.818-4.958,39.144-3.333,57.635c-4.132-2.055-9.436-3.84-17.354-3.84     c-1.287,0.001-2.499,0.053-3.655,0.141C284.711,230.268,288.083,204.515,296.609,177.555z M274.758,131.615     c2.665,6.982,5.71,14.211,9.208,21.662c-14.787,38.022-20.447,74.337-16.863,108.112c-3.144,1.832-5.508,2.917-10.583,2.917     c-4.771,0-7.147-0.959-10.027-2.596C241.653,221.959,251.155,178.293,274.758,131.615z M261.366,85.348     c1.23,6.262,2.79,12.966,4.757,20.062c-30.014,52.914-43.576,102.944-40.408,148.99c-0.927-0.055-1.88-0.093-2.889-0.093     c-8.018-0.001-13.355,1.83-17.509,3.918C199,195.161,229.352,132.408,261.366,85.348z M213.809,95.636     c15.164-23.672,31.028-43.478,42.998-57.264c-0.041,5.391,0.138,11.432,0.628,18.017     c-38.692,52.025-81.16,129.025-71.585,207.723c-3.457-0.446-5.502-1.652-8.456-3.406c-3.345-1.985-7.276-4.299-13.119-5.525     C159.465,195.103,188.125,135.732,213.809,95.636z M167.845,278.296c4.696,2.775,10.625,6.01,21.291,6.01     c11.167,0,17.146-3.549,21.95-6.401c3.781-2.244,6.063-3.599,11.741-3.599s7.961,1.355,11.742,3.599     c4.805,2.852,10.783,6.401,21.951,6.401c11.167,0,17.146-3.549,21.95-6.401c3.781-2.244,6.063-3.599,11.741-3.599     c5.681,0,7.963,1.355,11.745,3.6c4.805,2.852,10.784,6.4,21.952,6.4c11.168,0,17.147-3.549,21.951-6.4     c0.854-0.507,1.63-0.962,2.389-1.373c0.554,38.684-28.317,70.221-37.256,79.04h-100.78     C188.536,332.221,174.333,306.294,167.845,278.296z M272.493,492v-46.427c0-5.523-4.478-10-10-10c-5.522,0-10,4.477-10,10V492     h-66.871c3.107-20.736,10.013-46.217,16.218-69.114c4.738-17.483,9.26-34.178,11.709-47.313h93.78     c2.449,13.12,6.966,29.793,11.698,47.252c6.211,22.918,13.123,48.421,16.229,69.175H272.493z" fill="#FF0077"/>
			<path d="M262.493,395.578c-2.63,0-5.21,1.06-7.07,2.92c-1.859,1.87-2.93,4.44-2.93,7.07c0,2.64,1.07,5.21,2.93,7.07     c1.86,1.87,4.44,2.94,7.07,2.94s5.21-1.07,7.07-2.94c1.859-1.86,2.93-4.43,2.93-7.07c0-2.63-1.07-5.2-2.93-7.07     C267.703,396.638,265.123,395.578,262.493,395.578z" fill="#FF0077"/>
		</g>
	</g>
</g>
<g>
</g>
<g>
</g>
<g>
</g>
<g>
</g>
<g>
</g>
<g>
</g>
<g>
</g>
<g>
</g>
<g>
</g>
<g>
</g>
<g>
</g>
<g>
</g>
<g>
</g>
<g>
</g>
<g>
</g>
</svg>
