<?xml version="1.0" encoding="utf-8"?>
<!-- Generator: Adobe Illustrator 19.0.0, SVG Export Plug-In . SVG Version: 6.00 Build 0)  -->
<svg version="1.1" xmlns="http://www.w3.org/2000/svg" xmlns:xlink="http://www.w3.org/1999/xlink" x="0px" y="0px"
	 viewBox="-264 364.2 39.8 65.8" style="enable-background:new -264 364.2 39.8 65.8;" xml:space="preserve">
<style type="text/css">
	.st0{display:none;}
	.st1{display:inline;fill:#1F1E21;stroke:#000000;stroke-miterlimit:10;}
	.st2{display:inline;fill:#212C61;}
	.st3{fill:#FFFFFF;}
</style>
<g id="Layer_2_1_" class="st0">
	<rect x="-277.4" y="351.6" class="st1" width="118" height="92.5"/>
</g>
<g id="Layer_1">
	<g id="Layer_2" class="st0">
		<rect x="-290.7" y="344.5" class="st2" width="152.3" height="109.7"/>
	</g>
	<g>
		<path class="st3" d="M-243.8,406.8c0.1,0.1-0.2,0.4,0.1,0.6c0.1-0.1,0-0.3,0-0.4c0.1,0.1,0.1,0.5,0.1,0.7c0.1-0.1,0-0.3,0.1-0.4
			c0-0.1-0.1-0.1-0.1-0.1c0-0.4-0.3-0.6-0.2-1.1c0.1,0.1,0,0.4,0.1,0.6c0-0.1,0-0.2,0-0.3h0.1c0.1,0.1,0.1,0.1,0,0.2
			c0.1,0.2,0.1,0.6,0.2,0.7c0,0.7,0.2,1.3,0.3,2c0.1,0.2,0.1,0.5,0.2,0.6c-0.1,0.2,0,0.4,0.1,0.6c0.1,0,0.3,0,0.3,0.1
			c1.2,0.1,2.2,0.4,3.4,0.5c0.1,0,0.1,0.1,0.2,0.1c0.2,0,0.5,0,0.7,0.1c0.3,0,0.6,0,0.9,0.1c0.2,0,0.5,0,0.7,0.1
			c0.2,0,0.3,0.1,0.5,0.1c0.5,0.1,1.1,0.1,1.7,0.2c0.1,0,0.1,0.1,0.2,0.1c0.2,0,0.4,0,0.5,0c0.2,0,0.4,0.1,0.7,0.2
			c0.1,0,0.1,0,0.2,0c0.2,0,0.4,0.2,0.6,0.1c0.1,0.1,0.4,0,0.5,0.2c-0.8-0.2-1.7-0.1-2.5-0.4c0,0,0,0,0,0.1
			c-0.6-0.2-1.3-0.3-1.8-0.1c0.4,0.1,0.9,0.1,1.2,0.2c0.1,0,0.2,0,0.3,0c0.1,0-0.1,0.1,0.1,0.1c0.1,0-0.1-0.1,0-0.1
			c0.1,0,0.1,0.1,0.2,0.1c0.4-0.1,1,0.2,1.3,0c0.3,0,0.4,0,0.6,0.1c-0.1,0.1-0.2,0-0.2,0c0.6,0.2,1.7,0.5,2.6,0.6
			c0,0.1,0.2,0.2,0.3,0.1c-0.1,0.1,0.1,0.1,0.2,0.1c0,0.1-0.1,0.1-0.1,0.1c0.3,0.3,0.6,0.3,1,0.4c0,0.1-0.2,0-0.2,0.1
			c0.2,0.1,0.6,0,0.7,0.3c-0.1,0.2-0.2-0.1-0.3-0.1c-0.1,0,0.1,0.1,0,0.2c0.2,0,0.4,0.1,0.6,0.1c0.2,0.3,0.6,0.4,0.8,0.8
			c-0.1,0.1-0.3,0.2-0.4,0.2c-0.4-0.1-1-0.1-1.4-0.3c0,0,0,0,0,0.1c-0.1,0-0.3-0.1-0.4,0c-1.6-0.3-2.9-0.4-4.4-0.7
			c-0.1,0-0.1,0.1-0.2,0.1c-0.7-0.3-1.2-0.2-2-0.4c0,0-0.1,0-0.1,0.1c-0.1-0.1-0.4-0.2-0.4-0.1c-1.8-0.3-3.7-0.6-5.6-0.9
			c-0.1,0.2,0.2,0.7,0,0.9c0.1,0.1,0.1,0.3,0.2,0.5c0,0.1-0.1,0-0.1,0.1c0,0.1,0.1-0.1,0.1,0c-0.1,0.4,0.2,0.6,0.2,0.9
			c0,0.1,0.1,0.1,0.1,0.2c-0.1,0.1,0.1,0.4,0,0.5c0.3,0.5,0.2,1.1,0.6,1.6c-0.1,0-0.1-0.1-0.1,0c0,0.1,0.2,0.1,0.2,0.2v0.1
			c0.1,0,0-0.1,0-0.1c0.1,0,0.1,0,0.1,0.1c-0.1,0-0.1,0-0.1,0.1c0,0,0.1,0,0.1-0.1c0.1,0,0.3,0.1,0.4,0.2v0.1c0.1,0,0-0.1,0-0.1
			c0.3,0.2,0.7,0.3,1.1,0.5v0.1c0.3,0.1,0.6,0.4,0.9,0.6h-0.1c0,0,0.1,0.1,0.1,0c0.5,0.1,0.9,0.8,1.4,0.8c0.1,0.1,0.3,0.3,0.4,0.2
			c0.1,0.3,0.4,0.4,0.5,0.7c-0.1-0.1-0.1,0.1-0.2,0c-0.1,0.1-0.1,0.1-0.1,0.3c-0.1,0-0.1-0.1-0.1-0.1s0,0,0,0.1
			c-0.1-0.1-0.3-0.2-0.3,0c-0.1,0,0-0.1,0-0.1c-0.3-0.1-0.5,0-0.6-0.2c0.1,0,0.1,0,0.1,0c0.1,0,0.1-0.1,0-0.2
			c-0.1,0-0.1,0.1-0.1,0.1c-0.5-0.1-0.5-0.1-0.5,0c-0.1,0-0.1,0-0.1-0.1c-0.1,0,0,0.1-0.1,0.1c0.1,0.1,0.3,0.1,0.4,0.3
			c-0.3-0.1-0.6-0.3-0.8-0.3c0,0-0.1,0-0.1,0.1c-0.9-0.3-1.4-1.1-2.4-1.2c-0.1,0,0,0.1,0.1,0.1c-0.1,0.1,0.1,0.3,0.1,0.5
			c0,0.1-0.1,0.2-0.1,0.3c-0.2,0.1-0.4,0.2-0.6,0.3c-0.2,0-0.6,0-0.8,0.2c-0.1,0-0.3-0.1-0.5,0c-0.4,0-0.6-0.2-0.8-0.4
			c0.2-0.6,0-1.7,0-2.3c-1.3-0.9-2.8-1.6-4-2.6c-0.1,0.1-0.3-0.1-0.3-0.2c0,0,0.1,0,0.1-0.1c-0.1,0-0.1,0-0.1,0.1
			c-0.1,0-0.1-0.1-0.2-0.1c0-0.1,0-0.1,0-0.1c-0.1,0-0.1-0.1-0.1,0c-0.6-0.4-1.2-0.8-1.8-1.2c-0.1,0-0.1,0-0.1,0
			c-0.5-0.3-0.9-0.7-1.4-0.9c0-0.1-0.1-0.1-0.1-0.2c-0.1,0-0.1,0-0.2,0c-0.4-0.5-1.1-0.7-1.6-1.2c-0.1,0-0.1,0.1-0.2,0.1
			c-0.1-0.1,0-0.1,0-0.2c-0.1,0-0.2-0.1-0.2-0.1c-0.1-0.1,0-0.1,0-0.2c-0.1,0-0.1,0.1-0.1,0.1c-0.1-0.2-0.1-0.5-0.1-0.8
			c-0.1-0.1-0.3-0.1-0.3-0.1V411c0-0.1,0-0.1,0-0.1c-0.2-0.5,0.2-0.8,0.3-1.2c0.3-0.4,0.6-0.8,1-1c0.7-0.1,1.3-0.1,1.9,0.1h0.1
			c0.1,0.1,0.4,0,0.5,0.2c1.2,0.1,1.9,0.3,2.9,0.5c0.5,0,1.2,0.1,1.7,0.3c0.1,0,0.1-0.1,0.2,0c0.4,0.2,0.9,0.1,1.3,0.3
			c0-0.7-0.2-1.3-0.2-2c0.2,0.1,0,0.4,0.1,0.6c0.2-0.1-0.1-0.4,0-0.5c-0.1-0.1-0.1-0.1-0.1-0.1c-0.1-0.6,0-1.3-0.1-1.9
			c0.1,0,0.1,0.1,0.1,0c-0.1-0.3,0-0.7,0-1.3c0.2,0.1,0.3,0.3,0.3,0.6c0.2,0,0-0.1,0.1-0.1c0.1,0.2,0.1,0.4,0.2,0.6
			C-243.8,406.3-243.8,406.6-243.8,406.8C-244,406.8-243.8,406.9-243.8,406.8z M-238,421.1C-238.1,421.1-238.1,421-238,421.1
			c0,0,0,0.1,0,0.1c0-0.1,0.1-0.1,0.2-0.2c-0.1,0-0.2,0-0.4-0.1c0,0.1,0,0.1,0,0.1C-238.1,421.1-238.1,421-238,421.1
			C-238,421-238,421-238,421.1z M-238.3,421.1c-0.1,0-0.1,0-0.2-0.1C-238.6,421.1-238.5,421.1-238.3,421.1
			C-238.4,421.1-238.4,421.1-238.3,421.1z M-238.3,421C-238.3,421-238.3,421.1-238.3,421C-238.1,421-238.3,420.9-238.3,421z
			 M-238.1,420.8c0,0.1,0.1,0.1,0.2,0.1C-237.9,420.8-238,420.8-238.1,420.8c0,0.1-0.2-0.2-0.2-0.1c0.1,0,0.1,0,0.1,0.1
			c-0.1,0-0.2-0.1-0.1,0c0.1,0,0.1,0.1,0.1,0C-238.1,420.9-238.1,420.8-238.1,420.8z M-237.8,420.8L-237.8,420.8
			C-237.8,420.9-237.8,420.9-237.8,420.8L-237.8,420.8z M-238.5,420.6c0.1,0,0.1,0.1,0.1,0.1c0-0.1-0.1-0.1-0.2-0.2
			c0.1,0.2-0.1,0-0.1,0.1c0.1,0,0.2,0.2,0.3,0.1C-238.4,420.7-238.5,420.7-238.5,420.6z M-238,420.7c0,0.1,0.1,0.1,0.1,0.1
			S-237.9,420.7-238,420.7z M-238.7,420.5c0,0.1-0.1,0.1,0,0.1c0.1,0,0.1,0,0.1,0S-238.7,420.6-238.7,420.5z M-238.2,420.7
			L-238.2,420.7C-238.2,420.7-238.2,420.6-238.2,420.7z M-238.9,420.6L-238.9,420.6L-238.9,420.6
			C-238.9,420.7-238.9,420.7-238.9,420.6L-238.9,420.6z M-239.2,420.4c0.1,0,0.1,0.1,0.1,0.1C-239,420.4-239.1,420.3-239.2,420.4z
			 M-238.7,420.5c0.1-0.1-0.1-0.1-0.1-0.2c-0.3,0.1-0.2-0.1-0.5-0.1c0,0.1,0,0.1,0,0.1C-239,420.3-238.9,420.4-238.7,420.5z
			 M-238.4,420.4C-238.4,420.4-238.5,420.4-238.4,420.4C-238.5,420.4-238.5,420.4-238.4,420.4C-238.5,420.5-238.4,420.5-238.4,420.4
			L-238.4,420.4z M-237.8,420.2c0,0.1,0.1,0.1,0.1,0.1C-237.8,420.3-237.8,420.2-237.8,420.2z M-239.4,420.2
			C-239.4,420.3-239.4,420.1-239.4,420.2L-239.4,420.2z M-239.5,420.2C-239.6,420.2-239.6,420.2-239.5,420.2
			C-239.6,420.2-239.6,420.2-239.5,420.2C-239.6,420.2-239.6,420.2-239.5,420.2L-239.5,420.2z M-239.1,420.2c0.1,0,0.1,0,0.1-0.1
			C-239,420.1-239.1,420.1-239.1,420.2z M-239.2,420.2C-239.2,420.1-239.2,420.1-239.2,420.2C-239.2,420.1-239.2,420.2-239.2,420.2z
			 M-239.6,420.1L-239.6,420.1L-239.6,420.1z M-240.7,419.7c0.1,0.2,0.3,0.3,0.5,0.4C-240.4,420-240.5,419.7-240.7,419.7z
			 M-238.6,419.9C-238.6,419.8-238.5,419.8-238.6,419.9c0-0.1,0-0.2-0.1-0.2C-238.7,419.7-238.6,419.8-238.6,419.9
			c-0.2-0.1-0.4-0.3-0.6-0.2c-0.4-0.2-0.7-0.5-1.1-0.5c0.1,0.1,0.3,0.3,0.6,0.3c0.3,0.1,0.6,0.5,1,0.5c0.1,0,0.2,0.1,0.3,0.1
			C-238.3,420-238.6,420-238.6,419.9L-238.6,419.9z M-239.3,420.1C-239.3,420-239.3,420-239.3,420.1
			C-239.3,420-239.3,420.1-239.3,420.1z M-239.8,420C-239.9,420-239.9,420-239.8,420C-239.9,420-239.9,420-239.8,420
			C-239.9,420-239.9,420-239.8,420L-239.8,420z M-241.5,420L-241.5,420L-241.5,420z M-238.1,419.9L-238.1,419.9L-238.1,419.9
			C-238.1,420-238.1,420-238.1,419.9L-238.1,419.9z M-239.6,419.8C-239.7,419.8-239.7,419.8-239.6,419.8
			C-239.7,419.8-239.7,419.8-239.6,419.8C-239.7,419.8-239.7,419.8-239.6,419.8L-239.6,419.8z M-239.5,419.7
			C-239.5,419.8-239.5,419.8-239.5,419.7C-239.5,419.8-239.5,419.7-239.5,419.7z M-239.8,419.5c0,0.1-0.1,0.1,0,0.1
			C-239.8,419.7-239.8,419.5-239.8,419.5z M-239.7,419.6L-239.7,419.6C-239.7,419.7-239.6,419.6-239.7,419.6z M-239,419.6
			c0.1,0,0.1,0.1,0.2,0.1C-238.7,419.6-239,419.5-239,419.6z M-240.1,419.5c0,0.1,0.1,0.2,0.1,0.1C-240,419.6-240,419.5-240.1,419.5
			z M-239.2,419.5C-239.2,419.5-239.2,419.6-239.2,419.5L-239.2,419.5z M-239.9,419.5L-239.9,419.5
			C-240,419.5-240,419.5-239.9,419.5C-240,419.5-240,419.5-239.9,419.5L-239.9,419.5z M-239.3,419.3c0.1,0.1,0.2,0.2,0.3,0.2
			C-239,419.4-239.2,419.3-239.3,419.3z M-240.7,419.2c0.2,0.1,0.4,0.2,0.6,0.2c0-0.1-0.1-0.1-0.2-0.1c-0.1-0.1-0.1-0.2-0.2-0.2
			c0,0.1,0.1,0.1,0,0.1c-0.1-0.1-0.2-0.1-0.3-0.1c0,0.1,0.1,0.2,0.1,0.3C-240.7,419.3-240.7,419.2-240.7,419.2z M-239.4,419.3
			C-239.4,419.3-239.4,419.2-239.4,419.3L-239.4,419.3z M-239.6,419.2c-0.1-0.3-0.5-0.4-0.8-0.5c0-0.1-0.1-0.1-0.1,0
			c0.1,0,0.1,0,0.1,0C-240.2,418.9-239.9,419.1-239.6,419.2z M-240.4,418.9c0,0.1,0.2,0.1,0.3,0.2
			C-240.1,419-240.3,418.9-240.4,418.9z M-239.2,419.1C-239.2,419.1-239.3,419.1-239.2,419.1C-239.3,419.1-239.3,419.1-239.2,419.1
			C-239.3,419.1-239.2,419.1-239.2,419.1L-239.2,419.1z M-243.7,418.5c0.1-0.1,0.2,0.1,0.3,0.1l0,0c0-0.2-0.3-0.1-0.3-0.3
			c-0.1,0-0.3-0.1-0.2,0h-0.1v0.1C-243.9,418.3-243.9,418.5-243.7,418.5c-0.1-0.1-0.2-0.1-0.2-0.1
			C-243.8,418.3-243.7,418.4-243.7,418.5z M-239.8,418.5L-239.8,418.5C-239.7,418.5-239.7,418.5-239.8,418.5
			C-239.8,418.6-239.8,418.6-239.8,418.5L-239.8,418.5z M-241,418.2c0.1,0.1,0.4,0.5,0.5,0.3C-240.8,418.5-240.8,418.1-241,418.2z
			 M-240.5,418.4L-240.5,418.4L-240.5,418.4z M-244.1,418.2C-244.2,418.3-244,418.4-244.1,418.2L-244.1,418.2z M-244.1,418.1
			C-244.2,418.1-244.2,418.2-244.1,418.1C-244.2,418.2-244.2,418.2-244.1,418.1C-244.1,418.2-244.1,418.2-244.1,418.1z
			 M-244.3,418.1C-244.3,418.1-244.4,418.1-244.3,418.1C-244.4,418.1-244.4,418.1-244.3,418.1C-244.4,418.1-244.3,418.1-244.3,418.1
			L-244.3,418.1z M-244.5,417.9c0,0.1,0,0.1,0,0.1s-0.1-0.1-0.1,0c0.1,0,0.1,0.1,0.1,0.1s-0.1,0-0.1-0.1
			C-244.4,418-244.4,417.9-244.5,417.9z M-244.3,417.6c0,0.2,0.2,0.2,0.3,0.1c0.1,0.1,0.3,0.2,0.5,0.3c0-0.2-0.2-0.1-0.2-0.3
			c-0.3-0.1-0.5-0.5-0.8-0.4c0.1,0.1,0.3,0.1,0.3,0.3C-244.2,417.7-244.2,417.6-244.3,417.6z M-244.1,418.1
			C-244.1,418-244.1,418-244.1,418.1C-244.1,418-244.1,418.1-244.1,418.1z M-243.9,417.9c0,0.1,0.1,0.1,0.1,0.1
			S-243.8,417.9-243.9,417.9z M-240.8,417.9C-240.8,417.9-240.9,417.9-240.8,417.9C-240.9,417.9-240.9,417.8-240.8,417.9
			C-240.9,417.8-240.9,417.9-240.8,417.9z M-245.6,417.3C-245.5,417.3-245.5,417.3-245.6,417.3c0.4,0.3,0.8,0.3,1.1,0.6
			c0.1-0.1-0.1-0.1-0.1-0.2c-0.4-0.1-0.6-0.4-1-0.6c-0.1-0.1-0.2-0.2-0.2-0.3c-0.1,0-0.1,0.1-0.1,0.1c-0.1-0.1-0.1-0.1-0.3-0.1
			c-0.4-0.3-0.6-0.6-1.1-0.7c-0.2-0.2-0.5-0.5-0.8-0.5c0.1,0-0.1,0,0,0.1c0.9,0.4,1.7,1,2.5,1.4
			C-245.7,417.2-245.6,417.2-245.6,417.3z M-241,417.6C-240.9,417.6-240.9,417.7-241,417.6C-241,417.7-241,417.7-241,417.6z
			 M-244.2,417.3C-244.2,417.3-244.2,417.4-244.2,417.3C-244.1,417.4-244.1,417.4-244.2,417.3C-244.1,417.4-244.1,417.3-244.2,417.3
			z M-244.6,417.2L-244.6,417.2C-244.6,417.2-244.6,417.3-244.6,417.2C-244.5,417.3-244.6,417.4-244.6,417.2
			C-244.5,417.3-244.5,417.2-244.6,417.2z M-243.6,417.1c-0.1,0-0.2-0.2-0.3-0.1c0.1,0.1,0.2,0.2,0.3,0.2
			C-243.7,417.2-243.7,417.2-243.6,417.1z M-244.9,417.3c0.1,0,0.2,0,0.3,0C-244.6,417.2-244.7,417.2-244.9,417.3
			c0-0.3-0.2-0.3-0.3-0.4c-0.1,0.1-0.3,0-0.6,0c0,0.1,0.2,0.1,0.3,0.1C-245.4,417.1-245,417.1-244.9,417.3z M-246.1,417
			C-246.1,417-246.1,416.9-246.1,417L-246.1,417L-246.1,417L-246.1,417z M-245.9,415.7c-0.3,0-0.3-0.2-0.6-0.2
			C-246.4,415.7-246.1,415.9-245.9,415.7c0.4,0.2,0.7,0.4,1,0.6c0.1-0.1,0.2,0.2,0.3,0c-0.1-0.1-0.2-0.2-0.3-0.3
			c0.6,0.2,0.9,0.6,1.5,0.8c-0.2-0.5-0.8-0.6-1.2-0.9c0,0,0,0,0.1,0c0-0.1,0-0.1-0.1-0.1v0.1c-0.3-0.1-0.4-0.2-0.6-0.3
			c-0.1,0.1,0.1,0.1,0,0.1c-0.3-0.1-0.5-0.2-0.6-0.4c0.2-0.1,0.3,0.3,0.5,0.2c-0.3-0.4-1-0.6-1.4-0.9c-0.1,0.1-0.1-0.1-0.2-0.1
			c0,0.3,0.6,0.3,0.7,0.5c-0.3-0.1-0.6-0.3-0.9-0.5c0.1,0.1,0.2,0.2,0.4,0.3c0.1,0.1,0.3,0.2,0.6,0.3c0,0.1,0.2,0.2,0.2,0.1
			c0-0.1-0.2-0.1-0.1-0.1c0.1,0.1,0.1,0.1,0.2,0.2C-246.1,415.6-245.8,415.7-245.9,415.7z M-244.3,416.9
			C-244.3,416.8-244.5,416.8-244.3,416.9C-244.4,416.8-244.4,416.8-244.3,416.9C-244.4,416.9-244.4,416.9-244.3,416.9z
			 M-245.3,416.8C-245.4,416.8-245.4,416.7-245.3,416.8C-245.4,416.8-245.4,416.8-245.3,416.8C-245.4,416.8-245.4,416.8-245.3,416.8
			L-245.3,416.8z M-247.1,415.9c0.3,0.2,0.5,0.3,0.8,0.5c0.3-0.1,0.6,0.3,0.9,0.4c-0.1-0.2-0.3-0.2-0.4-0.4c-0.1,0-0.1,0.1-0.2,0
			c0-0.1-0.1-0.1-0.1-0.1c-0.2,0-0.4-0.3-0.6-0.4c-0.5-0.1-0.7-0.6-1.2-0.7c-0.1-0.1-0.1-0.1-0.1-0.1c-0.3,0-0.4-0.2-0.7-0.3
			c0,0,0,0,0,0.1C-248.2,415.1-247.6,415.4-247.1,415.9C-247,415.8-247.1,415.8-247.1,415.9z M-244,416.4c0,0-0.1,0.1,0,0.1
			c0.2,0.1,0.3,0.2,0.5,0.3C-243.6,416.5-243.8,416.4-244,416.4z M-244.3,416.6L-244.3,416.6C-244.3,416.7-244.3,416.7-244.3,416.6
			C-244.3,416.7-244.3,416.6-244.3,416.6z M-244.4,416.2c0,0.1,0.2,0.2,0.3,0.2C-244.1,416.3-244.3,416.3-244.4,416.2z
			 M-245.6,415.1c0,0.1,0,0.1,0.1,0.1L-245.6,415.1c0.3,0,0.4,0.2,0.6,0.1c0.1,0.2,0.4,0.2,0.6,0.4c-0.2,0.1-0.3-0.1-0.4-0.2
			c-0.1,0.1-0.1,0.1-0.2,0c0.1,0.3,0.5,0.3,0.8,0.5c0.1,0.2,0.2,0.2,0.4,0.2c0,0.1,0.2,0.1,0.2,0.1c-0.1-0.2-0.1-0.5-0.1-0.7
			c0.1,0,0.1,0,0.1-0.1c-0.1-0.3,0-0.6-0.1-0.8c0,0,0,0.1-0.1,0.1c0-0.1,0-0.1,0-0.1c0.2-0.1,0-0.2,0.1-0.3c-0.1-0.3-0.1-0.7-0.2-1
			c0,0,0.1,0,0.1-0.1c0-0.1-0.1-0.1-0.1-0.2c-0.7-0.1-1.5-0.3-2.1-0.2c-0.6-0.3-1.4-0.2-2-0.4c-0.7,0-1.4-0.3-2.2-0.3
			c0.1,0.1,0.3,0.2,0.4,0.3c-0.2,0.1-0.2-0.1-0.3-0.1c-0.1,0.1-0.2,0-0.2,0.1c0,0,0.1,0,0.1,0.1c0.1-0.1,0.3,0,0.3,0.1
			c0,0-0.1,0-0.1,0.1c1.1,0.7,2.2,1.3,3.2,2c0.1,0,0.1,0,0.1,0c0,0.2,0.3,0.1,0.4,0.2c0-0.1,0-0.1,0-0.1c0.1,0.1,0.2,0.1,0.3,0.2
			c0,0-0.1,0-0.1,0.1c0.1,0,0.3,0.1,0.4,0.1c0,0.2,0.2,0.1,0.2,0.2C-245.5,415.1-245.5,415.1-245.6,415.1z M-245,416.1L-245,416.1
			C-245,416.2-245.1,416.2-245,416.1z M-244.6,416c0.1,0,0.1,0.1,0.2,0.1C-244.4,416-244.5,416-244.6,416z M-244.9,415.9
			L-244.9,415.9C-244.8,415.9-245,415.8-244.9,415.9z M-246.5,415.8C-246.6,415.8-246.6,415.8-246.5,415.8
			C-246.6,415.8-246.6,415.8-246.5,415.8C-246.6,415.9-246.6,415.9-246.5,415.8L-246.5,415.8z M-245.8,415.4
			c0.3,0.1,0.5,0.4,0.8,0.4C-245.2,415.5-245.6,415.3-245.8,415.4z M-243.6,415.7L-243.6,415.7L-243.6,415.7L-243.6,415.7
			L-243.6,415.7z M-248.4,415.6C-248.5,415.6-248.5,415.6-248.4,415.6C-248.5,415.6-248.5,415.6-248.4,415.6
			C-248.5,415.6-248.5,415.6-248.4,415.6L-248.4,415.6z M-248.8,415.4c0.1,0.1,0.3,0.1,0.6,0.2
			C-248.3,415.4-248.5,415.3-248.8,415.4z M-245.2,415.3C-245.1,415.2-245.3,415.2-245.2,415.3L-245.2,415.3L-245.2,415.3z
			 M-248.8,415.2c0,0.1,0,0.1,0.1,0.1C-248.7,415.2-248.7,415.2-248.8,415.2z M-245.4,415.2C-245.4,415.3-245.3,415.3-245.4,415.2
			C-245.3,415.3-245.3,415.2-245.4,415.2z M-248.9,415.2L-248.9,415.2C-248.9,415.1-248.9,415.1-248.9,415.2
			C-249,415.1-249,415.2-248.9,415.2C-249,415.2-248.9,415.2-248.9,415.2L-248.9,415.2z M-247.6,415.1
			C-247.6,415.1-247.5,415.2-247.6,415.1C-247.5,415.1-247.6,415.1-247.6,415.1z M-249,414.9L-249,414.9
			C-249.1,414.9-249.1,414.9-249,414.9z M-245.6,414.9L-245.6,414.9C-245.6,414.8-245.6,414.9-245.6,414.9z M-247.2,414.6
			c-0.1,0.1-0.1-0.1-0.3,0c0.1,0,0.3,0.3,0.5,0.1C-247.1,414.7-247.2,414.7-247.2,414.6z M-245.7,414.8c-0.1,0-0.2-0.1-0.3-0.1
			C-245.8,414.7-245.8,414.7-245.7,414.8z M-245.9,414.6C-246,414.6-246,414.6-245.9,414.6C-246,414.6-245.9,414.6-245.9,414.6z
			 M-246.2,414.6c0-0.1,0.1,0,0.2,0l0,0C-246.1,414.6-246.1,414.6-246.2,414.6z M-248.9,414.6c-0.1-0.1-0.3-0.1-0.4-0.2
			c0,0.1,0.1,0.1,0.1,0.2C-249,414.5-249,414.7-248.9,414.6z M-247,414.6C-247,414.6-247,414.5-247,414.6
			C-247.1,414.6-247.1,414.6-247,414.6z M-228.1,414.6L-228.1,414.6C-228.1,414.5-228.1,414.6-228.1,414.6z M-247.6,414.5
			c-0.1-0.2-0.5-0.5-0.7-0.4c0.1,0.1,0.3,0,0.4,0.3C-247.8,414.4-247.7,414.5-247.6,414.5z M-246.3,414.5c-0.1,0-0.1-0.1-0.1-0.1
			C-246.3,414.4-246.3,414.4-246.3,414.5z M-246.4,414.4c-0.1,0-0.2-0.1-0.3-0.2C-246.6,414.2-246.5,414.2-246.4,414.4z
			 M-228.8,414.2c0,0.1,0,0.1,0.1,0.1C-228.7,414.2-228.8,414.2-228.8,414.2z M-249.6,414.1c0,0.1,0.1,0.2,0.2,0.1
			C-249.5,414.2-249.6,414.1-249.6,414.1z M-247.1,414c0.1,0.1,0.3,0.1,0.3,0.2C-246.9,414.1-247,414.1-247.1,414z M-229.8,414.1
			C-229.8,414.1-229.9,414.1-229.8,414.1C-229.9,414.1-229.9,414.1-229.8,414.1C-229.9,414.2-229.8,414.2-229.8,414.1L-229.8,414.1z
			 M-230.3,414.1C-230.4,414.1-230.4,414.1-230.3,414.1C-230.4,414.1-230.4,414.1-230.3,414.1C-230.4,414.1-230.4,414.1-230.3,414.1
			L-230.3,414.1z M-231,414.1c-0.2,0,0-0.2-0.2-0.2c0,0.1,0.1,0,0.1,0.1c-0.2,0-0.3-0.1-0.4-0.2c-0.1,0-0.1,0.1-0.2,0.1
			c0.1,0.1,0.4,0,0.4,0.2C-231.2,414-231.1,414.2-231,414.1z M-249.8,414C-249.8,414-249.9,414-249.8,414c0,0.1,0.1,0.1,0.2,0.1
			C-249.8,414-249.8,414-249.8,414z M-248.6,413.8c0,0.1-0.1,0-0.1,0.1c0.1,0.1,0.2,0.1,0.3,0.1
			C-248.3,413.9-248.5,413.9-248.6,413.8z M-234,413.6c0,0.1,0.1,0.2,0.2,0.3c0.5-0.2,0.9,0.2,1.4,0c0.1,0.1,0.4,0.2,0.6,0.1
			c-0.3-0.1-0.6-0.3-1-0.4c-0.3,0.2-0.9-0.3-1.3-0.1c0.1,0.1,0.3,0,0.4,0.1C-233.9,413.6-233.9,413.5-234,413.6z M-247.1,414
			c-0.2-0.1-0.5-0.2-0.6-0.4C-247.5,413.7-247.3,413.8-247.1,414z M-236.1,413.9C-236.1,413.9-236.2,413.9-236.1,413.9
			C-236.1,414-236.1,414-236.1,413.9L-236.1,413.9z M-248.6,413.8c0-0.1-0.2-0.1-0.3-0.2C-248.8,413.7-248.9,413.9-248.6,413.8
			C-248.8,413.8-248.7,413.8-248.6,413.8z M-229.1,413.8C-229.1,413.8-229.2,413.8-229.1,413.8
			C-229.2,413.8-229.2,413.9-229.1,413.8C-229.2,413.9-229.1,413.9-229.1,413.8C-229.1,413.9-229.1,413.8-229.1,413.8z
			 M-236.6,413.8c-0.1,0-0.1,0-0.1,0s0,0,0,0.1C-236.7,413.9-236.7,413.9-236.6,413.8L-236.6,413.8z M-242,412.5
			c0.6,0,1.3,0.2,2,0.3c-0.1-0.2-0.5-0.1-0.5-0.2c0.1,0,0.1-0.1,0.1-0.1c0.3,0,0.4,0.1,0.6,0.3c0.1-0.1,0.6-0.1,0.6,0.1
			c-0.1,0-0.1-0.1-0.2,0c0,0,0.1,0,0.1,0.1c0.2,0,0.5-0.1,0.6,0.1c0.2-0.1,0.4,0.2,0.7,0.2c0-0.1,0-0.1,0.1-0.1
			c0.1,0.1,0.2,0.1,0.3,0.1c0.1,0,0.1-0.1,0.2-0.1c0.3,0.2,0.7,0.1,1,0.1l0.1,0.1c0.3,0.1,0.5,0,0.8,0.1c0.3,0,0.7,0.1,1,0.2
			c0.1,0,0.1-0.1,0.2,0c0.1,0,0,0.1,0.1,0.1c0.1,0,0.2,0,0.3,0.1c-0.3-0.3-0.8-0.5-1.2-0.4c-0.3-0.1-0.6-0.2-0.9-0.1
			c-0.3-0.3-0.8-0.2-1.3-0.4c0,0.1,0.2,0.1,0.2,0.2c-0.1,0-0.1,0-0.2,0.1c-0.2-0.2-0.5-0.3-0.8-0.4c-0.1,0.1,0,0.1-0.1,0.1
			c-0.8,0.1-1.2-0.4-2-0.5c-0.1,0.1,0,0.1,0.1,0.2c0-0.1-0.1-0.1,0-0.1c0.1,0,0.1,0.1,0.2,0.1c-0.4,0.1-0.6-0.2-0.9-0.2
			c0,0.1,0,0.1,0,0.1c-0.1,0-0.1-0.1-0.2-0.1c-0.1,0,0.1,0.1,0,0.1c-0.1-0.1-0.2-0.1-0.3-0.2c-0.4,0.2-0.8-0.3-1.1-0.1
			c0,0.1,0.2,0,0.3,0.1C-242.3,412.3-242,412.4-242,412.5z M-235.4,413.7C-235.3,413.7-235.3,413.8-235.4,413.7
			C-235.3,413.7-235.4,413.6-235.4,413.7z M-230.5,413.7c0,0,0.2,0,0.2-0.1C-230.4,413.6-230.5,413.6-230.5,413.7z M-249.1,413.6
			c0.1,0,0,0.1,0.1,0.1C-248.9,413.6-249.1,413.5-249.1,413.6z M-242.2,413.6L-242.2,413.6C-242.3,413.6-242.3,413.6-242.2,413.6z
			 M-248,413.4c0.1,0,0.2,0,0.2,0.1C-247.8,413.5-248,413.5-248,413.4z M-230.8,413.3C-230.8,413.3-230.8,413.4-230.8,413.3
			c0.1,0.1,0.1,0.1,0.2,0.1C-230.6,413.3-230.7,413.2-230.8,413.3z M-233.9,413.3c0.1,0,0.2,0.1,0.2,0
			C-233.8,413.3-233.9,413.2-233.9,413.3z M-248.5,413.3L-248.5,413.3L-248.5,413.3z M-240,413.3h0.1
			C-239.9,413.3-240,413.2-240,413.3z M-249.4,412.5c0.5,0.2,0.9,0.6,1.4,0.8c-0.4,0-0.7-0.5-1.2-0.6c-0.1-0.1-0.1-0.1-0.2-0.1
			C-249.6,412.5-249.4,412.6-249.4,412.5z M-239.9,413.2c0-0.2-0.3-0.1-0.5-0.1c0,0.1,0.1,0.1,0.1,0.1
			C-240.1,413.3-240.1,413.1-239.9,413.2z M-242.2,413.2C-242.3,413.2-242.3,413.2-242.2,413.2
			C-242.3,413.2-242.3,413.3-242.2,413.2C-242.3,413.3-242.3,413.3-242.2,413.2C-242.2,413.3-242.2,413.2-242.2,413.2z
			 M-236.7,413.2L-236.7,413.2L-236.7,413.2C-236.6,413.2-236.6,413.3-236.7,413.2C-236.7,413.3-236.7,413.3-236.7,413.2
			C-236.7,413.3-236.7,413.3-236.7,413.2L-236.7,413.2z M-250.9,413.2L-250.9,413.2L-250.9,413.2
			C-250.9,413.3-250.9,413.3-250.9,413.2L-250.9,413.2z M-248.9,413.1c0.1,0,0.2,0.1,0.2,0.1C-248.8,413.2-248.9,413.1-248.9,413.1z
			 M-234.9,413.1c0,0.1,0.1,0.1,0.1,0.1C-234.8,413.1-234.8,413.1-234.9,413.1z M-236.1,412.9c-0.1,0-0.3-0.2-0.3-0.1
			c0.3,0.1,0.5,0.4,0.8,0.3C-235.7,412.9-235.9,412.9-236.1,412.9z M-249,413L-249,413L-249,413L-249,413L-249,413z M-238.2,413
			c0,0.1-0.1,0-0.2,0C-238.4,412.9-238.2,413-238.2,413z M-236.9,412.9c0.1,0,0.1,0.1,0.3,0.1C-236.6,412.9-236.8,412.7-236.9,412.9
			z M-234.9,412.9c0.1,0,0.1,0.1,0.2,0C-234.8,412.9-234.9,412.8-234.9,412.9z M-234.7,412.9c0,0,0.1,0.1,0.1,0
			C-234.6,412.9-234.7,412.8-234.7,412.9z M-235.4,412.9c0.1,0,0.1,0.1,0.1,0.1C-235.2,412.8-235.4,412.8-235.4,412.9z
			 M-240.6,412.9C-240.6,412.9-240.6,412.8-240.6,412.9L-240.6,412.9z M-235.6,412.6c0,0.1-0.1,0-0.1,0.1c0.2,0,0.3,0.1,0.6,0.1
			C-235.2,412.6-235.4,412.7-235.6,412.6z M-236.6,412.6c0.3,0,0.3,0.1,0.6,0.1c-0.2-0.2-0.5-0.3-0.8-0.1c-0.1-0.1-0.4-0.2-0.5-0.1
			c0.3,0,0.5,0.3,0.9,0.3C-236.3,412.6-236.6,412.7-236.6,412.6z M-232.8,412.6c-0.1,0.1,0.2,0.1,0.2,0
			C-232.7,412.6-232.8,412.6-232.8,412.6z M-238.5,412.5c0,0.1,0.2,0.2,0.3,0.2C-238.3,412.6-238.3,412.5-238.5,412.5z
			 M-241.2,412.5c-0.1,0-0.1-0.1-0.2-0.1C-241.4,412.4-241.2,412.4-241.2,412.5z M-249.5,412.5c-0.1-0.1-0.2-0.1-0.3-0.2
			C-249.8,412.2-249.5,412.4-249.5,412.5z M-241.5,412.5C-241.6,412.5-241.6,412.5-241.5,412.5
			C-241.6,412.4-241.5,412.4-241.5,412.5z M-238.1,412.3c0,0.1,0.1,0.1,0.1,0.1C-237.9,412.4-238,412.4-238.1,412.3z M-238.1,412.4
			c-0.1-0.2-0.2-0.2-0.4-0.3c0,0,0,0,0,0.1c0.1,0,0.1,0,0.1,0.1C-238.4,412.2-238.3,412.4-238.1,412.4z M-239,412.3
			c-0.1-0.1-0.5-0.2-0.6-0.1c0.3,0.1,0.7,0.2,0.9,0.2C-238.7,412.2-238.9,412.3-239,412.3z M-252.9,412.3L-252.9,412.3L-252.9,412.3
			L-252.9,412.3L-252.9,412.3z M-242.8,412.1c-0.1,0-0.1-0.1-0.1-0.1S-243,412.1-242.8,412.1C-242.9,412.2-242.8,412.2-242.8,412.1
			C-242.8,412.2-242.8,412.2-242.8,412.1z M-241.6,411.8C-241.7,411.8-241.7,411.8-241.6,411.8c0.2,0.2,0.5,0.4,0.8,0.4
			C-241,412-241.4,412-241.6,411.8z M-240.4,412.1c0.1,0,0.1,0,0.1-0.1C-240.3,412-240.4,412-240.4,412.1z M-240.7,412
			c0,0,0.2,0.1,0.2,0C-240.6,411.9-240.7,412-240.7,412z M-250.6,411.9C-250.7,411.9-250.7,412-250.6,411.9
			C-250.7,412-250.6,412-250.6,411.9C-250.6,412-250.6,412-250.6,411.9z M-253.6,411.8c0,0.1,0,0.1,0.1,0.1
			C-253.5,411.9-253.5,411.9-253.6,411.8z M-237.5,411.7C-237.5,411.8-237.5,411.8-237.5,411.7c0.3,0.1,0.6,0.2,0.8,0.1
			C-237,411.7-237.2,411.8-237.5,411.7z M-236.2,411.8C-236.1,411.8-236.1,411.8-236.2,411.8C-236.1,411.7-236.2,411.7-236.2,411.8z
			 M-243.1,410.2C-243.1,410.1-243.1,410.1-243.1,410.2c-0.1-0.6-0.3-1.1-0.4-1.7c0,0.1-0.1,0.1-0.1,0.1c0-0.1,0.1-0.1,0-0.2
			c0.1,0,0-0.1,0.1-0.1c0,0.1,0,0.2,0.1,0.1c-0.1-0.3-0.2-0.5-0.2-0.7c-0.1-0.1,0,0.1-0.1,0.1c0-0.1,0-0.2-0.1-0.2
			c0,0.3,0.1,0.8,0,1.2c0,0.5,0.2,1,0.4,1.3c0,0-0.1,0-0.1,0.1c0.1,0,0.1,0.1,0,0.2c0.1,0,0.1,0,0.2,0
			C-243.2,410.3-243.2,410.2-243.1,410.2C-243.2,410.2-243.1,410.2-243.1,410.2z M-243.8,410.2
			C-243.8,410.2-243.7,410.1-243.8,410.2L-243.8,410.2z M-243.9,410.2L-243.9,410.2C-243.8,410.2-244.1,410-243.9,410.2z
			 M-243.6,409.8c0,0.1,0,0.3,0.1,0.4C-243.4,410-243.5,409.9-243.6,409.8z M-243.2,410.1C-243.2,410.1-243.2,410.2-243.2,410.1
			C-243.2,410.2-243.2,410.1-243.2,410.1z M-244.3,409.7c0,0.1,0,0.3,0.1,0.4C-244.1,410-244.1,409.8-244.3,409.7z M-243.6,410
			C-243.6,410-243.7,410-243.6,410C-243.7,410-243.7,410-243.6,410C-243.7,410.1-243.6,410.1-243.6,410L-243.6,410z M-243.6,409.9
			c0-0.1-0.1-0.2-0.1-0.3C-243.8,409.7-243.7,409.8-243.6,409.9C-243.7,409.9-243.7,409.9-243.6,409.9z M-243.8,409.2
			c0,0.1,0,0.3,0.1,0.3C-243.7,409.4-243.8,409.2-243.8,409.2z M-243.4,409.4C-243.3,409.4-243.3,409.5-243.4,409.4
			C-243.4,409.5-243.4,409.5-243.4,409.4z M-243.5,409.2c0,0,0.1,0.1,0.1,0.2C-243.6,409.3-243.6,409.2-243.5,409.2
			C-243.5,409.1-243.5,409.2-243.5,409.2z M-244.4,408.9c0.1,0.1,0,0.4,0.1,0.3C-244.3,409.3-244.2,408.7-244.4,408.9z
			 M-243.9,409.1L-243.9,409.1C-243.9,409.2-243.9,409.2-243.9,409.1L-243.9,409.1z M-243.4,409.2c-0.1,0.1-0.1-0.1-0.1-0.1
			C-243.3,409-243.4,409.2-243.4,409.2z M-243.9,409c-0.1-0.3,0-0.8-0.1-0.9c0,0.1-0.1,0.1-0.1,0.1c0.1,0,0.2,0.3,0,0.3
			C-244.1,408.8-244,408.9-243.9,409z M-243.5,408.8C-243.4,408.8-243.4,408.9-243.5,408.8C-243.5,408.9-243.5,408.8-243.5,408.8z
			 M-243.5,408.7L-243.5,408.7C-243.5,408.8-243.5,408.7-243.5,408.7z M-243.9,408.1c0,0.1-0.1,0.3,0.1,0.3
			C-243.9,408.3-243.8,408.1-243.9,408.1z M-243.5,408.2c0,0.1,0.1,0.1,0,0.2C-243.6,408.4-243.6,408.2-243.5,408.2z M-243.8,408.3
			C-243.8,408.2-243.8,408.2-243.8,408.3C-243.8,408.2-243.8,408.3-243.8,408.3z M-244,408L-244,408C-244,408-244.1,408-244,408
			c-0.1,0.1-0.1,0.1,0,0.1V408z M-244.3,407.9C-244.4,407.9-244.4,407.9-244.3,407.9C-244.4,408-244.4,408-244.3,407.9
			C-244.3,408-244.3,407.9-244.3,407.9z M-244,407.9c0-0.1,0-0.3,0-0.5c-0.1,0-0.1-0.1-0.1,0c0.1,0.1,0.1,0.3,0.1,0.4
			C-244,407.8-244.1,407.9-244,407.9z M-244.3,407.8C-244.4,407.8-244.4,407.8-244.3,407.8c-0.1,0-0.1,0-0.1,0.1L-244.3,407.8z
			 M-243.8,407.8C-243.8,407.7-243.8,407.7-243.8,407.8C-243.8,407.7-243.8,407.8-243.8,407.8z M-244.4,407.4c-0.1,0,0,0.2,0,0.3
			C-244.3,407.7-244.5,407.6-244.4,407.4z M-243.7,407.6c0-0.1-0.1-0.1-0.1-0.2v0.1h-0.1C-243.9,407.6-243.9,407.6-243.7,407.6
			c-0.1-0.1-0.1-0.1-0.1-0.1C-243.7,407.5-243.8,407.6-243.7,407.6z M-244.1,406.9c-0.1,0.1,0,0.3,0,0.4h0.1
			C-244.1,407.2-244,407.1-244.1,406.9z"/>
		<path class="st3" d="M-244,405.3c0.1,0.2,0.4,0.1,0.6,0.3c-0.1,0-0.2-0.1-0.3,0c0.1,0,0.1,0.2,0.2,0.2c0,0.1-0.2-0.1-0.2,0.1
			c-0.2-0.1-0.5-0.1-0.7-0.3c-0.1,0.1-0.1-0.1-0.3-0.1c-0.1,0,0.1,0,0,0.1c-0.3-0.1-0.6-0.2-1-0.3c0-0.1,0-0.1,0-0.1
			c-0.2,0.1-0.2-0.1-0.3,0c0.1,0,0.2,0.1,0.3,0.1c-1-0.1-1.9-0.5-2.9-0.6c0.1,0.2,0.2,0.3,0.3,0.4c0.1,0.6,0.6,0.9,0.9,1.3
			c0,0.2-0.1,0.5-0.1,0.7c-0.4-0.1-0.7,0.3-1,0.1c0.1,0,0.1,0,0.1,0s0,0,0-0.1c-0.1,0-0.1,0-0.1,0.1c-0.1,0-0.3,0.1-0.4,0l-0.1,0.1
			c-0.2-0.1-0.4-0.4-0.7-0.3c-0.3-0.1-0.3-0.4-0.7-0.4c-0.3-0.4-0.6-0.9-0.9-1.4c0.1-0.5-0.4-0.7-0.6-1.1c0.1,0,0.1,0,0.1,0
			c-0.1-0.1-0.1-0.3-0.2-0.3s0.1,0.1,0,0.1c-0.1,0-0.1-0.1-0.2-0.2c-0.1,0-0.2,0-0.3,0c0,0.1,0,0.2,0.1,0.2l-0.1,0.1
			c-0.4-0.3-0.9-0.5-0.9-1.1c0-0.3,0.1-0.5,0.2-0.9c0.2-0.1,0.1-0.3,0.2-0.4c-0.1-0.1-0.1-0.2-0.1-0.2c0.2,0,0.1-0.2,0.3-0.2
			c0-0.1,0-0.1,0-0.1c0.1,0,0.1,0.1,0.2,0c0-0.2-0.1-0.3-0.3-0.3c-0.1-0.2,0-0.3-0.1-0.5l0.1-0.1c0-0.1-0.2-0.3-0.1-0.3
			s0.1,0.2,0.1,0.3c0.1-0.1,0-0.4-0.1-0.6c0-0.1,0.1,0,0.1-0.1s-0.1,0-0.2,0c0-0.1-0.1-0.2-0.1-0.4c0.1,0,0.1,0.1,0.1,0.2
			c0.2-0.1,0-0.3-0.1-0.4c0.1-0.1,0-0.4,0-0.6c0.1,0,0.1,0,0.1,0c-0.1-0.2,0-0.5,0-0.7c0-0.1-0.1,0-0.1,0c0-0.2,0-0.6,0.1-0.8
			c0.1,0,0,0.1,0.1,0.1c0.1,0,0.1-0.1,0.1-0.2c0-0.1-0.1,0-0.1,0c0.1-0.2,0-0.2,0-0.4c0.1,0,0.1,0,0.1,0c0-0.1,0.1-0.1,0.1-0.1
			c-0.2-0.2,0.2-0.3,0-0.5c0-0.1,0.1,0,0.1-0.1c0,0,0,0-0.1,0c0.1-0.5,0.4-0.7,0.4-1.2c0.1-0.1,0.2-0.2,0.1-0.4
			c0.1-0.2,0.5-0.3,0.5-0.6c0.1,0,0.1,0,0.1,0c0-0.3,0.2-0.3,0.4-0.4c0-0.3,0.3-0.3,0.3-0.6c0.1,0,0.1,0.1,0.1,0.2
			c0.1,0,0.1,0,0.1,0c0-0.5,0.9-0.5,1.3-0.5c0.1,0,0.1-0.1,0.1-0.1c0.8,0,1-0.1,1.7-0.1c0,0.1,0.1,0.2,0.1,0.3
			c0.1,0,0.1-0.1,0.2-0.1c0.1,0.3,0.9,0.1,0.9,0.6c0.1-0.1,0-0.2-0.1-0.3c0.8,0.2,1.2,0.6,1.7,1c0,0,0,0-0.1,0.1
			c0.2,0,0.4,0.1,0.4,0.3c0.2,0.1,0.4,0.3,0.6,0.5c0,0-0.1,0-0.1,0.1s0.1,0.1,0.1,0.1c0.1,0,0-0.1,0-0.1c0.4,0.5,0.6,1.3,1.1,1.7
			c0.2,0.4,0.5,0.6,0.6,1c0.6,1,1.1,2.1,1.6,3.2c0,0.1,0,0.1,0,0.1c0.1,0.2,0.3,0.3,0.3,0.6c0.4-0.2,0.5-0.7,0.9-0.9
			c0.2-0.5,0.8-0.8,1-1.2c0.4-0.4,0.8-0.8,1.2-1.3c0.1,0,0.1,0,0.1-0.1c0.1-0.1,0.1,0,0.1,0c0.2-0.3,0.4-0.4,0.5-0.7
			c0-0.1-0.1,0-0.1,0c0.1-0.2,0.5-0.2,0.5-0.6c0.1,0,0.1-0.1,0.1-0.2c0.1,0,0.1,0,0.1,0c0-0.1-0.1-0.1,0-0.2c0.1,0-0.1,0.1,0,0.1
			c0.3-0.2,0.4-0.6,0.7-0.7c0.2-0.3,0.4-0.5,0.6-0.7c0.2-0.4,0.7-0.3,0.9-0.7c0.1,0,0.1,0.1,0.1,0.1c0.2,0,0.1-0.3,0.3-0.3
			c-0.1,0.2-0.1,0.3-0.3,0.4c0,0.1,0,0.2,0.1,0.2c0.1-0.1,0.3-0.1,0.3-0.2s-0.1,0-0.1,0c0.2-0.2,0.4-0.3,0.5-0.6c0.1,0,0.1,0,0.1,0
			c0-0.3,0.4-0.2,0.4-0.5c0.1,0,0.1,0.1,0.1,0.1c0.2-0.2,0.6-0.4,0.8-0.6l0.1,0.1c-0.1,0.5-0.5,0.8-0.6,1.3h-0.1
			c0.1,0.2-0.1,0.2-0.1,0.4c-0.5,0.7-1.1,1.7-1.6,2.4c0,0,0,0-0.1,0c-0.4,0.6-0.9,1.2-1.4,1.8c0.1,0.1,0.1-0.1,0.1,0s0,0.1-0.2,0.1
			c0,0.1,0.1,0.1,0,0.1c-0.1,0-0.1,0-0.2,0c0,0.1,0,0.1,0.1,0.1c-0.2,0.1-0.3,0.3-0.5,0.5c0,0,0.1,0,0.1,0.1
			c-0.1,0.1-0.1,0.3-0.4,0.3c-0.2,0.1-0.3,0.4-0.5,0.5c0.1,0.1,0,0.1-0.1,0.3c-0.1-0.2-0.1,0.1-0.3,0.1c0,0.1,0,0.1,0,0.2
			c-0.7,0.8-1.4,1.7-2.1,2.5c-0.3,0.1-0.4,0.5-0.6,0.7l0.1,0.1c0.5,0,1.1,0.2,1.7,0.4c0.1,0,0.1,0.1,0.1,0.1c0.5,0,0.8,0.2,1.3,0.3
			c0.1,0.1,0,0.1,0,0.1c0.3,0,0.5,0.2,0.8,0.3c0.1,0.2,0.4,0.3,0.6,0.4c0.8,0.5,0.7,0.5,0.6,0.5c0.1,0.3,0.4,0.1,0.4,0.4
			c-0.1,0-0.1,0-0.1,0c0,0.1,0.1,0,0.1,0.1c-0.1,0-0.1,0-0.2,0c0.1,0.1,0.3,0.1,0.4,0.2c-0.1-0.1-0.3-0.1-0.5-0.1
			c0,0.2,0.3,0.1,0.3,0.3c0.2-0.1,0.3,0.2,0.5,0.2c0,0.2,0.3,0.6,0.2,0.8c0,0.1,0.1,0,0.1,0.1c-0.3,0.1-0.8,0.2-1.2,0.1
			c-0.5,0-0.9-0.3-1.3-0.6c-0.1,0-0.1,0.1-0.2,0.1c-0.1,0,0-0.1,0-0.1c-0.4,0-0.7-0.1-1-0.2c0.1-0.1,0.3,0.1,0.4,0
			c-0.6-0.1-0.9-0.3-1.5-0.4c0.7,0.1,1.2,0.1,1.8,0.3c0.1,0,0-0.1,0-0.1c0.1,0,0.1,0,0.1,0c-0.2-0.1-0.6-0.2-0.9-0.4v0.1
			c-0.2-0.1-1-0.1-1.1-0.3c-0.1,0.1-0.3,0.1-0.3-0.1c0.1,0,0.1,0,0.1,0c-0.1-0.1-0.2-0.1-0.3,0c-0.3-0.1-0.4-0.2-0.7-0.3
			c-0.1,0,0,0.1-0.1,0.1c-0.5-0.2-1-0.3-1.5-0.4c0,0,0,0.1,0,0.2c-0.1,0-0.2-0.1-0.3-0.1c0-0.1,0.1,0,0.1,0c0.1,0,0.1-0.1,0.1-0.1
			c-0.2-0.1-0.5-0.2-0.8-0.3c0-0.1-0.2-0.3-0.3-0.1C-242.7,405.6-243.4,405.4-244,405.3z M-236,407.6c0.1,0,0.1,0.1,0.1,0
			S-235.9,407.5-236,407.6z M-233.7,407.6c0.1,0,0.1,0,0.1,0C-233.6,407.5-233.7,407.5-233.7,407.6z M-233.8,407.5
			C-233.9,407.5-233.9,407.5-233.8,407.5C-233.9,407.5-233.9,407.5-233.8,407.5C-233.9,407.5-233.8,407.5-233.8,407.5z
			 M-237.2,407.5c-0.1,0.1-0.3,0-0.5-0.1C-237.6,407.4-237.4,407.4-237.2,407.5z M-233.8,407.3
			C-233.9,407.3-233.9,407.4-233.8,407.3C-233.9,407.4-233.8,407.4-233.8,407.3C-233.8,407.4-233.8,407.4-233.8,407.3z
			 M-236.4,407.2L-236.4,407.2C-236.3,407.2-236.5,407-236.4,407.2z M-239.1,406.8c0.2,0.1,0.5,0.1,0.7,0.2c0,0.1,0,0.1,0,0.2
			c-0.2,0-0.2-0.1-0.3-0.2c-0.4-0.1-0.8-0.2-1.2-0.3C-239.7,406.5-239.3,406.9-239.1,406.8z M-250,407.1c-0.1,0-0.1-0.1-0.1-0.1
			C-250,407-250,407.1-250,407.1z M-238.2,407.1C-238.2,407.1-238.3,407.1-238.2,407.1C-238.2,407-238.2,407.1-238.2,407.1z
			 M-239.6,406.9c0.1,0,0.1,0.1,0.2,0.1C-239.5,407-239.6,406.9-239.6,406.9C-239.7,406.9-239.6,406.9-239.6,406.9z M-234.6,407
			C-234.5,407-234.5,407-234.6,407C-234.5,406.9-234.5,406.9-234.6,407z M-238.1,406.9c-0.1,0-0.1-0.1-0.1-0.1L-238.1,406.9z
			 M-236.9,406.8L-236.9,406.8C-237,406.8-237,406.8-236.9,406.8C-236.9,406.9-236.9,406.9-236.9,406.8L-236.9,406.8z M-237.8,406.8
			L-237.8,406.8c-0.1,0-0.1,0-0.1,0.1C-237.8,406.8-237.8,406.8-237.8,406.8L-237.8,406.8z M-240.1,406.8c0,0.1-0.2,0-0.2-0.1
			C-240.2,406.7-240.2,406.8-240.1,406.8z M-237.7,406.6C-237.7,406.6-237.8,406.6-237.7,406.6c0.1,0.1,0.2,0.1,0.2,0.1
			C-237.5,406.6-237.7,406.7-237.7,406.6z M-234.6,406.6c0.1,0,0.1,0.1,0.1,0.1C-234.4,406.6-234.5,406.5-234.6,406.6z
			 M-240.1,406.6c-0.2-0.1-0.5-0.1-0.7-0.3C-240.7,406.3-240.2,406.4-240.1,406.6z M-240.7,406.6L-240.7,406.6L-240.7,406.6
			C-240.8,406.6-240.7,406.6-240.7,406.6z M-238.2,406.6c0.1,0,0.1,0.1,0.1,0C-238,406.5-238.2,406.4-238.2,406.6z M-241.1,406.5
			C-241,406.5-241,406.5-241.1,406.5C-241,406.6-241,406.6-241.1,406.5C-241,406.6-241,406.6-241.1,406.5
			C-241.1,406.6-241.1,406.6-241.1,406.5z M-238.9,406.6C-238.9,406.5-238.9,406.5-238.9,406.6C-238.9,406.5-239,406.5-238.9,406.6
			C-239,406.5-239,406.5-238.9,406.6C-239,406.5-239,406.5-238.9,406.6C-239,406.5-239,406.5-238.9,406.6
			C-239,406.6-238.9,406.6-238.9,406.6z M-241.2,406.5C-241.2,406.6-241.3,406.5-241.2,406.5C-241.2,406.4-241.2,406.5-241.2,406.5z
			 M-241.3,406.5C-241.4,406.5-241.4,406.5-241.3,406.5C-241.4,406.4-241.3,406.4-241.3,406.5z M-238.7,406.5c0.1,0,0.1,0,0.1-0.1
			C-238.6,406.4-238.7,406.4-238.7,406.5z M-238.4,406.4L-238.4,406.4L-238.4,406.4C-238.4,406.5-238.4,406.5-238.4,406.4
			L-238.4,406.4z M-241.7,406.4C-241.7,406.5-241.8,406.5-241.7,406.4C-241.8,406.4-241.7,406.4-241.7,406.4z M-250.8,406.3
			C-250.8,406.3-250.7,406.3-250.8,406.3C-250.7,406.4-250.7,406.4-250.8,406.3C-250.7,406.4-250.8,406.4-250.8,406.3
			C-250.8,406.4-250.8,406.4-250.8,406.3z M-238.7,406.3C-238.7,406.3-238.8,406.3-238.7,406.3
			C-238.8,406.4-238.8,406.4-238.7,406.3C-238.8,406.4-238.7,406.4-238.7,406.3C-238.7,406.4-238.7,406.4-238.7,406.3z
			 M-241.9,406.3c0,0.1-0.2,0-0.2,0C-242.1,406.2-241.9,406.3-241.9,406.3z M-237.8,406.1v0.1c0.1,0,0.1,0,0.1,0
			C-237.6,406.2-237.7,406.1-237.8,406.1z M-237.6,406.2c0,0,0.2,0.1,0.2,0C-237.4,406.2-237.6,406.1-237.6,406.2z M-242.3,406.2
			c-0.1,0-0.2-0.1-0.3-0.1C-242.5,406-242.4,406.2-242.3,406.2z M-238,406.2L-238,406.2C-237.9,406.1-238.1,406.1-238,406.2z
			 M-238.3,406c0,0.1,0.1,0.1,0.1,0.1C-238.1,406.1-238.2,406-238.3,406z M-239.9,406c0,0.1,0.1,0.1,0.1,0.1
			C-239.8,406-239.8,406-239.9,406z M-242.1,406L-242.1,406C-242.1,406.1-242.1,406.1-242.1,406C-242.2,406-242.2,406-242.1,406z
			 M-242.7,406c-0.1,0-0.1-0.1-0.2-0.1C-242.8,405.8-242.6,405.9-242.7,406z M-240.3,406c0.1,0,0.1,0.1,0.1,0
			C-240.1,405.9-240.3,405.9-240.3,406z M-242.4,406L-242.4,406C-242.4,406-242.5,406-242.4,406C-242.5,405.9-242.3,405.9-242.4,406
			z M-243.1,405.7c0.1,0,0.2,0.1,0.3,0.1C-242.9,405.9-243,405.8-243.1,405.7C-243.2,405.7-243.1,405.7-243.1,405.7z M-239.2,405.8
			c0.1,0,0.1,0,0.2,0C-238.9,405.7-239.2,405.7-239.2,405.8z M-242.1,405.8L-242.1,405.8L-242.1,405.8
			C-242.1,405.7-242.1,405.7-242.1,405.8z M-239.4,405.7c0.1,0,0.2,0.1,0.2,0C-239.2,405.7-239.4,405.6-239.4,405.7z M-242.7,405.6
			c0.1,0,0.2,0,0.1,0C-242.5,405.5-242.7,405.4-242.7,405.6z M-245.1,405.4c0,0.1,0.1,0.1,0.1,0.1C-245,405.4-245,405.4-245.1,405.4
			z M-240.5,405.4c0.1,0,0.1,0,0.2,0.1C-240.2,405.4-240.4,405.3-240.5,405.4z M-243.2,405.3c0,0.1,0.2,0.1,0.2,0.1
			C-243,405.3-243.1,405.3-243.2,405.3z M-245.5,405.3c0,0.1,0.1,0.1,0.2,0.1C-245.4,405.3-245.4,405.3-245.5,405.3z M-244.9,405.1
			c0.1,0,0.1,0.1,0.2,0.1C-244.7,405.1-244.8,405-244.9,405.1z M-245.4,404.9c-0.1,0-0.1,0.1-0.1,0.1c-0.1-0.1-0.2-0.1-0.3-0.2
			c0,0,0,0,0,0.1c0.2,0.1,0.5,0.3,0.7,0.2C-245.3,404.9-245.4,404.9-245.4,404.9z M-244.1,405C-244.1,404.9-244.1,404.9-244.1,405
			C-244.1,404.9-244.2,404.9-244.1,405C-244.2,404.9-244.1,404.9-244.1,405L-244.1,405z M-252,404.2L-252,404.2
			C-252,404.1-252,404.2-252,404.2z M-250.4,399.1c0.1,0.1,0.1,0.3,0.1,0.5c0.2,0.1,0.3,0.3,0.1,0.5c0.1,0.4,0.2,0.8,0.2,1.2
			c0.1,0.1,0.3,0.1,0.4,0.2c0.1,0,0.1-0.1,0.2,0c2.6,0.7,5.1,1.4,7.6,2.1c-0.1-0.3-0.1-0.6,0.1-0.8c-0.3-0.3-0.1-0.8-0.5-1.1
			c0,0,0.1,0,0.1-0.1c-0.2-0.2-0.2-0.5-0.4-0.8c-0.1,0,0,0.1-0.1,0.1c0-0.4-0.2-0.5-0.3-0.9c-0.3-0.1-0.1-0.5-0.4-0.6
			c0.1-0.1-0.1-0.2-0.2-0.3c0-0.2-0.1-0.2-0.1-0.4c-0.1,0-0.1-0.1-0.2-0.1c-0.4-0.8-0.8-1.5-1.4-2.1c0-0.3-0.2-0.4-0.4-0.5
			c0-0.1,0-0.1-0.1-0.2c-0.4-0.4-0.8-0.8-1.3-1.2c-0.1,0-0.1,0.1-0.1,0c-0.1-0.1-0.1-0.1-0.2-0.2c-0.1,0-0.1,0-0.2,0
			c-0.3-0.2-0.7-0.4-1.1-0.4c-0.2,0.1-0.3,0.3-0.6,0.4c0,0.1,0.1,0.2,0,0.2c-0.1,0-0.1-0.1-0.2,0c-0.3,0.3-0.4,0.7-0.6,1.1
			c0,0.1,0.1,0.1,0.1,0.2c-0.1,0.4-0.3,1-0.2,1.4c-0.1,0-0.1,0.1-0.1,0.1c0,0.1,0.1,0.2,0.1,0.3c0,0-0.1,0-0.1,0.1
			c0,0.5,0.3,1,0.3,1.4C-250.3,399.1-250.3,399-250.4,399.1z M-241.4,401.9c0,0.1,0.1,0.1,0.1,0.1C-241.2,402-241.3,402-241.4,401.9
			z M-241.4,401.9c0.1,0,0-0.2,0.1-0.2C-241.4,401.6-241.4,401.8-241.4,401.9z M-241.3,401.8C-241.3,401.8-241.2,401.9-241.3,401.8
			C-241.2,401.8-241.2,401.8-241.3,401.8z M-251.7,398.7c0.3,0.1,0,0.8,0.3,0.9c-0.1,0.1-0.1,0.1-0.1,0.2c0.3,0.2,0.1,0.6,0.3,0.8
			c-0.1,0.1,0,0.2,0,0.4c0.2,0.1,0.5,0.1,0.7,0.1c0-0.2-0.1-0.3,0-0.4c-0.1-0.1-0.3-0.3-0.2-0.5c0-0.1-0.1-0.1-0.1-0.1
			c0.1-0.2-0.1-0.4-0.1-0.8c0.1,0,0.1,0.1,0.1,0c-0.1-1.1-0.2-1.9-0.2-2.7c0.1,0,0.1-0.1,0.1-0.2c0-0.2,0.1-0.6,0-0.8
			c0.2-0.2,0.3-0.4,0.3-0.8c0.1-0.2,0.3-0.4,0.3-0.6c-0.2,0.1-0.4,0.3-0.5,0.6c-0.1,0-0.3-0.1-0.3-0.1c-0.2,0-0.2,0.2-0.3,0.4
			c0.1,0.1,0.1-0.1,0.1,0c-0.2,0.2-0.3,0.4-0.3,0.8c-0.1,0-0.1,0-0.1,0.1c0.2,0.3-0.1,0.8,0,1c-0.1,0,0,0.1-0.2,0.1
			c0.1,0.1,0,0.3,0.1,0.5c0,0-0.1,0-0.1,0.1c0.2,0,0,0.2,0.1,0.3C-251.8,398.3-251.6,398.5-251.7,398.7z M-242,400.7
			c0,0.1,0,0.1,0.1,0.1C-241.9,400.7-241.9,400.7-242,400.7z M-241.1,400.7C-241.1,400.8-241,400.8-241.1,400.7
			C-241.1,400.8-241,400.7-241.1,400.7z M-252.7,400.5c-0.1,0-0.1-0.2-0.2-0.1c0.1,0.1,0.1,0.2,0.1,0.3
			C-252.7,400.7-252.7,400.6-252.7,400.5z M-242,400.2c-0.1,0.1,0,0.2,0.1,0.2C-242,400.4-241.9,400.2-242,400.2z M-242.1,399.8
			c-0.1,0-0.1,0.4,0,0.5C-242.1,400.1-242,399.8-242.1,399.8z M-240.8,400c0,0.1,0,0.2,0.1,0.3C-240.7,400.1-240.7,400-240.8,400z
			 M-242.2,399.5c0,0.1,0.1,0.2,0.2,0.3C-242.1,399.7-242,399.5-242.2,399.5z M-236.6,399.8c0.1,0.1,0.1-0.2,0-0.2
			C-236.5,399.7-236.6,399.7-236.6,399.8z M-236.5,399.6C-236.5,399.6-236.4,399.6-236.5,399.6
			C-236.5,399.5-236.5,399.6-236.5,399.6z M-236.1,399.4c-0.1-0.1-0.3,0.2-0.1,0.2C-236.3,399.4-236.1,399.5-236.1,399.4z
			 M-242.3,399.1c0-0.1,0.1-0.2-0.1-0.2C-242.4,399-242.4,399.1-242.3,399.1c-0.1,0,0-0.1-0.1-0.1c0,0.1,0.1,0.3,0.2,0.4
			C-242.3,399.2-242.3,399.2-242.3,399.1L-242.3,399.1z M-235.9,399.1c-0.1,0-0.1,0-0.1,0.1C-235.9,399.3-235.9,399.3-235.9,399.1
			C-235.9,399.2-235.9,399.2-235.9,399.1z M-252.9,399C-252.9,399-252.8,399.1-252.9,399C-252.9,399-252.9,398.9-252.9,399z
			 M-235.8,398.9c-0.1,0.3,0.3,0.1,0.3-0.1C-235.6,398.8-235.6,399-235.8,398.9z M-251.5,398.8c0.1,0,0.1,0.1,0.1,0.1h-0.1
			C-251.5,398.8-251.4,398.8-251.5,398.8z M-235.8,398.7c0.1,0,0.1-0.1,0.2-0.1c0.1,0,0.1,0.1,0.2,0.1c0-0.1,0.1-0.1,0.1-0.2
			c-0.1,0-0.2,0.1-0.3,0.1c0-0.1,0.1-0.1,0.1-0.1c-0.1-0.1-0.2,0.1-0.1,0.1C-235.7,398.6-235.8,398.7-235.8,398.7
			c0.1,0,0.2,0.2,0.2,0C-235.7,398.8-235.7,398.8-235.8,398.7z M-242.6,398.7C-242.6,398.7-242.6,398.6-242.6,398.7
			C-242.5,398.7-242.5,398.7-242.6,398.7c0-0.1,0-0.3-0.2-0.4c0.1,0.1,0.1,0.1,0,0.3C-242.7,398.7-242.7,398.7-242.6,398.7z
			 M-251.4,398.7c-0.1,0-0.1-0.1-0.1-0.1C-251.4,398.5-251.4,398.6-251.4,398.7z M-235.2,398.3
			C-235.2,398.4-235.3,398.2-235.2,398.3c-0.1,0.1-0.2,0.1-0.1,0.2C-235.2,398.5-235.1,398.4-235.2,398.3z M-253.1,398.4
			C-253.1,398.5-253.1,398.4-253.1,398.4C-253.2,398.3-253.1,398.4-253.1,398.4z M-241.4,398.2
			C-241.3,398.2-241.3,398.3-241.4,398.2C-241.4,398.3-241.3,398.3-241.4,398.2z M-233.7,396.5
			C-233.7,396.5-233.7,396.4-233.7,396.5c-0.1-0.1-0.1,0-0.1,0.1c-0.1,0-0.1,0.1-0.2,0.1c0,0.1,0,0.1,0,0.2
			c-0.3,0.1-0.3,0.4-0.5,0.5c0.1,0,0.1,0,0.1,0.1c-0.1,0-0.3,0.1-0.4,0.2c0.1,0,0.1,0,0.1,0c0,0.1-0.1,0.1-0.2,0.1
			c0,0.3-0.5,0.1-0.5,0.6c0.1-0.1,0.2-0.1,0.4-0.1c0.3-0.4,0.6-0.7,0.8-1.1c0.1,0,0.1-0.1,0.1-0.1c0-0.3,0.3-0.2,0.3-0.5
			C-233.8,396.5-233.7,396.5-233.7,396.5z M-242.9,398.2C-242.9,398.1-242.9,398.1-242.9,398.2C-243,398.1-243,398.1-242.9,398.2
			C-243,398.1-243,398.1-242.9,398.2C-243,398.2-242.9,398.2-242.9,398.2z M-234,398.1C-234,398.1-234,398.2-234,398.1
			C-234.1,398.1-234,398.1-234,398.1z M-253.1,398c0-0.1,0-0.2,0-0.2S-253,398-253.1,398z M-235,397.7c-0.1,0-0.2,0.1-0.1,0.2
			C-235,397.9-235,397.8-235,397.7z M-234.7,397.6C-234.7,397.6-234.8,397.6-234.7,397.6C-234.8,397.6-234.7,397.6-234.7,397.6z
			 M-241.9,397.2c-0.1-0.1-0.1-0.2-0.2-0.3C-242,396.9-241.9,397.1-241.9,397.2z M-243.8,396.7c0,0.1,0,0.1,0.1,0.2
			C-243.7,396.9-243.7,396.7-243.8,396.7z M-242.1,396.8C-242.1,396.9-242.1,396.8-242.1,396.8
			C-242.2,396.7-242.1,396.8-242.1,396.8z M-242.3,396.6C-242.3,396.6-242.2,396.6-242.3,396.6L-242.3,396.6z M-252.9,396.5
			L-252.9,396.5C-252.9,396.6-252.9,396.6-252.9,396.5C-252.9,396.6-252.9,396.5-252.9,396.5z M-233.9,396.2
			c-0.1,0.1-0.3,0.3-0.2,0.4C-234,396.5-233.9,396.3-233.9,396.2z M-233.7,396.3c0.1,0,0.1-0.1,0.1-0.2
			C-233.6,396.2-233.7,396.2-233.7,396.3z M-233.8,396.2c0.1,0,0.2-0.1,0.1-0.1C-233.7,396.1-233.9,396.1-233.8,396.2z
			 M-252.9,396.1L-252.9,396.1L-252.9,396.1C-252.9,396-252.8,396-252.9,396.1z M-252.8,396c-0.1,0-0.1-0.1-0.1-0.1
			S-252.8,395.9-252.8,396z M-233.7,395.9c0.1,0,0.2,0,0.1-0.1C-233.6,395.8-233.7,395.8-233.7,395.9z M-235.4,395.7
			C-235.4,395.8-235.4,395.8-235.4,395.7C-235.5,395.8-235.5,395.7-235.4,395.7z M-249.7,395.3L-249.7,395.3
			C-249.7,395.4-249.8,395.4-249.7,395.3C-249.8,395.3-249.7,395.3-249.7,395.3z M-249.6,395.1L-249.6,395.1L-249.6,395.1z
			 M-249.7,394.9c0,0.1-0.1,0.1-0.1,0.1S-249.8,394.9-249.7,394.9L-249.7,394.9z M-250.9,394.7C-250.9,394.8-251,394.7-250.9,394.7
			c0,0.2,0.1,0.1,0.1,0C-250.8,394.7-250.9,394.7-250.9,394.7z M-244.4,394c0,0.2,0.2,0.4,0.4,0.6
			C-244.1,394.4-244.3,394.2-244.4,394z M-251.1,394.5C-251.1,394.5-251.1,394.4-251.1,394.5C-251.2,394.5-251.2,394.5-251.1,394.5
			L-251.1,394.5L-251.1,394.5z M-250.5,394.4C-250.6,394.4-250.6,394.4-250.5,394.4c-0.1,0.1-0.1,0.1,0,0.1
			C-250.5,394.5-250.5,394.4-250.5,394.4z M-250.2,394c0.1,0.2-0.3,0.2-0.3,0.4c0.1,0,0.2-0.1,0.3-0.2
			C-250.2,394.2-250,394-250.2,394z M-245.5,394.2C-245.5,394.2-245.6,394.2-245.5,394.2C-245.6,394.2-245.6,394.2-245.5,394.2
			C-245.6,394.3-245.5,394.3-245.5,394.2L-245.5,394.2z M-244.5,394c0-0.1,0-0.1-0.1-0.1C-244.6,393.9-244.6,393.9-244.5,394
			c-0.2,0-0.2-0.1-0.3-0.1c0.1,0,0-0.1,0-0.1c-0.2-0.1-0.3-0.5-0.5-0.4C-245,393.6-244.8,394-244.5,394L-244.5,394L-244.5,394z
			 M-250,394c0.1,0,0.1-0.1,0.1-0.1C-250,393.9-250,393.9-250,394z M-233.1,393.8C-233,393.8-233,393.8-233.1,393.8
			C-233,393.9-233,393.9-233.1,393.8C-233,393.9-233.1,393.9-233.1,393.8L-233.1,393.8z M-244.6,393.7
			C-244.6,393.8-244.6,393.8-244.6,393.7C-244.5,393.8-244.6,393.8-244.6,393.7z M-250.6,393.8L-250.6,393.8
			C-250.6,393.7-250.6,393.7-250.6,393.8L-250.6,393.8L-250.6,393.8z M-249.9,393.6c0,0.1-0.1,0.1-0.1,0.2c0.2,0,0.3,0,0.3-0.2
			C-249.7,393.6-249.8,393.6-249.9,393.6z M-249.9,393.5c0.1,0.1,0.3,0,0.3-0.1C-249.7,393.4-249.8,393.4-249.9,393.5z
			 M-249.5,393.4c0.1,0,0.1,0,0.1,0C-249.3,393.3-249.4,393.3-249.5,393.4z M-245.6,393c0,0.1,0,0.1,0,0.3c0.1,0,0.1,0,0.2,0
			C-245.5,393.1-245.5,393-245.6,393z M-250.1,393.2c0.1-0.1,0.3,0,0.4-0.1C-249.8,393.1-250,393.1-250.1,393.2z M-246,393
			c0,0.1,0.1,0.1,0.1,0.1C-245.9,393-245.9,393-246,393z M-245.9,392.9c0.1,0,0.1,0.1,0.1,0.1C-245.7,392.9-245.8,392.8-245.9,392.9
			z M-246.4,392.8c0,0.1,0.1,0.1,0.1,0.1C-246.3,392.8-246.3,392.8-246.4,392.8z M-246.3,392.7c0,0.1,0.2,0.2,0.2,0.1
			C-246.1,392.8-246.1,392.7-246.3,392.7z M-246.7,392.7L-246.7,392.7C-246.8,392.7-246.8,392.7-246.7,392.7L-246.7,392.7
			L-246.7,392.7z M-246.1,392.7L-246.1,392.7L-246.1,392.7z M-246.8,392.6c0.1,0,0.1,0,0.1-0.1
			C-246.7,392.5-246.8,392.6-246.8,392.6z M-251.1,392.5C-251.1,392.5-251,392.5-251.1,392.5C-251.1,392.6-251.1,392.6-251.1,392.5
			C-251.1,392.6-251.1,392.5-251.1,392.5z M-250.2,392.3C-250.2,392.3-250.3,392.4-250.2,392.3
			C-250.3,392.4-250.2,392.4-250.2,392.3C-250.2,392.4-250.2,392.4-250.2,392.3z M-249.5,392.3c-0.1,0-0.3-0.1-0.4,0
			c0,0.1,0,0.1,0,0.1C-249.8,392.2-249.6,392.4-249.5,392.3z M-249.3,392.3C-249.2,392.3-249.2,392.3-249.3,392.3
			C-249.2,392.2-249.4,392.2-249.3,392.3z M-247.8,392.2L-247.8,392.2C-247.8,392.3-247.8,392.3-247.8,392.2
			C-247.8,392.3-247.8,392.3-247.8,392.2C-247.8,392.3-247.8,392.3-247.8,392.2z M-247.9,392.2
			C-247.8,392.2-247.8,392.1-247.9,392.2L-247.9,392.2z M-248.2,392C-248.2,392.1-248.1,392-248.2,392
			C-248.1,392-248.1,392-248.2,392z"/>
		<path class="st3" d="M-250.6,376.1L-250.6,376.1c0.2,0.7,0.3,1.4,0.6,2.3c-0.2-0.3-0.3-0.5-0.6-0.8c0.1-0.1,0-0.3-0.1-0.3
			c0-0.1-0.1-0.3-0.2-0.2c-0.1-0.2-0.1-0.6-0.3-0.8c-0.2,0,0,0.1-0.1,0.1c0-0.4-0.3-0.7-0.5-1c-0.1,0.6,0.1,1.1,0.1,1.8
			c-0.1,0-0.1-0.1-0.1-0.1c0,0.6,0.3,1.3,0.1,2.1c0.2,1.3,0.3,2.9,0.3,4.1c0,0.1,0.1,0.2,0.1,0.3c1.8,0.7,3.8,1.5,5.6,2
			c0.1,0,0.1,0.1,0.1,0.1c2.9,1,5.8,1.9,8.8,2.8c0,0.1-0.1,0-0.1,0.1c0.2,0.2,0.6,0.2,1,0.4l-0.1,0.1c0.2,0.2,0.6,0.2,1,0.3
			c0.2,0.1,0.2,0.3,0.5,0.4c0,0.1,0,0.1,0,0.2c0.1,0,0.5-0.1,0.5,0.3c0.1,0.1,0.2,0.3,0.5,0.4c-0.1,0.1,0,0.1,0,0.1
			c0.1,0,0.2,0,0.3,0.1c-0.2,0.1,0.3,0.2,0.4,0.3c0,0-0.1,0-0.1,0.1c0.3,0.1,0.5,0.3,0.8,0.5c-0.8,0.1-1.8,0.1-2.5-0.1
			c0,0,0,0,0,0.1c-0.1,0-0.1-0.1-0.1-0.1c-0.8-0.2-1.8-0.4-2.4-0.6c-0.1,0-0.1-0.1,0-0.1c-0.1,0-0.1-0.1-0.1,0
			c-0.1-0.1-0.2-0.1-0.1-0.3c-0.1,0.1-0.5,0.1-0.5-0.1c-0.1-0.1-0.1,0-0.2,0c0,0,0,0,0.1-0.1c-0.5-0.1-0.9-0.3-1.4-0.3
			c0,0.1,0.4,0.1,0.3,0.2c0.1,0.1,0.2,0.1,0.3,0.1c-0.1,0.1-0.3-0.1-0.3,0c-1-0.3-2.1-0.6-3.1-0.9c-0.1,0-0.3,0-0.4-0.1
			c-0.1,0-0.1,0-0.2,0c-0.2-0.2-0.8-0.1-0.9-0.3c-0.1,0-0.3,0-0.2-0.1c0.1,0,0.1,0.1,0.2,0.1c0-0.1-0.1-0.1,0-0.1
			c-0.1-0.1-0.1-0.1-0.2-0.1c-0.1-0.1-0.3-0.1-0.5-0.2c0.2-0.1,0.3,0.2,0.6,0.2c0-0.2-0.4-0.1-0.5-0.3c-0.3-0.1-0.6-0.1-0.8-0.2
			c-0.1,0-0.1,0.1-0.1,0c-0.2-0.1-0.4-0.3-0.8-0.3c0,0-0.1,0,0-0.1c-0.6,0.1-1.4-0.4-2-0.5c-0.1,0.1,0,0,0,0.1
			c-0.1-0.1-0.3,0-0.3-0.1c0.1,0.2,0.3,0.1,0.5,0.1c0,0.1,0.1,0.2,0.3,0.2c0.1,0-0.1-0.1-0.1-0.1c0.1,0,0.1,0.2,0.2,0.2
			c0-0.2,0.1,0.1,0.2-0.1c0.1,0.1,0,0.1,0,0.2c0.2-0.1,0.3,0.2,0.5,0.3c-0.1,0.1-0.3,0-0.3-0.1c-0.1,0-0.1,0-0.1,0.1
			c-0.2-0.1-0.5-0.2-0.7-0.3c-0.2,0.1-0.5-0.1-0.8-0.1c0-0.1,0-0.1,0-0.2c-0.2-0.2-0.7-0.2-1-0.4c-0.1,0-0.1,0-0.1,0.1
			c-0.3-0.2-0.6-0.3-1-0.5c-0.1,0,0,0.1,0,0.1c-0.1,0-0.2,0.1-0.3,0c0,0.1-0.1,0.4,0,0.6c0,0.1,0,0.4,0.1,0.3c0,0.1,0.1,0.1,0.1,0.2
			c0,0,0.1,0,0.1-0.1c0,0.3,0.3,0.8,0.1,1.2c0.2,0.8,0.3,1.5,0.5,2.3c0.1,0.5,0.3,1,0.3,1.7c0,0,0,0.1,0.1,0.1
			c-0.1,0.4,0.1,0.9,0,1.3c-0.1,0.1,0,0.1,0.1,0.1c-0.2,0.2-0.5,0.4-0.8,0.5c-0.1,0,0,0,0,0.1c-0.4-0.1-0.4,0.3-0.8,0.2
			c-0.1,0.1-0.3,0.2-0.4,0.3c0,0,0-0.1-0.1-0.1c-0.1,0-0.2,0.1-0.3,0.1c0-0.2,0-0.4,0-0.5c-0.2,0.1-0.3,0.2-0.6,0.1
			c0.1-0.1,0.2-0.2,0.1-0.3c-0.1,0-0.1,0.1-0.2,0.1c0.1-0.1-0.1-0.1-0.1-0.2c0.1,0,0.1,0,0.1,0.1c0.2-0.4,0.3-0.6,0.2-1.1
			c0-0.1,0-0.1,0.1,0c0.1-0.2-0.1-0.1-0.1-0.3c0,0,0,0,0.1,0c-0.1-0.3,0-0.8-0.1-1c0-0.1,0.1,0,0.1,0c0-0.1-0.1-0.1-0.1-0.1
			c0.1-0.1,0-0.2,0.1-0.5c-0.1,0-0.1,0-0.1,0.1c0-0.1,0-0.3,0-0.4s-0.1,0-0.1,0c0.1-0.1,0.1-0.2,0-0.2c0-0.1,0.1-0.1,0.1-0.2
			s-0.1,0-0.1,0c0-0.1-0.1-0.1,0-0.2c0.1,0,0.1,0.1,0.1,0.1c0.1-0.1-0.1-0.1,0-0.3c-0.1,0-0.1,0.1-0.2,0c0-0.1,0.1-0.1,0.1-0.1
			c-0.1,0-0.1-0.1-0.1-0.2c0,0,0,0,0.1,0v0.1c0,0,0.1-0.1,0-0.1c0.1-0.1,0-0.2-0.1-0.3c0-0.1,0.1,0.1,0.2,0c0-0.1-0.1-0.2-0.1-0.3
			c-0.1-0.1-0.1,0.1-0.1,0c0-0.1,0.1,0,0.1-0.1c-0.1-0.2,0-0.7-0.2-0.7c-0.1-0.1,0-0.1,0.1-0.1c-0.1-0.8-0.2-1.7-0.3-2.6
			c-0.6-0.2-1.2-0.5-1.9-0.6c0.2-0.1,0.1-0.2,0-0.3c0.1-0.1,0.1-0.2,0-0.3c0.2-0.2,0.1-1,0.5-1c0-0.2,0-0.3,0-0.6
			c0.3-0.1,0.5-0.3,0.8-0.4c-0.2-1.7-0.3-3.5-0.5-5.4c-0.1-0.3,0-0.7,0-1c-0.1-0.4,0-1,0-1.4c-0.1-0.4-0.1-1,0-1.4
			c-0.2-0.3,0.1-1,0-1.5c0-0.1,0.1-0.1,0.1-0.1c-0.2-0.2,0.1-0.7-0.2-0.8c-0.1,0.1,0,0.2-0.1,0.2c-0.1-0.1-0.1-0.2,0-0.3
			c0.3-0.1,0.4-0.3,0.3-0.7c0.2,0,0.2-0.2,0.4-0.1c0.1-0.1,0.1-0.2,0.1-0.4c0.1,0.1,0.1,0.1,0.2,0c0.1,0,0.1,0.1,0.3,0.1
			c0.1,0,0.1-0.1,0.1-0.3c0.3-0.1,0.1,0.2,0.4,0.2c0,0.1,0,0.3,0.1,0.4c0.1,0,0.1,0,0.1-0.1c0.1,0.1-0.1,0.3,0.1,0.4
			c0.1,0,0.1-0.1,0.1-0.1c0.4,0.5,0.4,1.4,0.7,2c-0.1,0.2,0,0.4,0.1,0.5c0,0.3,0,0.6,0.2,0.8c-0.1,0.4,0.3,0.8,0.2,1.2l0,0l0,0
			C-250.8,375.6-250.7,375.7-250.6,376.1z M-249.9,393.9L-249.9,393.9C-249.8,393.8-249.9,393.8-249.9,393.9z M-249.9,392.8
			C-249.8,392.8-249.8,392.8-249.9,392.8C-249.8,392.7-249.9,392.8-249.9,392.8z M-252.3,391.6
			C-252.3,391.6-252.4,391.6-252.3,391.6C-252.4,391.6-252.4,391.6-252.3,391.6C-252.4,391.6-252.3,391.6-252.3,391.6L-252.3,391.6z
			 M-250.9,391.4L-250.9,391.4L-250.9,391.4z M-237.3,390.9c0,0.1,0.1,0.1,0.1,0.1S-237.2,390.9-237.3,390.9z M-233.5,391
			C-233.6,391-233.6,391-233.5,391c-0.1,0-0.1,0-0.1,0.1C-233.6,391-233.6,391-233.5,391L-233.5,391z M-238.3,390.7
			c0,0.1-0.1,0.1-0.1,0.1c0-0.1-0.1-0.1-0.1-0.2C-238.4,390.6-238.3,390.7-238.3,390.7z M-238.8,390.7c0.1-0.2-0.1-0.1-0.1-0.2
			c0.2,0,0.2,0.1,0.3,0.1c-0.1,0.1,0,0.1,0,0.2C-238.7,390.8-238.7,390.7-238.8,390.7z M-237.7,390.7c0.1,0,0.2,0,0.3,0
			c-0.1-0.3-0.6-0.3-0.9-0.3v0.1c0.2,0,0.3,0.1,0.5,0.1C-237.8,390.7-237.7,390.7-237.7,390.7z M-251.6,390.5
			C-251.7,390.4-251.7,390.5-251.6,390.5L-251.6,390.5z M-252.4,390.5C-252.4,390.5-252.3,390.5-252.4,390.5
			C-252.4,390.4-252.4,390.5-252.4,390.5z M-251.6,390.3L-251.6,390.3C-251.6,390.4-251.6,390.4-251.6,390.3
			C-251.6,390.4-251.6,390.3-251.6,390.3z M-238.9,390.3C-238.9,390.3-239,390.3-238.9,390.3c0.1,0.1,0.2,0.1,0.3,0.1
			C-238.6,390.3-238.8,390.3-238.9,390.3z M-252.6,390.2C-252.5,390.2-252.6,390.3-252.6,390.2
			C-252.7,390.3-252.7,390.3-252.6,390.2z M-252.4,390.1c-0.1,0.1,0,0.2,0.1,0.2C-252.3,390.2-252.4,390.1-252.4,390.1z
			 M-239.9,390.3c0-0.2-0.6-0.3-0.6-0.2c0.1,0,0.1,0.2,0.2,0.2C-240.2,390.2-240.1,390.2-239.9,390.3z M-239.8,390.3
			c-0.1,0-0.1,0-0.1,0s0,0,0,0.1C-239.8,390.3-239.8,390.3-239.8,390.3L-239.8,390.3z M-239.2,390.3
			C-239.3,390.2-239.4,390.3-239.2,390.3C-239.2,390.3-239.1,390.2-239.2,390.3z M-251.6,390.1c-0.1,0.1,0.1,0.2,0.1,0.1
			C-251.6,390.2-251.6,390.2-251.6,390.1z M-241.1,389.9c0.1,0,0.3,0.1,0.4,0.1C-240.8,390-241,389.8-241.1,389.9z M-251.6,389.8
			C-251.7,389.8-251.7,389.8-251.6,389.8l-0.1,0.2C-251.6,389.9-251.6,389.8-251.6,389.8z M-234.3,389.9c0,0.1-0.1,0.1-0.1,0.1
			C-234.4,389.8-234.3,389.9-234.3,389.9z M-251.5,389.6c0-0.1,0-0.1-0.1-0.1C-251.6,389.5-251.6,389.6-251.5,389.6L-251.5,389.6z
			 M-241.5,389.6h0.1C-241.3,389.6-241.4,389.6-241.5,389.6c-0.3-0.2-0.8-0.3-1.2-0.5C-242.4,389.4-242,389.5-241.5,389.6
			L-241.5,389.6z M-235.4,389.5c0.1,0,0.1,0,0.1,0.1C-235.3,389.5-235.4,389.5-235.4,389.5z M-251.7,389.6
			C-251.7,389.6-251.6,389.5-251.7,389.6C-251.7,389.5-251.7,389.5-251.7,389.6z M-251.8,389.1c-0.1,0-0.1,0.1,0,0.2
			C-251.7,389.2-251.9,389.1-251.8,389.1z M-243.4,389.2c0,0.1,0.1,0.1,0.2,0.1C-243.2,389.1-243.4,389.1-243.4,389.2z M-243.4,389
			c0.2,0.1,0.4,0.1,0.6,0.3C-242.8,389-243.2,389-243.4,389z M-235.5,389.2C-235.5,389.3-235.6,389.2-235.5,389.2
			C-235.6,389.1-235.6,389.2-235.5,389.2z M-244.5,389.1L-244.5,389.1L-244.5,389.1z M-244.7,388.9c0.2-0.1,0.3,0,0.6,0v0.1
			c-0.4-0.1-0.7-0.1-1.2-0.1c0.1-0.1-0.1-0.1,0-0.2c0-0.1-0.1,0-0.1,0c-0.2-0.1-0.4-0.2-0.5-0.3c-0.1,0-0.2,0.1-0.3,0.1
			c-0.1,0-0.3-0.2-0.4-0.2c0.1-0.1,0.1,0,0.3,0.1c-0.1-0.2-0.3-0.1-0.3-0.3c0.2,0,0.4,0.1,0.6,0.1c0,0.1,0.1,0.1,0.1,0.2
			c0.1,0,0.1,0,0.3,0v0.1c0.1,0,0.1,0,0.2,0C-245.3,388.7-244.9,388.7-244.7,388.9z M-251.8,389c0.1-0.1,0.1-0.3,0-0.3
			c-0.1,0-0.1,0-0.2,0c-0.1,0.2,0.1,0.3,0.1,0.4C-251.8,389.1-251.8,388.9-251.8,389z M-252.7,389C-252.7,389-252.8,389-252.7,389
			c-0.1,0-0.1-0.1-0.1-0.2C-252.8,388.9-252.7,388.9-252.7,389z M-243.8,388.9c0.1,0,0.3,0.2,0.3,0.1S-243.7,388.7-243.8,388.9z
			 M-250.7,389C-250.7,388.9-250.6,388.9-250.7,389C-250.6,388.9-250.7,388.9-250.7,389z M-250.7,388.3c0,0.1-0.1,0.4,0.1,0.4
			C-250.6,388.6-250.7,388.4-250.7,388.3z M-245.5,388.7C-245.6,388.7-245.6,388.7-245.5,388.7L-245.5,388.7z M-252,388.6
			c0.1,0,0.1,0,0.2,0c0-0.1,0.1-0.1,0.1-0.1c-0.1-0.1-0.2-0.2-0.1-0.4c-0.1,0-0.1,0.2-0.2,0.1c0,0.1,0,0.1,0,0.2
			C-252,388.4-252,388.5-252,388.6C-252.1,388.6-252,388.7-252,388.6z M-246.1,388.5L-246.1,388.5
			C-246.1,388.6-246.1,388.6-246.1,388.5C-246.1,388.6-246.1,388.6-246.1,388.5L-246.1,388.5z M-245.6,388.4c0.1,0,0.1,0.1,0.3,0.1
			C-245.3,388.6-245.4,388.5-245.6,388.4C-245.5,388.4-245.6,388.5-245.6,388.4z M-252.9,387.8c0.1,0,0,0.1,0.1,0.1
			c-0.1,0.1-0.1,0.2,0,0.3c-0.1,0-0.1-0.1-0.2-0.1C-253,388-252.9,387.9-252.9,387.8z M-253.1,388.1
			C-253,388.1-253.1,388.2-253.1,388.1C-253.1,388.2-253.1,388.2-253.1,388.1z M-246.7,388c0.1,0,0.1,0.1,0.2,0.1
			C-246.6,388.2-246.7,388.2-246.7,388C-246.7,388.1-246.7,388.1-246.7,388z M-252,388C-252,388-252.1,388-252,388
			C-252.1,388-252.1,388-252,388C-252.1,388.1-252,388.1-252,388C-252,388.1-252,388.1-252,388z M-251.8,387.8c-0.1,0-0.1,0-0.1-0.1
			c0,0.1,0,0.2,0,0.3C-251.9,388-251.8,388-251.8,387.8z M-246.5,387.9L-246.5,387.9C-246.5,387.8-246.5,387.9-246.5,387.9z
			 M-250.8,387.8C-250.8,387.7-250.7,387.9-250.8,387.8C-250.8,387.8-250.7,387.8-250.8,387.8z M-252.5,387.6c0,0.1-0.1,0.1-0.1,0.2
			c0.1,0,0.1,0,0.1-0.1C-252.5,387.8-252.4,387.6-252.5,387.6z M-243.8,387.4c-0.3,0-0.6-0.4-0.8-0.2c0.3,0.1,0.6,0.2,0.8,0.4
			C-243.8,387.5-243.8,387.4-243.8,387.4z M-248.3,387.5c0,0,0.1,0.1,0.2,0C-248.2,387.5-248.3,387.4-248.3,387.5z M-252.5,387.5
			C-252.5,387.5-252.4,387.5-252.5,387.5L-252.5,387.5z M-248.3,387.4c0-0.1,0-0.1,0-0.2c-0.5-0.1-0.8-0.1-1.1-0.4
			c-0.2,0.2-0.4-0.1-0.6-0.1v0.1c-0.1,0-0.1-0.1-0.1-0.1c-0.2,0.1-0.5-0.5-0.8-0.1c-0.1-0.1,0-0.1-0.1-0.1c-0.1,0.3,0.1,0.1,0.2,0.3
			c-0.1-0.1-0.1,0-0.2,0c0,0.1,0.3,0.1,0.4,0.1c-0.1,0-0.1-0.1,0-0.1c0.3,0.2,0.6,0.2,1,0.5c0-0.1-0.1-0.1,0-0.1
			c0.2,0.1,0.4,0.4,0.7,0.3C-248.7,387.5-248.5,387.5-248.3,387.4z M-244.5,387.4c0.1,0,0.2,0.1,0.2,0
			C-244.3,387.4-244.5,387.3-244.5,387.4z M-250.8,387.3C-250.7,387.3-250.8,387.3-250.8,387.3
			C-250.8,387.4-250.8,387.3-250.8,387.3z M-248.9,387.3L-248.9,387.3C-248.9,387.4-249,387.3-248.9,387.3z M-251.7,387.2
			C-251.8,387.2-251.8,387.2-251.7,387.2C-251.8,387.3-251.8,387.3-251.7,387.2C-251.8,387.3-251.8,387.3-251.7,387.2
			C-251.8,387.3-251.8,387.3-251.7,387.2z M-250.7,387.2C-250.7,387.2-250.8,387.2-250.7,387.2
			C-250.8,387.3-250.8,387.2-250.7,387.2z M-252.2,387.2c0.1,0,0.1,0,0.1-0.1C-252.1,387.2-252.1,387.2-252.2,387.2
			C-252.1,387-252.3,387-252.2,387.2C-252.2,387.2-252.3,387.1-252.2,387.2C-252.1,387.2-252.3,387.2-252.2,387.2z M-250.8,387.2
			C-250.7,387.2-250.8,387.2-250.8,387.2L-250.8,387.2z M-251.6,386.8c-0.1,0-0.1-0.1-0.1-0.1c0,0.1,0,0.2,0,0.4
			C-251.6,387.2-251.7,387-251.6,386.8z M-249,387.2c-0.1,0-0.1,0-0.1-0.1C-249.2,387.1-249,387.1-249,387.2z M-250.3,387.1
			C-250.3,387.1-250.4,387.1-250.3,387.1C-250.5,387-250.3,387-250.3,387.1z M-250.8,386.7c-0.1,0.1-0.1,0.1-0.1,0
			c0,0.1-0.1,0.2,0,0.3C-250.9,386.9-250.9,386.8-250.8,386.7z M-245.4,386.8c-0.5,0-0.9-0.3-1.3-0.3c0.6,0.3,1.2,0.5,1.9,0.5
			C-244.9,386.9-245.2,386.9-245.4,386.8z M-252.2,386.9L-252.2,386.9L-252.2,386.9C-252.2,386.8-252.2,386.8-252.2,386.9
			C-252.2,386.9-252.3,386.9-252.2,386.9C-252.2,387-252.1,387-252.2,386.9L-252.2,386.9z M-251.5,386.9
			C-251.5,386.9-251.6,386.9-251.5,386.9C-251.6,386.9-251.5,386.9-251.5,386.9L-251.5,386.9z M-250.7,386.9
			C-250.8,386.9-250.8,386.9-250.7,386.9C-250.8,386.9-250.8,386.9-250.7,386.9C-250.8,386.9-250.8,386.9-250.7,386.9z
			 M-249.8,386.8C-249.8,386.9-249.8,386.9-249.8,386.8C-249.8,386.9-249.8,386.9-249.8,386.8C-249.9,386.8-249.8,386.8-249.8,386.8
			z M-252,386.8C-252.1,386.8-252,386.8-252,386.8C-252,386.7-252,386.7-252,386.8z M-250.6,386.7
			C-250.7,386.7-250.6,386.7-250.6,386.7S-250.7,386.7-250.6,386.7C-250.7,386.7-250.7,386.7-250.6,386.7z M-252.7,386.7
			c0-0.1,0.1-0.1,0.1-0.2h-0.1c0-0.1-0.1,0,0,0C-252.7,386.5-252.8,386.6-252.7,386.7z M-250.5,386.6c-0.1,0-0.1-0.1-0.3-0.1
			C-250.8,386.4-250.5,386.5-250.5,386.6z M-251.8,386.5C-251.8,386.5-251.9,386.5-251.8,386.5
			C-251.9,386.5-251.9,386.5-251.8,386.5C-251.9,386.6-251.8,386.6-251.8,386.5L-251.8,386.5z M-247.7,386.4c0.1,0,0.2,0.1,0.4,0.1
			C-247.3,386.3-247.6,386.3-247.7,386.4z M-249.5,386.2c-0.1,0-0.2-0.2-0.2,0c-0.2-0.1-0.2-0.2-0.4-0.2c-0.1,0.1,0,0.1-0.1,0.2
			c0.2,0,0.3,0.2,0.6,0.2c0,0.1,0.2,0.2,0.2,0C-249.4,386.4-249.4,386.3-249.5,386.2c-0.1,0.1-0.2,0-0.2,0
			C-249.6,386.1-249.6,386.3-249.5,386.2z M-248,386.3C-248.1,386.2-248.2,386.3-248,386.3C-248,386.4-247.8,386.3-248,386.3z
			 M-251.6,386.3L-251.6,386.3L-251.6,386.3z M-252.2,386.3C-252.3,386.3-252.2,386.3-252.2,386.3
			C-252.3,386.3-252.3,386.3-252.2,386.3z M-252.3,386.3L-252.3,386.3C-252.3,386.2-252.4,386.2-252.3,386.3
			C-252.4,386.2-252.4,386.2-252.3,386.3C-252.4,386.2-252.4,386.2-252.3,386.3C-252.4,386.3-252.4,386.3-252.3,386.3
			C-252.4,386.3-252.4,386.3-252.3,386.3z M-250.6,386.1c0.1,0,0.3,0.1,0.3,0C-250.3,386.1-250.5,386-250.6,386.1z M-251.1,385.3
			c0.1,0.1,0.3,0,0.4,0.1C-250.7,385.3-251,385.2-251.1,385.3z M-249.4,385c0.1,0,0.2,0.1,0.4,0.1l0,0c0.1,0,0.1,0.1,0.1,0
			c-0.1-0.1-0.1-0.1-0.1-0.1C-249.1,385-249.2,384.9-249.4,385C-249.4,384.9-249.4,384.9-249.4,385L-249.4,385z M-253.2,376.9
			c0.2,0.1,0.2,0.5,0.2,0.7c-0.1,0-0.1-0.1-0.1,0s0.1,0.3,0,0.3c-0.1-0.1-0.1-0.3-0.2-0.5c0.1,0,0.1,0.2,0.2,0.1
			c-0.1-0.1-0.1-0.3-0.2-0.3c-0.1,0.1-0.2,0.3,0,0.5c-0.1,0-0.1,0-0.2,0c0.2,0.1,0.1,0.4,0.2,0.5c-0.1,0-0.1,0-0.1,0
			c-0.1,0.2-0.1,0.2,0.1,0.3c0,0.1-0.1,0-0.1,0.1c0.1,0.4,0.1,1,0.2,1.4c-0.1,0.2,0.1,0.6,0,0.8c0.1,0.1,0,0.3,0.2,0.4
			c-0.1,0-0.1,0-0.1,0.1c0.3,0.5-0.1,0.9,0.2,1.3c0,0.3,0,0.6,0.1,0.7c0.2,0,0.4,0.1,0.6,0.1c-0.1-0.3-0.2-0.8-0.1-1
			c0.2,0.3,0,0.7,0.3,0.9v0.1c0.1,0,0.2,0.1,0.3,0c-0.1-0.3-0.2-0.6-0.3-0.9c0.1,0,0.1,0,0.1-0.1c-0.1-0.1-0.2,0-0.2-0.1
			c0.2-0.2,0-0.8,0.1-1.2c-0.2-0.1-0.1-0.4-0.2-0.5c0.1-0.2-0.1-0.4,0-0.6c-0.1-0.1-0.1-0.4-0.2-0.4c0.1,0.4,0.1,1,0.1,1.5h0.1
			c-0.1,0.1,0,0.2-0.1,0.2c-0.1-0.7-0.2-1.2-0.2-1.9c0.1-0.1,0.1-0.2,0.1-0.3c-0.5-0.8-0.1-1.8-0.3-2.6c-0.1-0.1,0,0.1-0.1,0.1
			c-0.1-0.4-0.1-0.9-0.1-1.3c-0.2,0.1-0.3,0-0.4,0.1c0.2,0.1,0.2,0.3,0.1,0.6C-253.2,376.2-253.1,376.5-253.2,376.9z M-251.5,383.4
			c0.1,0,0.1-0.1,0.1-0.1C-251.4,383.3-251.5,383.3-251.5,383.4z M-252.4,383.2C-252.3,383.2-252.4,383.3-252.4,383.2
			C-252.4,383.3-252.4,383.3-252.4,383.2C-252.4,383.3-252.4,383.3-252.4,383.2z M-252,383.3C-252.1,383.2-252,383.2-252,383.3
			C-252,383.2-252,383.2-252,383.3z M-251.6,382.9C-251.7,382.9-251.6,382.9-251.6,382.9C-251.7,382.9-251.7,382.9-251.6,382.9z
			 M-253.5,381.6c0,0.1,0.1,0.1,0.1,0.2c0,0.4,0,0.5,0.1,0.9c0.1,0,0.2,0.2,0.3,0.1c-0.1-0.1-0.2-0.2-0.1-0.3
			c-0.1-0.1-0.1-0.4-0.2-0.6c0.1,0,0.1,0.1,0.1,0.1c0-0.2,0-0.3,0-0.5c-0.1,0-0.2-0.1-0.2-0.1s0.1,0,0.1-0.1
			c-0.3-0.6-0.1-1.2-0.3-1.8c0,0.3-0.1,0.6,0,1C-253.7,380.9-253.4,381.2-253.5,381.6z M-253.3,381.6c0.1,0,0,0.1,0,0.1h-0.1
			C-253.3,381.6-253.3,381.6-253.3,381.6z M-251.6,380.9C-251.5,380.9-251.5,380.9-251.6,380.9
			C-251.6,380.8-251.6,380.9-251.6,380.9z M-252.2,380.4C-252.1,380.5-252.1,380.3-252.2,380.4
			C-252.2,380.3-252.2,380.4-252.2,380.4z M-254,379.9C-254,379.9-254.1,380-254,379.9L-254,379.9z M-253.5,379.5
			C-253.5,379.4-253.5,379.4-253.5,379.5C-253.6,379.4-253.6,379.4-253.5,379.5c-0.1-0.1-0.1-0.1-0.1-0.1S-253.6,379.4-253.5,379.5
			C-253.6,379.4-253.6,379.4-253.5,379.5C-253.6,379.4-253.6,379.5-253.5,379.5z M-253.7,379.3h0.1c0-0.1-0.1-0.1,0-0.1
			c-0.1-0.1-0.1-0.2-0.2-0.2c-0.1,0.1,0.1,0.1,0.1,0.1S-253.7,379.2-253.7,379.3z M-253.8,378.4c0,0.1,0.1,0.2,0,0.3
			c0,0.1,0.1,0.1,0.2,0.1c0,0,0-0.1,0.1-0.1c0-0.1-0.1-0.1-0.1-0.1c0.1-0.1,0-0.2,0.1-0.2c-0.1-0.3-0.1-0.6-0.2-0.8
			C-253.8,377.9-253.8,378.2-253.8,378.4C-253.7,378.4-253.8,378.4-253.8,378.4z M-253.2,378.7c-0.1,0.1-0.1,0-0.1-0.1
			C-253.2,378.6-253.2,378.7-253.2,378.7z M-253.2,378.5c-0.1,0-0.1-0.1-0.1-0.1C-253.2,378.3-253.2,378.4-253.2,378.5z M-254.2,378
			c-0.1,0,0-0.1,0-0.2C-254.1,377.8-254.2,378-254.2,378z M-254.2,377.7c-0.1-0.1-0.1-0.3,0-0.4
			C-254.2,377.5-254.1,377.6-254.2,377.7z M-253.8,377.5c0,0.1,0,0.1,0,0.1s0,0,0.1,0C-253.7,377.6-253.7,377.5-253.8,377.5z
			 M-253.8,377.1c0,0.1,0,0.1,0.1,0.1C-253.8,377.2-253.8,377.1-253.8,377.1z M-253.4,377.2c0.1,0,0.1,0,0.1-0.1
			C-253.4,377.1-253.4,377.1-253.4,377.2z M-253.4,376.7c-0.1,0-0.1,0.2,0.1,0.2C-253.4,376.7-253.4,376.7-253.4,376.7z
			 M-252.5,376.3c-0.1,0.1-0.1,0.2,0,0.3C-252.4,376.5-252.4,376.4-252.5,376.3z M-253.4,376.5L-253.4,376.5L-253.4,376.5z
			 M-250.5,376.4C-250.5,376.3-250.5,376.3-250.5,376.4C-250.6,376.3-250.6,376.4-250.5,376.4z M-252.8,376.2
			c-0.1,0-0.1,0.1-0.1,0.2C-252.8,376.3-252.8,376.2-252.8,376.2z M-253.4,376c-0.2,0,0,0.1-0.1,0.3
			C-253.3,376.3-253.4,376.1-253.4,376z M-252.6,376c0,0.1,0,0.2,0.1,0.2C-252.4,376.2-252.5,376-252.6,376z M-252.8,376
			C-252.8,376-252.9,376-252.8,376C-252.9,376-252.9,376.1-252.8,376C-252.8,376.1-252.8,376.1-252.8,376L-252.8,376z M-253.8,375.5
			C-253.8,375.6-253.8,375.6-253.8,375.5C-253.8,375.6-253.8,375.5-253.8,375.5z M-253.4,375.5
			C-253.4,375.5-253.5,375.5-253.4,375.5C-253.5,375.6-253.5,375.6-253.4,375.5C-253.5,375.6-253.4,375.6-253.4,375.5
			C-253.4,375.6-253.4,375.6-253.4,375.5z M-252.6,375.3c0,0.1-0.1,0.1,0,0.1C-252.5,375.5-252.5,375.4-252.6,375.3z M-253.6,375.2
			c-0.1,0-0.1-0.1-0.2-0.2c0.1,0.1,0,0.3,0.1,0.4C-253.8,375.3-253.7,375.3-253.6,375.2z M-253.2,374.6c0.1,0,0.1,0,0.1,0
			c-0.1-0.2-0.1-0.5-0.2-0.7c0,0.3-0.1,0.8,0,1.2c-0.1-0.1-0.1,0-0.1,0c0-0.2,0.1-0.4-0.1-0.4c0,0.1,0,0.3,0,0.5
			c0.1,0,0.2,0,0.3,0.1C-253.2,375-253.1,374.8-253.2,374.6z M-254.1,375.2L-254.1,375.2L-254.1,375.2z M-254.3,375.1
			c-0.1,0-0.1-0.1,0-0.2C-254.3,374.9-254.3,375-254.3,375.1z M-253.9,374.6c0,0.1,0,0.1,0,0.2
			C-253.7,374.8-253.8,374.6-253.9,374.6z M-254.3,374.7c-0.1,0-0.1-0.1-0.1-0.1C-254.3,374.6-254.3,374.7-254.3,374.7z
			 M-254.1,374.4C-254.1,374.4-254.1,374.5-254.1,374.4C-254.1,374.5-254.1,374.5-254.1,374.4z M-253.3,373.9c0-0.1,0-0.2-0.1-0.2
			C-253.5,373.8-253.4,373.8-253.3,373.9c-0.3,0-0.2,0.3-0.2,0.4C-253.3,374.3-253.6,373.9-253.3,373.9z M-254.3,373.8L-254.3,373.8
			L-254.3,373.8L-254.3,373.8L-254.3,373.8z M-253.2,373.3c0,0.1,0,0.2,0.1,0.3C-253.1,373.4-253.1,373.3-253.2,373.3z
			 M-253.2,373.1C-253.3,373.1-253.2,373-253.2,373.1C-253.3,373-253.3,373.1-253.2,373.1z M-254.3,372.6c0.1,0.1,0.1,0.2,0.1,0.3
			C-254.3,372.8-254.3,372.7-254.3,372.6L-254.3,372.6z M-253.8,372.5c0.1-0.1,0.2-0.2,0.2-0.3
			C-253.8,372.1-253.8,372.3-253.8,372.5z M-254.2,372.4c-0.1-0.1-0.1-0.1-0.1-0.2C-254.2,372.2-254.2,372.3-254.2,372.4z
			 M-254.2,372c-0.1,0-0.1-0.1-0.1-0.1C-254.1,371.8-254.2,371.9-254.2,372z M-254.1,371.7L-254.1,371.7
			C-254.2,371.8-254.2,371.8-254.1,371.7C-254.2,371.7-254.2,371.7-254.1,371.7z M-254.1,370.8c0,0.1-0.1-0.1-0.1-0.1
			S-254.2,370.8-254.1,370.8z M-252.9,370.3c0.1,0,0.1,0,0.1-0.1C-252.9,370.2-252.9,370.2-252.9,370.3z M-253.3,370.3
			C-253.3,370.3-253.3,370.2-253.3,370.3L-253.3,370.3z"/>
	</g>
</g>
</svg>
