<?xml version="1.0" encoding="utf-8"?>
<!-- Generator: Adobe Illustrator 19.0.0, SVG Export Plug-In . SVG Version: 6.00 Build 0)  -->
<svg version="1.1" id="Layer_1" xmlns="http://www.w3.org/2000/svg" xmlns:xlink="http://www.w3.org/1999/xlink" x="0px" y="0px"
	 viewBox="-260.3 374.6 19 19" style="enable-background:new -260.3 374.6 19 19;" xml:space="preserve">
<style type="text/css">
	.st0{display:none;}
	.st1{display:inline;fill:#212C61;}
	.st2{fill:#1F1E21;}
</style>
<g id="Layer_2" class="st0">
	<rect x="-290.7" y="344.5" class="st1" width="152.3" height="109.7"/>
</g>
<g id="Layer_1_1_">
	<g>
		<path class="st2" d="M-253.7,386.9c-0.1,0.1,0,0.1,0.1,0.2c-0.4,0.2-0.6,0.8-1,0.9c-0.1,0.1,0.1,0.1,0,0.2c-0.3-0.1-0.3,0-0.5,0.1
			c0-0.1-0.1,0-0.1-0.1c-0.1,0.1-0.3,0.3-0.4,0.5c0.4-0.1,0.6-0.3,0.8-0.5h0.1c0,0,0,0,0,0.1h0.1c0.1,0,0.3,0,0.5-0.1
			c0.8-0.1,1.5-0.6,2.4-0.6c0.2-0.1,0.5-0.1,0.8-0.3c1.3-0.2,2.1-0.5,3.4-0.7c0.5-0.2,1.3-0.2,1.7-0.4c0.1,0,0.1,0,0.2,0
			c0.2-0.1,0.5-0.2,0.8-0.1c0.3-0.1,0.8-0.1,1-0.1c-0.3,0.4-1.2,0.4-1.6,0.7c-0.1,0.1-0.2,0.3-0.3,0.1c-0.2,0.1-0.4,0.3-0.8,0.4
			c-0.1,0-0.1,0.1-0.1,0.1c-0.1-0.1-0.1,0-0.3,0c0,0.1,0.2,0,0.2,0.1c-0.3,0.2-0.6,0.3-1,0.4c-0.1,0.1-0.2,0.1-0.3,0.2l-0.1,0.1
			c0,0,0-0.1-0.1-0.1c0,0,0,0.1-0.1,0.1s-0.2,0-0.3,0c-0.5,0.1-0.8,0.1-1.1,0.2c-0.2,0.1-0.4,0.2-0.7,0.2c0,0.1,0.2,0,0.2,0.1
			c0.2-0.2,0.5-0.1,0.7-0.2c-0.2,0.1-0.4,0.3-0.6,0.4h-0.1c0,0.1,0.1,0.1,0.1,0c0.1,0,0.1,0,0.2,0c-0.5,0.1-1,0.4-1.4,0.3
			c-0.1,0,0,0.1,0.1,0.1c-0.3,0.2-0.7,0.2-1,0.4c-0.1,0-0.2-0.1-0.3,0.1c-0.1,0-0.1-0.1,0-0.1c-0.1,0-0.1,0.1-0.1,0.1
			c-0.2-0.1-0.4,0.2-0.6,0.3c-0.2,0.1-0.3,0.1-0.5,0.2c-0.1,0-0.1,0.1-0.2,0c-0.2,0.1-0.4,0.3-0.7,0.3c-0.5,0.3-1,0.5-1.4,0.8
			c-0.8,0.3-1.3,0.8-2.1,1.1c-0.1,0-0.2,0-0.3,0c-0.6-0.2-1.2-1.1-1.5-1.6c-0.1-0.4,0.3-0.4,0.4-0.6c0.1-0.1,0.1-0.2,0.1-0.3
			c0.1,0,0.1,0,0.1,0c0.1-0.2,0.3-0.3,0.4-0.6c0.3-0.1,0.4-0.6,0.7-0.7c0.1-0.2,0.3-0.3,0.3-0.6c0.7-0.6,1.2-1.4,1.8-1.9
			c0-0.1,0.1-0.1,0.1-0.2c0.3,0.1,0.3,0,0.3-0.1c0.1,0,0.1,0,0.2-0.1c0.4-0.2,0.5-0.5,0.8-0.8c1-0.5,1.6-1.6,2.5-2.3
			c0.5-0.6,1.1-1,1.7-1.5c0-0.1,0-0.1,0-0.1c1.1-0.9,2.2-1.8,3.4-2.6c-1.1,0-2.4,0.3-3.3,0.4c-0.1,0-0.1,0.1-0.1,0.1
			c-0.1-0.1-0.5-0.1-0.6,0c-0.4,0-1,0-1.7,0c-0.1-0.1-0.3-0.3-0.4-0.3c0-0.2-0.2-0.3-0.3-0.4c0-0.3-0.2-0.6-0.3-1
			c-0.1,0-0.1,0.1-0.2,0c0-0.2,0-0.5-0.1-0.6c0.2-0.2,0.1-0.5,0.3-0.7c0.2,0,0.3,0.1,0.5,0.1c0.3,0.7,1.5,0.4,2.2,0.3
			c0.7,0,1.3-0.1,1.8-0.2c0.1-0.1-0.1-0.1,0.1-0.2c0.1,0,0,0.1,0.1,0.1s0.2,0,0.3-0.1c0.1,0,0.1,0.1,0.1,0.1
			c1.3-0.2,2.8-0.2,4.2-0.2c0.9,0,2.2,0,2.5,0.4c-0.2,0.9-0.5,1.8-1.1,2.3c-0.1,0.2-0.1,0.4-0.3,0.6c-0.2,0.1-0.5,0.1-0.6,0.3h-0.1
			c-1.2,0.7-2.4,1.3-3.4,2.2c-0.2,0.1-0.3,0.2-0.5,0.3c-0.1,0-0.1,0.1-0.1,0.2c-0.2,0.1-0.4,0.2-0.5,0.4c-0.2,0.1-0.4,0.2-0.5,0.4
			c-0.3,0.1-0.5,0.5-0.9,0.6c0,0.1,0.1,0,0.1,0c-0.3,0.2-0.6,0.5-0.9,0.7c0,0.1,0.1,0.1,0,0.1c-0.1,0-0.2,0.2-0.4,0.1
			c-0.3,0.3-0.4,0.5-0.8,0.7c0,0.1-0.1,0.1,0,0.1C-252.6,385.9-253,386.7-253.7,386.9z M-256.5,387.1c-0.1,0-0.2,0.1-0.3,0.2
			C-256.6,387.3-256.5,387.2-256.5,387.1z M-256.2,386.9L-256.2,386.9C-256.2,386.8-256.3,386.8-256.2,386.9
			C-256.3,386.9-256.3,386.9-256.2,386.9C-256.3,386.9-256.2,386.9-256.2,386.9z M-256.1,386.6C-256,386.6-256,386.6-256.1,386.6
			C-256,386.6-256.1,386.6-256.1,386.6z M-255.6,386.1L-255.6,386.1C-255.7,386.2-255.6,386.2-255.6,386.1z M-255.1,385.5
			c-0.1,0.1-0.2,0.2-0.2,0.3C-255.2,385.8-255,385.6-255.1,385.5z M-254.6,387.5c-0.2,0-0.2,0.1-0.3,0.2c0.1,0,0.1,0,0.1,0.1
			c-0.3-0.1-0.3,0.3-0.5,0.3c0.2-0.1,0.3-0.3,0.6-0.3c0-0.1,0-0.1,0-0.1c0.3-0.1,0.4-0.5,0.8-0.6c0,0-0.1,0-0.1-0.1
			c0.1,0,0.2-0.1,0.3-0.2c-0.1-0.1-0.2,0.1-0.2,0c0.1-0.2,0.4-0.3,0.4-0.4c0.1,0.1,0.1,0,0.2,0c0.1-0.1-0.1,0-0.1-0.1
			c0.1,0,0.1,0,0.2,0c-0.1-0.1,0.1-0.1,0.1-0.2C-253.8,386.5-254.1,387.1-254.6,387.5C-254.6,387.4-254.5,387.5-254.6,387.5z
			 M-254.8,388.2C-254.8,388.2-254.9,388.2-254.8,388.2L-254.8,388.2z M-253.2,386.2c0.2-0.1,0.5-0.3,0.6-0.5
			c0.3-0.1,0.5-0.4,0.7-0.5c0-0.2,0.2-0.2,0.3-0.4c0.1,0,0.1-0.1,0.2-0.1c0.2,0,0.3-0.1,0.4-0.2c-0.5-0.1-0.7,0.6-1.2,0.7
			C-252.5,385.5-252.9,385.8-253.2,386.2z M-252.2,389.5C-252.2,389.5-252.3,389.5-252.2,389.5L-252.2,389.5z M-252,383.9
			C-252,383.9-252.1,383.9-252,383.9L-252,383.9z M-251.2,388.8L-251.2,388.8C-251.2,388.9-251.3,388.9-251.2,388.8
			C-251.2,388.9-251.1,388.9-251.2,388.8z M-251,387.4c-0.1,0-0.1,0-0.2,0C-251.2,387.6-250.9,387.5-251,387.4z M-250.5,388.7
			c-0.2,0-0.5,0.1-0.6,0.2C-251,388.9-250.6,388.8-250.5,388.7z M-250.9,388.2L-250.9,388.2C-250.9,388.1-250.9,388.1-250.9,388.2
			C-251,388.1-251,388.2-250.9,388.2L-250.9,388.2z M-250.7,387.5C-250.7,387.4-250.7,387.4-250.7,387.5c-0.1,0-0.2-0.1-0.2,0
			C-250.8,387.5-250.8,387.4-250.7,387.5z M-250.5,389C-250.5,388.9-250.5,388.9-250.5,389c-0.1-0.1-0.2,0-0.1,0
			C-250.6,388.9-250.5,389-250.5,389z M-250.4,387.3L-250.4,387.3C-250.4,387.3-250.5,387.3-250.4,387.3
			C-250.5,387.3-250.4,387.3-250.4,387.3L-250.4,387.3z M-250.4,388L-250.4,388C-250.4,388-250.5,388-250.4,388
			C-250.5,388-250.5,388-250.4,388C-250.5,388-250.4,388-250.4,388z M-250.2,388.8c-0.1,0-0.2,0-0.2,0.1
			C-250.3,388.9-250.2,388.9-250.2,388.8z M-250,387.2c-0.1,0-0.1,0-0.2,0C-250.1,387.3-250,387.2-250,387.2z M-249.8,387.1
			c0.1-0.1,0.3,0,0.3-0.1C-249.7,387.1-249.8,387.1-249.8,387.1C-249.9,387.2-249.8,387.2-249.8,387.1z M-249.7,388.6
			C-249.7,388.7-249.7,388.7-249.7,388.6C-249.8,388.6-249.7,388.6-249.7,388.6z M-249.8,388.8c0-0.1,0.1-0.1,0.2-0.1
			C-249.5,388.8-249.7,388.7-249.8,388.8z M-249.5,388.6c0,0.1-0.1,0-0.1,0S-249.5,388.6-249.5,388.6L-249.5,388.6z M-249.2,388.5
			c0.1-0.1,0.3-0.2,0.5-0.1c0,0.1-0.2,0.1-0.3,0.2c-0.1-0.1-0.2,0.2-0.4,0.1C-249.2,388.6-249.3,388.5-249.2,388.5
			c-0.1,0-0.1,0-0.2,0c0,0,0,0,0,0.1c-0.1,0-0.1,0-0.1,0C-249.5,388.4-249.3,388.4-249.2,388.5z M-248.9,388.4L-248.9,388.4
			L-248.9,388.4z M-248.8,388.5L-248.8,388.5L-248.8,388.5z M-248.6,388.5c0-0.1,0.1-0.1,0.1-0.1S-248.6,388.5-248.6,388.5z
			 M-248.4,387.7C-248.4,387.6-248.4,387.6-248.4,387.7C-248.4,387.6-248.4,387.6-248.4,387.7C-248.5,387.6-248.5,387.6-248.4,387.7
			L-248.4,387.7z M-248.1,387.6c0-0.2-0.3,0-0.2,0.1C-248.2,387.6-248.2,387.6-248.1,387.6z M-247.6,387.4c-0.1,0-0.1,0-0.2,0
			C-247.8,387.5-247.6,387.5-247.6,387.4z M-247.3,387.5C-247.3,387.5-247.3,387.4-247.3,387.5c-0.1-0.1-0.2-0.1-0.2,0
			C-247.4,387.4-247.4,387.6-247.3,387.5z"/>
		<path class="st2" d="M-241,389.2L-241,389.2C-241,389.1-241,389.1-241,389.2C-241.1,389.2-241.1,389.2-241,389.2L-241,389.2z"/>
	</g>
</g>
</svg>
