<?xml version="1.0" encoding="utf-8"?>
<!-- Generator: Adobe Illustrator 19.0.0, SVG Export Plug-In . SVG Version: 6.00 Build 0)  -->
<svg version="1.1" xmlns="http://www.w3.org/2000/svg" xmlns:xlink="http://www.w3.org/1999/xlink" x="0px" y="0px"
	 viewBox="-264 364.2 39.8 65.8" style="enable-background:new -264 364.2 39.8 65.8;" xml:space="preserve">
<style type="text/css">
	.st0{display:none;}
	.st1{display:inline;fill:#1F1E21;stroke:#000000;stroke-miterlimit:10;}
	.st2{display:inline;fill:#212C61;}
	.st3{fill:#FFFFFF;}
</style>
<g id="Layer_2_1_" class="st0">
	<rect x="-277.4" y="351.6" class="st1" width="118" height="92.5"/>
</g>
<g id="Layer_1">
	<g id="Layer_2" class="st0">
		<rect x="-290.7" y="344.5" class="st2" width="152.3" height="109.7"/>
	</g>
	<g id="Layer_1_1_">
		<g>
			<path class="st3" d="M-244.8,423.5c0.1,0.1,0.1,0,0.2-0.1c0.2,0.4,0.8,0.6,0.9,1c0.1,0.1,0.1-0.1,0.2,0c-0.1,0.3,0,0.3,0.1,0.5
				c-0.1,0,0,0.1-0.1,0.1c0.1,0.1,0.3,0.3,0.5,0.4c-0.1-0.4-0.3-0.6-0.5-0.8v-0.1c0,0,0,0,0.1,0v-0.1c0-0.1,0-0.3-0.1-0.5
				c-0.1-0.8-0.6-1.5-0.6-2.4c-0.1-0.2-0.1-0.5-0.3-0.8c-0.2-1.3-0.5-2.1-0.7-3.4c-0.2-0.5-0.2-1.3-0.4-1.7c0-0.1,0-0.1,0-0.2
				c-0.1-0.2-0.2-0.5-0.1-0.8c-0.1-0.3-0.1-0.8-0.1-1c0.4,0.3,0.4,1.2,0.7,1.6c0.1,0.1,0.3,0.2,0.1,0.3c0.1,0.2,0.3,0.4,0.4,0.8
				c0,0.1,0.1,0.1,0.1,0.1c-0.1,0.1,0,0.1,0,0.3c0.1,0,0-0.2,0.1-0.2c0.2,0.3,0.3,0.6,0.4,1c0.1,0.1,0.1,0.2,0.2,0.3l0.1,0.1
				c0,0-0.1,0-0.1,0.1c0,0,0.1,0,0.1,0.1s0,0.2,0,0.3c0.1,0.5,0.1,0.8,0.2,1.1c0.1,0.2,0.2,0.4,0.2,0.7c0.1,0,0-0.2,0.1-0.2
				c-0.2-0.2-0.1-0.5-0.2-0.7c0.1,0.2,0.3,0.4,0.4,0.6v0.1c0.1,0,0.1-0.1,0-0.1c0-0.1,0-0.1,0-0.2c0.1,0.5,0.4,1,0.3,1.4
				c0,0.1,0.1,0,0.1-0.1c0.2,0.3,0.2,0.7,0.4,1c0,0.1-0.1,0.2,0.1,0.3c0,0.1-0.1,0.1-0.1,0c0,0.1,0.1,0.1,0.1,0.1
				c-0.1,0.2,0.2,0.4,0.3,0.6c0.1,0.2,0.1,0.3,0.2,0.5c0,0.1,0.1,0.1,0,0.2c0.1,0.2,0.3,0.4,0.3,0.7c0.3,0.5,0.5,1,0.8,1.4
				c0.3,0.8,0.8,1.3,1.1,2.1c0,0.1,0,0.2,0,0.3c-0.2,0.6-1.1,1.2-1.6,1.5c-0.4,0.1-0.4-0.3-0.6-0.4c-0.1-0.1-0.2-0.1-0.3-0.1
				c0-0.1,0-0.1,0-0.1c-0.2-0.1-0.3-0.3-0.6-0.4c-0.1-0.3-0.6-0.4-0.7-0.7c-0.2-0.1-0.3-0.3-0.6-0.3c-0.6-0.7-1.4-1.2-1.9-1.8
				c-0.1,0-0.1-0.1-0.2-0.1c0.1-0.3,0-0.3-0.1-0.3c0-0.1,0-0.1-0.1-0.2c-0.2-0.4-0.5-0.5-0.8-0.8c-0.5-1-1.6-1.6-2.3-2.5
				c-0.6-0.5-1-1.1-1.5-1.7c-0.1,0-0.1,0-0.1,0c-0.9-1.1-1.8-2.2-2.6-3.4c0,1.1,0.3,2.4,0.4,3.3c0,0.1,0.1,0.1,0.1,0.1
				c-0.1,0.1-0.1,0.5,0,0.6c0,0.4,0,1,0,1.7c-0.1,0.1-0.3,0.3-0.3,0.4c-0.2,0-0.3,0.2-0.4,0.3c-0.3,0-0.6,0.2-1,0.3
				c0,0.1,0.1,0.1,0,0.2c-0.2,0-0.5,0-0.6,0.1c-0.2-0.2-0.5-0.1-0.7-0.3c0-0.2,0.1-0.3,0.1-0.5c0.7-0.3,0.4-1.5,0.3-2.2
				c0-0.7-0.1-1.3-0.2-1.8c-0.1-0.1-0.1,0.1-0.2-0.1c0-0.1,0.1,0,0.1-0.1c0-0.1,0-0.2-0.1-0.3c0-0.1,0.1-0.1,0.1-0.1
				c-0.2-1.3-0.2-2.8-0.2-4.2c0-0.9,0-2.2,0.4-2.5c0.9,0.2,1.8,0.5,2.3,1.1c0.2,0.1,0.4,0.1,0.6,0.3c0.1,0.2,0.1,0.5,0.3,0.6v0.1
				c0.7,1.2,1.3,2.4,2.2,3.4c0.1,0.2,0.2,0.3,0.3,0.5c0,0.1,0.1,0.1,0.2,0.1c0.1,0.2,0.2,0.4,0.4,0.5c0.1,0.2,0.2,0.4,0.4,0.5
				c0.1,0.3,0.5,0.5,0.6,0.9c0.1,0,0-0.1,0-0.1c0.2,0.3,0.5,0.6,0.7,0.9c0.1,0,0.1-0.1,0.1,0s0.2,0.2,0.1,0.4
				c0.3,0.3,0.5,0.4,0.7,0.8c0.1,0,0.1,0.1,0.1,0C-245.8,422.4-245,422.8-244.8,423.5z M-244.6,426.3c0,0.1,0.1,0.2,0.2,0.3
				C-244.4,426.4-244.5,426.3-244.6,426.3z M-244.8,426L-244.8,426C-244.9,426-244.9,426.1-244.8,426
				C-244.8,426.1-244.8,426.1-244.8,426C-244.8,426.1-244.8,426-244.8,426z M-245.1,425.9C-245.1,425.8-245.1,425.8-245.1,425.9
				C-245.1,425.8-245.1,425.9-245.1,425.9z M-245.6,425.4L-245.6,425.4C-245.5,425.5-245.5,425.4-245.6,425.4z M-246.2,424.9
				c0.1,0.1,0.2,0.2,0.3,0.2C-245.9,425-246.1,424.8-246.2,424.9z M-244.2,424.4c0,0.2,0.1,0.2,0.2,0.3c0-0.1,0-0.1,0.1-0.1
				c-0.1,0.3,0.3,0.3,0.3,0.5c-0.1-0.2-0.3-0.3-0.3-0.6c-0.1,0-0.1,0-0.1,0c-0.1-0.3-0.5-0.4-0.6-0.8c0,0,0,0.1-0.1,0.1
				c0-0.1-0.1-0.2-0.2-0.3c-0.1,0.1,0.1,0.2,0,0.2c-0.2-0.1-0.3-0.4-0.4-0.4c0.1-0.1,0-0.1,0-0.2c-0.1-0.1,0,0.1-0.1,0.1
				c0-0.1,0-0.1,0-0.2c-0.1,0.1-0.1-0.1-0.2-0.1C-245.2,423.6-244.6,423.9-244.2,424.4C-244.3,424.4-244.2,424.3-244.2,424.4z
				 M-243.5,424.6C-243.5,424.6-243.5,424.7-243.5,424.6L-243.5,424.6z M-245.5,423c-0.1-0.2-0.3-0.5-0.5-0.6
				c-0.1-0.3-0.4-0.5-0.5-0.7c-0.2,0-0.2-0.2-0.4-0.3c0-0.1-0.1-0.1-0.1-0.2c0-0.2-0.1-0.3-0.2-0.4c-0.1,0.5,0.6,0.7,0.7,1.2
				C-246.2,422.3-245.9,422.7-245.5,423z M-242.2,422C-242.2,422-242.2,422.1-242.2,422L-242.2,422z M-247.8,421.8
				C-247.8,421.8-247.8,421.9-247.8,421.8L-247.8,421.8z M-242.9,421L-242.9,421C-242.8,421-242.8,421.1-242.9,421
				C-242.8,421-242.8,420.9-242.9,421z M-244.3,420.8c0,0.1,0,0.1,0,0.2C-244.1,421-244.2,420.7-244.3,420.8z M-243,420.3
				c0,0.2,0.1,0.5,0.2,0.6C-242.8,420.8-242.9,420.4-243,420.3z M-243.5,420.7L-243.5,420.7C-243.6,420.7-243.6,420.7-243.5,420.7
				C-243.6,420.8-243.5,420.8-243.5,420.7L-243.5,420.7z M-244.2,420.5C-244.3,420.5-244.3,420.5-244.2,420.5c0,0.1-0.1,0.2,0,0.2
				C-244.2,420.6-244.3,420.6-244.2,420.5z M-242.7,420.3C-242.8,420.3-242.8,420.3-242.7,420.3c-0.1,0.1,0,0.2,0,0.1
				C-242.8,420.4-242.7,420.3-242.7,420.3z M-244.4,420.2L-244.4,420.2C-244.4,420.2-244.4,420.3-244.4,420.2
				C-244.4,420.3-244.4,420.2-244.4,420.2L-244.4,420.2z M-243.7,420.2L-243.7,420.2C-243.7,420.2-243.7,420.3-243.7,420.2
				C-243.7,420.3-243.7,420.3-243.7,420.2C-243.7,420.3-243.7,420.2-243.7,420.2z M-242.9,420c0,0.1,0,0.2,0.1,0.2
				C-242.8,420.1-242.8,420-242.9,420z M-244.5,419.8c0,0.1,0,0.1,0,0.2C-244.4,419.9-244.5,419.8-244.5,419.8z M-244.6,419.6
				c-0.1-0.1,0-0.3-0.1-0.3C-244.6,419.5-244.6,419.6-244.6,419.6C-244.5,419.7-244.5,419.6-244.6,419.6z M-243.1,419.5
				C-243,419.5-243,419.5-243.1,419.5C-243.1,419.6-243.1,419.5-243.1,419.5z M-242.9,419.6c-0.1,0-0.1-0.1-0.1-0.2
				C-242.9,419.3-243,419.5-242.9,419.6z M-243.1,419.3c0.1,0,0,0.1,0,0.1S-243.1,419.3-243.1,419.3L-243.1,419.3z M-243.2,419
				c-0.1-0.1-0.2-0.3-0.1-0.5c0.1,0,0.1,0.2,0.2,0.3c-0.1,0.1,0.2,0.2,0.1,0.4C-243.1,419-243.2,419.1-243.2,419c0,0.1,0,0.1,0,0.2
				c0,0,0,0,0.1,0c0,0.1,0,0.1,0,0.1C-243.3,419.3-243.3,419.1-243.2,419z M-243.3,418.7L-243.3,418.7L-243.3,418.7z M-243.2,418.6
				L-243.2,418.6L-243.2,418.6z M-243.2,418.4c-0.1,0-0.1-0.1-0.1-0.1C-243.3,418.3-243.2,418.4-243.2,418.4z M-244,418.2
				C-244.1,418.2-244.1,418.2-244,418.2C-244.1,418.2-244.1,418.2-244,418.2C-244.1,418.3-244.1,418.3-244,418.2L-244,418.2z
				 M-244.1,417.9c-0.2,0,0,0.3,0.1,0.2C-244.1,418-244.1,418-244.1,417.9z M-244.3,417.4c0,0.1,0,0.1,0,0.2
				C-244.2,417.6-244.2,417.4-244.3,417.4z M-244.2,417.1C-244.2,417.1-244.3,417.1-244.2,417.1c-0.1,0.1-0.1,0.2,0,0.2
				C-244.3,417.2-244.1,417.2-244.2,417.1z"/>
			<path class="st3" d="M-244.2,403.7c0.1,0-0.1-0.1,0-0.2c0.9,0.1,1.3,0.5,1.9,0.6c0-0.1,0-0.1-0.1-0.1c0.2-0.1,0.2,0.1,0.3,0.1
				c0.1-0.1-0.1-0.1,0-0.1c0.1,0.1,0.5,0.1,0.6,0.3c0.6,0.1,1.2,0.4,1.8,0.5c0.1,0,0,0.1,0,0.1c0.1,0.1,0.1-0.1,0.2,0
				c0,0.1-0.1,0-0.1,0.1c0.1,0.1,0.1-0.1,0.2,0c0-0.2-0.3-0.1-0.4-0.2c0.2-0.1,0.5,0,0.5,0.2c0.5,0,1,0.4,1.3,0.2
				c-0.1-0.1-0.4,0.1-0.4-0.1c0.2,0,0.4,0,0.6,0.1c0.6,0.5,1.7,0.3,2.3,0.7c0.3,0,0.3,0,0.5,0.1c0.2,0,0.4,0,0.5,0.1
				c0.1,0,0.4-0.1,0.4,0c-0.1,0-0.1,0-0.1,0.1c0.1,0,0.1,0,0.1-0.1c0.8,0.1,1.9,0.1,2.7,0.4c0.2-0.1,0.5,0.1,0.8,0.1
				c-0.3,0.1-0.6-0.1-0.9,0c-0.1,0-0.2-0.1-0.3-0.1c-0.1,0-0.1,0-0.1,0.1c-0.1-0.1-0.1-0.1-0.3,0c0.1,0,0.2,0.1,0.3,0.1
				c0.1,0.1,0.1,0.1,0.1,0.2c0.8-0.1,1.4,0.2,2.1,0.2c0,0.1,0.1,0.1,0.2,0.1c0,0.1-0.1,0-0.1,0.1c0.1,0.1,0.2,0.2,0.3,0.3
				c0.1,0.3,0.3,0.3,0.2,0.6c0.1,0,0.1,0.1,0.2,0.1c0,0,0,0.1,0,0.2c0.2,0.1,0.3,0.3,0.2,0.6c-0.1,0-0.2,0-0.4,0.1
				c0-0.1,0.1-0.1,0-0.1c-0.4-0.1-0.6,0.3-0.9,0.1c0.1,0,0.2,0,0.2-0.1c-0.1,0-0.4-0.1-0.5,0.1c-0.4-0.1-0.8-0.1-1.2-0.1
				c0-0.1-0.2-0.1-0.3-0.3c-0.3,0.1-0.6,0-0.7-0.2c0.4,0.1,0.7,0,1,0.1c0-0.2-0.3,0-0.3-0.2c0.3,0.1,0.6,0.1,0.9,0.1
				c-0.1-0.2-0.4-0.1-0.6-0.1c0-0.1-0.3-0.2-0.3-0.1c-0.1-0.1-0.2-0.1-0.3,0c-0.3-0.2-1-0.1-1.2-0.3c-0.1,0,0,0.1,0,0.1
				c-0.1,0-0.1-0.1-0.1-0.1c0,0.1,0.2,0,0.2,0.2c-0.3-0.3-1-0.3-1.4-0.5c0.5,0.1,1.2,0.1,1.7,0.1v0.1c0.1,0,0.1-0.1,0.2-0.1
				c0.1,0.1,0.4,0.1,0.5,0c-0.5-0.1-1.3-0.1-1.6-0.4c-0.1,0.1-0.1-0.1-0.2,0.1c-0.1,0,0-0.1-0.1-0.1c-0.4,0-0.7-0.1-1.1-0.1
				c-0.2-0.2-0.8-0.5-1.2-0.3c0.2,0.1,0.5,0.1,0.7,0.2c0,0.1-0.2,0-0.4,0.1c0,0,0,0,0-0.1c-0.4,0-0.7-0.1-1.1-0.2
				c-0.1-0.2-0.5-0.4-0.8-0.4c0.1,0.1,0.4,0.1,0.5,0.2c-0.3,0-0.6-0.2-1-0.2c-0.1-0.1-0.3-0.1-0.6-0.2c-0.1,0-0.1-0.2-0.3-0.1
				c0,0,0-0.1-0.1-0.1c-0.4,0.1-0.8-0.3-1.1-0.3c-0.1,0,0-0.1-0.1-0.1c-0.3-0.1-0.6,0.1-0.8-0.1c0.1,0.3,0.3,0.3,0.6,0.3
				c-0.1,0.1-0.1,0.1,0,0.1c-0.1,0-0.2-0.1-0.3-0.2c-0.1,0.2-0.2-0.1-0.4-0.1c0.1-0.2-0.2-0.3-0.4-0.4c-0.1,0.1,0.1,0,0.1,0.1
				c-0.1,0-0.1,0-0.2,0c0.1,0.1,0.3,0.1,0.3,0.2c-0.1,0.1-0.1-0.2-0.3-0.1c-0.1-0.2-0.3-0.3-0.5-0.4c-0.1,0,0.1-0.2-0.1-0.1
				c0.1,0.1-0.2,0.1-0.3,0.1c0.1,0.3,0.4,0.4,0.6,0.6c-0.1,0.1-0.2-0.1-0.4-0.1c0-0.1,0-0.1-0.1-0.1c-0.1,0.1,0.1,0,0,0.1
				c-0.2,0-0.3-0.1-0.5-0.1c-0.1-0.2-0.3-0.3-0.5-0.3c0,0.1,0.1,0.1,0.1,0.1c-0.1,0.1-0.2-0.1-0.4-0.1c0-0.2-0.3-0.2-0.4-0.3
				c-0.4,0.1-0.8-0.3-1.2-0.4c0.1,0.1,0.1-0.1,0.3,0c0-0.1-0.1-0.1-0.1-0.1c0.2-0.1,0.3,0.2,0.6,0.2c0-0.1,0-0.1-0.1-0.1
				c0-0.1,0.1,0,0.1-0.1c-0.3-0.2-0.7,0-0.9-0.3c-0.2,0.1-0.5-0.2-0.6-0.1c-0.1-0.1-0.1-0.1-0.3-0.2c0,0.1,0.1,0.1,0.1,0.1
				c0,0.1,0,0-0.1,0.1c0.1,0.1,0.3,0.1,0.5,0.1c0.1,0.1,0.2,0.1,0.2,0.2c0.1,0,0.1-0.1,0.1-0.1c0.1,0.1,0.3,0.1,0.3,0.3
				c-0.1,0-0.2-0.2-0.4-0.1c-0.1-0.1-0.1-0.1-0.2-0.2c-0.1,0-0.1,0-0.1,0.1c0.3,0.3,0.8,0.4,1.1,0.6c-0.3-0.1-0.6,0-0.9-0.3
				c-0.1,0.1,0.1,0.2,0.1,0.3c-0.2-0.4-0.8-0.6-1.2-0.5c0,0.1,0.1,0.1,0.1,0.2c-0.1,0,0-0.1-0.1-0.1c-0.1,0.1,0.2,0.3,0.3,0.2
				c0,0.1,0,0.1,0,0.2c0-0.1-0.1,0-0.1-0.1c0,0.1,0,0.1-0.1,0.1c0.1,0.1,0.4,0.1,0.6,0.2c0.1-0.1,0-0.2,0.1-0.2
				c0.1,0.2,0.3,0.2,0.4,0.4c0.2-0.1,0.3,0.1,0.4,0.1s0.2,0.1,0.2,0.1c0.1,0,0-0.1,0-0.1c0.1,0.1,0.1,0.1,0.1,0.2
				c-0.6,0-0.9-0.3-1.5-0.3c0-0.1-0.2-0.2-0.3-0.2c0,0.1,0.1,0.1,0.1,0.2s0.2,0,0.2,0.1c-0.1,0-0.1,0-0.2-0.1c0.1,0.2,0.1,0.4,0,0.6
				c0.1,0.2,0.2,0.4,0.1,0.7c0,0.1,0.1,0.1,0.1,0.1c-0.1,0.5,0.1,1.2,0.1,1.6c0.1,0.1,0.1,0.2,0.1,0.4c0.5,0.3,1.1,0.1,1.4,0.6
				c0.3,0,0.6,0.1,0.7,0.3c0.2-0.1,0.5,0.2,0.6,0.3c0.4,0,0.8,0.3,1.2,0.3c0,0.1,0.1,0.2,0.3,0.2c-0.1,0.1,0.1,0.1,0.1,0.3
				c0.3,0,0.6,0.2,0.8,0.3c0,0.1,0,0.1,0,0.1c0.4,0.3,0.8,0.3,1.1,0.7c-0.8,0.4-1.7-0.1-2.4-0.1c0,0,0-0.1,0.1-0.1
				c-0.6-0.1-1-0.3-1.6-0.3c-0.3-0.2-0.9-0.3-1.2-0.3c-0.2-0.1-0.4-0.2-0.6-0.2c0.1,0.4,0.2,0.7,0.3,1c0,0.3-0.2,0.3-0.4,0.4
				c-0.1,0.1-0.3,0.2-0.5,0.3c-0.3,0.1-0.5,0.1-0.8,0.2c-0.1,0-0.1-0.1-0.1-0.1c-0.1,0.2-0.3,0.2-0.5,0.3c-0.3-0.2-0.7,0-1-0.2
				c0.1-0.3,0.1-0.4,0-0.7c0-0.1,0.1,0,0.1,0c0.1-0.6-0.1-1.1-0.2-1.7c0.2-0.1,0.2-0.5-0.2-0.4c-0.1,0-0.1-0.1-0.1-0.1
				c-0.5,0-0.8-0.3-1.2-0.3c-0.1-0.1-0.3-0.1-0.5-0.1c0-0.1,0-0.1-0.1-0.1c-1.4-0.5-2.9-0.8-4.3-1.4c0,0,0-0.1-0.1-0.1
				c-0.3-0.1-0.7-0.1-1-0.3c0.1-0.7,0.2-1.4,0.6-1.8c0.2,0,0.3-0.1,0.4-0.2c0.9,0,1.5,0.3,2.1,0.6c0.4,0.1,1.2,0.3,1.7,0.6
				c0.4,0,0.6,0.2,0.9,0.3c0,0.1,0,0.1,0,0.1c0.6,0.1,1,0.1,1.4,0.3c0.1,0,0-0.1,0.1-0.1c0-0.2,0-0.4-0.1-0.6c0.2,0.2,0,0.7,0.3,0.8
				c0-0.8-0.2-1.3-0.3-2.2c-0.1,0.1,0,0.3,0,0.4c-0.1-0.3-0.1-0.5-0.1-0.8c0.1,0,0.1,0.1,0.1,0.2c0.1-0.2,0-0.5,0-0.8
				c-0.1,0-0.1,0.1-0.1,0c0.1-0.1,0.2-0.3,0.1-0.4c-0.2,0.1-0.2-0.1-0.3-0.2c-0.1,0-0.2-0.1-0.2,0.1c-0.2-0.1-0.2-0.3-0.5-0.1
				c-0.2-0.1-0.4-0.5-0.6-0.2c-0.2-0.1-0.4,0-0.6-0.1v-0.1c-0.3-0.1-0.6-0.1-0.8-0.2v0.1c-0.1-0.1-0.2-0.2-0.4-0.1
				c-0.2-0.1-0.4-0.2-0.5-0.3c-0.1,0,0,0.1-0.1,0.1c-0.1-0.1-0.2-0.1-0.3-0.2c-0.1,0,0,0.1-0.1,0.1c-0.1-0.3-0.6,0-0.8-0.4
				c-0.1,0-0.1,0-0.1,0.1c-1.1-0.4-1.8-0.7-3-1c-0.1,0-0.1,0-0.2,0c-0.4-0.1-1-0.2-1.4-0.3c0,0.1-0.1,0.1-0.1,0.2
				c-0.1,0-0.3-0.1-0.3-0.2c-0.4,0-0.7-0.3-0.7-0.6c0.1,0,0.1,0,0.1,0c0-0.1-0.1,0-0.1-0.1c0,0,0.1-0.1,0-0.1c0.1-0.1,0.1,0,0.2,0
				c0.1-0.1,0-0.2-0.1-0.2c0.7-0.4,0.8-0.9,1.1-1.2c0-0.1,0-0.2,0-0.3c0.3-0.2,0.3-0.7,0.8-0.7c0.5,0.3,1.2,0.3,1.7,0.5
				c0.3,0.1,0.5,0.2,0.8,0.3c0.2,0.1,0.4,0.2,0.6,0.2c0.3,0.1,0.5,0.2,0.7,0.3c0.4,0.1,0.8,0.2,1.1,0.4c0.1,0,0.1,0.1,0.1,0.1
				c0.4,0.1,0.7,0.2,1.1,0.4c0.1,0,0.2,0.1,0.3,0.2c0.4,0.1,0.6,0.1,0.9,0.3c0.1,0,0.1,0,0.2,0c0.5,0.3,1.2,0.5,1.7,0.7
				c0.1,0,0-0.1,0.1-0.1c0.1,0,0,0.2,0.1,0.2c0-0.5,0.1-1.2-0.1-1.7c-0.1,0.1,0.1,0.4-0.1,0.5c0-0.2-0.1-0.6-0.1-1
				c0.1,0,0.1,0,0.1,0c-0.1-0.2-0.1-0.4-0.3-0.6c0.1-0.1-0.1-0.3,0-0.5c0.1,0.1,0.1,0.3,0.1,0.5c0.2-0.1,0.1-0.6,0.1-0.8
				c0-0.1-0.1-0.1-0.1-0.2c-0.1-0.3,0.1-0.9,0-1.2c0-0.5,0-1.1,0.1-1.5c0.1,0.3,0.1,0.7,0.2,1h0.1c0,0.1,0,0.3,0.1,0.3
				c0,0.2,0.1,0.5,0,0.7c0.1,0.1,0.2,0,0.2,0.1c-0.1,0.3,0.1,0.6,0.3,0.8c-0.1,0.3,0.2,0.5,0.2,0.8c0.3,0,0.1-0.3,0.1-0.5
				c0.2,0.1,0.1,0.3,0.3,0.4c0,0.1,0,0.1-0.1,0.1c0.1,0.1,0.3,0.5,0.1,0.6c0.2,0.1,0,0.5,0.2,0.7c0,0.2,0,0.3,0,0.5
				c-0.2,0.4,0.3,0.8,0.1,1.2h0.1c-0.1,0.2,0.1,0.3,0,0.5c0,0.1,0.1,0,0.2,0.1c0-0.3-0.1-0.6-0.2-1c0.2,0.1,0.2,0.3,0.3,0.5
				c0,0.2,0,0.3,0.1,0.6c0.5,0.2,0.9,0.4,1.4,0.5c0,0.1,0.2,0.2,0.3,0.1c0.1,0,0,0,0,0.1c0.3-0.1,0.3,0.2,0.5,0.1
				c-0.1-0.2-0.3-0.1-0.3-0.3C-244.8,403.1-244.6,403.6-244.2,403.7C-244.3,403.7-244.2,403.7-244.2,403.7z M-246.8,412.9
				C-246.8,412.9-246.8,412.8-246.8,412.9C-246.9,412.9-246.9,412.9-246.8,412.9z M-246.5,412.5
				C-246.5,412.6-246.5,412.6-246.5,412.5C-246.5,412.6-246.5,412.6-246.5,412.5C-246.4,412.6-246.4,412.5-246.5,412.5z
				 M-247.3,411.8c0,0,0.1-0.1,0-0.1C-247.4,411.6-247.4,411.8-247.3,411.8z M-248.8,410.6c0,0.1,0.1,0.1,0.1,0.3
				c-0.1,0-0.1-0.1-0.1,0c0.1,0.1,0.1,0.4,0.2,0.5C-248.6,411.2-248.5,410.7-248.8,410.6z M-248.6,410.9
				C-248.6,411-248.6,411-248.6,410.9L-248.6,410.9C-248.5,411-248.4,410.9-248.6,410.9z M-242.5,410.8L-242.5,410.8
				C-242.6,410.8-242.6,410.8-242.5,410.8C-242.5,410.9-242.5,410.9-242.5,410.8L-242.5,410.8z M-248.8,410.5L-248.8,410.5
				C-248.8,410.5-248.8,410.4-248.8,410.5z M-238.7,407.2C-238.7,407.2-238.8,407.2-238.7,407.2c0.1,0.1,0.2,0.1,0.3,0.1
				c-0.1-0.1,0.2-0.1,0.1,0c0.2,0,0.2,0.1,0.3,0.1c0.1,0,0.1-0.1,0.2-0.1c0.2,0.2,0.8,0.1,1.1,0.3c0.1,0,0-0.1,0.1-0.1
				c0.1,0.1,0.3,0.1,0.4,0.2c0.4-0.1,0.6,0,1,0.1c0-0.1-0.1-0.1-0.1-0.1c0-0.1,0.1,0,0.2,0c0.3,0.3,0.8,0.3,1.1,0.3
				c0.3,0,0.5,0.2,0.7,0.1c0.2,0.2,0.6,0,0.6,0.3c-0.1,0-0.2,0-0.3-0.1c-0.1,0-0.1,0.1-0.1,0.2c-0.1,0-0.1-0.1-0.1-0.1
				c0-0.1,0.1-0.1,0.1-0.1c-0.1-0.1-0.2,0-0.4-0.1c-0.1,0,0,0,0,0.1c-0.1,0-0.4-0.1-0.6-0.2c-0.3,0.1-0.5,0-0.9,0
				c0.1-0.1,0-0.1-0.1-0.1c-0.1,0.1,0.1,0.1,0.1,0.3c-0.2,0-0.7-0.1-0.9-0.3c0,0,0,0-0.1,0c0,0.1,0,0.1,0.1,0.1
				c-0.3,0-0.6-0.1-0.9-0.2c0-0.1,0.2,0,0.1-0.1c0.1,0.1,0.4,0.1,0.6,0.2l0.1-0.1c-0.2-0.1-0.7-0.1-0.8-0.3c-0.2,0.1-0.4-0.1-0.6,0
				C-237.9,407.3-238.2,407.5-238.7,407.2c-0.1,0.1-0.2,0-0.3-0.1C-238.9,407.1-238.8,407.2-238.7,407.2z M-230.4,408.4
				c0-0.1,0.1,0,0.1-0.1c-0.1-0.1-0.1,0-0.2,0c0.1,0.1,0,0.1,0,0.2c0.2-0.1,0.4,0.1,0.4-0.1C-230.2,408.4-230.4,408.5-230.4,408.4z
				 M-232.3,408.4c-0.1,0.1-0.2,0.1-0.2,0C-232.4,408.3-232.4,408.4-232.3,408.4z M-233,408.4C-233,408.5-233.1,408.4-233,408.4
				C-233.2,408.4-233.1,408.4-233,408.4z M-234.6,408.3C-234.5,408.4-234.7,408.3-234.6,408.3C-234.8,408.3-234.6,408.3-234.6,408.3
				z M-247.7,408.3c-0.1-0.2,0-0.7-0.2-0.9c0.1,0.3-0.1,0.6,0,0.8C-247.9,408.3-247.8,408.4-247.7,408.3z M-231.6,408.3
				c-0.1,0.1-0.1-0.1-0.2,0C-232,408.2-231.6,408.2-231.6,408.3z M-232.2,408.2c0,0.1-0.1,0-0.2,0
				C-232.4,408.1-232.2,408.3-232.2,408.2z M-231.4,408.3C-231.5,408.3-231.5,408.2-231.4,408.3
				C-231.5,408.2-231.4,408.2-231.4,408.3z M-247.7,407.8c0,0.2-0.1,0.3,0.1,0.4C-247.5,408.1-247.5,407.9-247.7,407.8z
				 M-232.7,408.2L-232.7,408.2C-232.7,408.1-232.7,408.1-232.7,408.2z M-235.5,408.1L-235.5,408.1
				C-235.5,408-235.5,408-235.5,408.1C-235.5,408-235.5,408-235.5,408.1C-235.6,408-235.6,408-235.5,408.1L-235.5,408.1
				L-235.5,408.1z M-229.3,408c0.1,0,0.2,0,0.2,0S-229.3,407.9-229.3,408z M-236.8,408c-0.1,0-0.2,0-0.3-0.1
				C-237,407.9-236.8,407.8-236.8,408z M-231.5,407.8c0.1,0,0.2,0,0.3,0.1C-231.2,407.8-231.5,407.8-231.5,407.8z M-231.2,407.8
				c0,0.1,0.3,0.1,0.2,0C-231,407.8-231.1,407.8-231.2,407.8z M-229.5,407.8c0.1,0.1,0.3,0.1,0.4,0.1
				C-229.2,407.8-229.5,407.7-229.5,407.8z M-237.4,407.8L-237.4,407.8L-237.4,407.8z M-229.7,407.8
				C-229.7,407.8-229.6,407.8-229.7,407.8C-229.5,407.8-229.7,407.8-229.7,407.8z M-248,407.8L-248,407.8L-248,407.8L-248,407.8
				L-248,407.8z M-237.5,407.8c-0.1,0.1-0.2-0.1-0.3-0.1C-237.7,407.6-237.6,407.8-237.5,407.8z M-232.1,407.8c0.1,0,0.3,0,0.3,0
				C-231.7,407.6-232.1,407.7-232.1,407.8z M-249.2,407.6C-249.2,407.6-249.2,407.7-249.2,407.6
				C-249.2,407.7-249.2,407.7-249.2,407.6C-249.3,407.6-249.3,407.6-249.2,407.6z M-236.1,407.7c-0.1,0-0.1,0-0.1,0
				C-236.2,407.6-236,407.6-236.1,407.7z M-232.2,407.5c0,0.1,0.1,0.1,0.1,0.1C-232,407.5-232.2,407.6-232.2,407.5z M-232.8,407.4
				L-232.8,407.4c0.1,0.1,0.3,0.2,0.5,0.1C-232.5,407.4-232.6,407.4-232.8,407.4z M-248.4,407.5
				C-248.4,407.4-248.4,407.4-248.4,407.5c0-0.1,0-0.1,0-0.2c0,0,0,0-0.1,0C-248.5,407.4-248.5,407.4-248.4,407.5
				C-248.4,407.5-248.5,407.5-248.4,407.5z M-247.7,407.3c0,0.1,0,0.1,0,0.2C-247.7,407.4-247.6,407.4-247.7,407.3z M-237,407.4
				C-237,407.4-237,407.5-237,407.4C-237,407.5-237,407.5-237,407.4z M-229.5,407.4L-229.5,407.4
				C-229.6,407.4-229.6,407.4-229.5,407.4L-229.5,407.4L-229.5,407.4z M-233.5,407.4c0.1,0,0.1,0,0.1,0
				C-233.4,407.3-233.5,407.3-233.5,407.4z M-238.3,407.3L-238.3,407.3C-238.4,407.3-238.4,407.4-238.3,407.3
				C-238.3,407.4-238.3,407.4-238.3,407.3C-238.3,407.4-238.3,407.4-238.3,407.3z M-235.9,407.4c-0.3-0.1-0.6-0.1-0.8-0.2
				C-236.5,407.1-236,407.2-235.9,407.4z M-233.1,407.2L-233.1,407.2c0.1,0.1,0,0.2,0.1,0.1C-232.9,407.2-233,407.2-233.1,407.2z
				 M-249.2,407.3c-0.1,0-0.1-0.1-0.1-0.1C-249.2,407.2-249.2,407.2-249.2,407.3z M-234.3,407.3
				C-234.4,407.3-234.4,407.3-234.3,407.3C-234.4,407.2-234.4,407.3-234.3,407.3z M-235.3,407.2
				C-235.2,407.2-235.2,407.2-235.3,407.2C-235.2,407.3-235.3,407.3-235.3,407.2z M-234.6,407.3
				C-234.6,407.3-234.7,407.3-234.6,407.3C-234.7,407.2-234.6,407.2-234.6,407.3z M-235.3,407.1
				C-235.3,407.1-235.4,407.2-235.3,407.1c-0.1,0.1-0.1,0.1-0.1,0.1c-0.1,0.1-0.1-0.1-0.2-0.1C-235.6,407-235.4,407.1-235.3,407.1z
				 M-230,407.2C-230,407.2-230.1,407.2-230,407.2c0.1,0.1,0.3,0.1,0.4,0C-229.7,407-229.8,407.3-230,407.2z M-238.9,407.2
				c-0.1,0.1-0.2-0.1-0.3,0C-239.3,407-239.1,407.2-238.9,407.2z M-240.5,407c0-0.4-0.5-0.1-0.7-0.3c0.1-0.1,0-0.1-0.1-0.1
				c0.1-0.1,0.4,0,0.4,0.1c0.1-0.1,0.1,0,0.2,0c0-0.1,0-0.1,0-0.1c0.1,0.1,0.3,0,0.4,0.2c0.2-0.1,0.3,0.1,0.6,0.2
				c0.1,0,0-0.1,0.1-0.1c0.1,0.1,0.3,0.1,0.4,0.1c0,0.1,0,0.1,0.1,0.1c-0.2-0.1-0.8,0.1-0.8-0.3c-0.1,0.1-0.1,0-0.3,0
				C-240.4,406.9-240.4,407-240.5,407C-240.4,407-240.5,407-240.5,407z M-247.7,406.8c-0.1,0.1,0,0.3,0.1,0.4
				C-247.6,407-247.6,406.9-247.7,406.8z M-235,407.2C-235,407.3-235.1,407.2-235,407.2C-235.1,407.1-235.1,407.2-235,407.2z
				 M-239.2,406.6c0.1,0,0.1-0.1,0.1-0.1c0.1,0,0.1,0.1,0.1,0.1c0.4-0.1,1,0.5,1.5,0.3c0.1,0.1,0.2,0.1,0.3,0.2
				c-0.3-0.1-0.8-0.2-1.1-0.1c-0.4-0.2-0.9-0.2-1.2-0.4C-239.3,406.5-239.3,406.5-239.2,406.6z M-234.4,407.1c0.2,0,0.4,0.1,0.5,0
				C-234,407-234.2,407-234.4,407.1z M-249.1,407C-249,407-249,407-249.1,407C-249.1,407.1-249.1,407-249.1,407z M-248,406.5
				C-248,406.6-248.1,406.6-248,406.5c0.1,0.2-0.1,0.5,0.1,0.5C-247.9,406.9-247.9,406.7-248,406.5z M-236.6,407.1
				c-0.1,0-0.1,0-0.1,0C-236.7,407-236.5,407-236.6,407.1z M-236.7,407c0,0.1-0.1,0-0.2,0C-236.9,406.9-236.8,407-236.7,407z
				 M-232.5,407c0.1,0,0.1,0,0.1-0.1C-232.4,406.9-232.5,406.9-232.5,407z M-232.9,406.8v0.1c0.1-0.1,0.3,0.1,0.3-0.1
				C-232.7,406.9-232.7,406.8-232.9,406.8z M-249.1,406.9c-0.1-0.2-0.1-0.5-0.1-0.7C-249.1,406.5-249,406.7-249.1,406.9z
				 M-240.6,406.9L-240.6,406.9C-240.6,406.9-240.7,406.9-240.6,406.9C-240.7,406.9-240.7,406.9-240.6,406.9z M-249.3,406.8
				L-249.3,406.8C-249.3,406.9-249.3,406.8-249.3,406.8z M-233.2,406.8c0,0.1,0.1,0.1,0.1,0.1C-233.1,406.8-233.2,406.8-233.2,406.8
				z M-241.5,406.7c0,0.1-0.1,0-0.1-0.1C-241.5,406.7-241.5,406.7-241.5,406.7z M-232,406.6c0.1,0,0.1,0.1,0.2,0.1
				C-231.7,406.6-232,406.5-232,406.6z M-241.3,406.6C-241.3,406.6-241.3,406.7-241.3,406.6C-241.3,406.7-241.3,406.7-241.3,406.6z
				 M-235.1,406.6c0.1,0,0.1,0.1,0.2,0S-235.1,406.5-235.1,406.6z M-241.3,406.5C-241.3,406.5-241.3,406.6-241.3,406.5
				C-241.4,406.6-241.4,406.5-241.3,406.5C-241.4,406.5-241.4,406.5-241.3,406.5z M-239.5,406.6c-0.2,0-0.6-0.1-0.9-0.2l0,0
				C-240.1,406.5-239.6,406.4-239.5,406.6z M-239.2,406.5C-239.3,406.5-239.3,406.5-239.2,406.5
				C-239.3,406.4-239.2,406.5-239.2,406.5z M-235.7,406.4L-235.7,406.4c0.1,0.1,0.3,0.1,0.4,0.1
				C-235.3,406.3-235.6,406.4-235.7,406.4z M-235.3,406.5C-235.2,406.5-235.2,406.5-235.3,406.5
				C-235.1,406.5-235.3,406.4-235.3,406.5z M-241.6,406.5c-0.1,0.1-0.2,0-0.2-0.1C-241.6,406.3-241.6,406.4-241.6,406.5z
				 M-247.2,406.5C-247.2,406.4-247.2,406.4-247.2,406.5C-247.2,406.4-247.2,406.5-247.2,406.5z M-235.6,406
				c0.2,0.1,0.5,0.2,0.8,0.1c0.7,0.1,1.3,0.3,2.2,0.3c0-0.1-0.1-0.1,0-0.1c-0.6,0.1-1.4-0.2-2.1-0.3v-0.1c-0.4,0.2-1.2-0.3-1.5-0.2
				c0-0.1,0-0.1-0.1-0.1c-0.1,0-0.1,0.1-0.2,0.1c-0.1-0.1-0.1-0.1-0.2,0c-0.1-0.1-0.5-0.3-0.6-0.2c0.1,0.3,0.4,0.1,0.6,0.4
				C-236.3,405.9-236.1,406.1-235.6,406z M-247.7,406.2c0-0.2-0.2-0.3-0.3-0.4v0.1c0.2,0,0.1,0.3,0.2,0.5
				C-247.6,406.4-247.9,406.2-247.7,406.2z M-243.6,406c0.1-0.1,0.4,0.2,0.5,0c0,0.1,0.1,0.1,0.3,0.1c0.1,0.1,0.1,0.3,0.2,0.3
				c-0.1,0.1-0.2-0.1-0.4-0.1c0.1-0.1,0.1,0,0.2,0C-243,406.1-243.3,406.1-243.6,406c-0.1,0-0.3-0.1-0.5-0.1
				C-244,405.7-243.7,405.8-243.6,406z M-249.3,406.3C-249.3,406.3-249.3,406.4-249.3,406.3C-249.3,406.4-249.4,406.4-249.3,406.3
				C-249.4,406.3-249.4,406.3-249.3,406.3z M-241.4,406.1c0-0.1,0.1,0,0.1,0c-0.1-0.1-0.3-0.1-0.4-0.2c-0.1,0.1,0,0.1,0.1,0.1
				c-0.1,0.1-0.3-0.1-0.4-0.1c0-0.2-0.1-0.1-0.2-0.2c-0.2,0.1-0.4-0.2-0.7-0.1c0,0.1,0.1,0,0.1,0.1c-0.2-0.1-0.2-0.3-0.4-0.3
				c0.1-0.1,0.3,0.1,0.3,0c0.7,0.3,1.3,0.4,2,0.6c0,0,0,0.1-0.1,0.1c0.1,0,0.1,0.1,0.1,0.1c0.2-0.1,0.4,0.1,0.6,0.1
				C-240.8,406.3-241.1,406.3-241.4,406.1z M-242,406.3c0,0-0.1,0-0.1,0.1C-242.2,406.3-242.1,406.3-242,406.3z M-242.3,406.3
				c0,0.1-0.1-0.1-0.1,0C-242.4,406.2-242.4,406.3-242.3,406.3z M-236.3,406.2C-236.3,406.2-236.4,406.2-236.3,406.2
				C-236.4,406.3-236.4,406.3-236.3,406.2C-236.4,406.3-236.3,406.3-236.3,406.2C-236.3,406.3-236.3,406.3-236.3,406.2z
				 M-242.6,406.3C-242.6,406.3-242.7,406.2-242.6,406.3C-242.6,406.2-242.6,406.2-242.6,406.3z M-242.4,406.2
				C-242.5,406.2-242.5,406.2-242.4,406.2C-242.6,406.1-242.4,406.1-242.4,406.2z M-240.9,406c0.1,0,0.3,0.1,0.5,0.1
				c-0.1,0.1-0.3-0.1-0.4,0C-240.9,406.2-240.9,406.1-240.9,406z M-239.9,406.2c-0.1,0-0.1-0.1-0.1-0.1c0-0.1,0-0.1,0-0.1
				S-239.9,406-239.9,406.2z M-237.3,406.1c0-0.1-0.2-0.1-0.3-0.1v0.1C-237.5,406.1-237.4,406.1-237.3,406.1z M-244.2,406
				L-244.2,406C-244.2,405.9-244.2,406-244.2,406z M-237.6,405.9C-237.6,405.9-237.6,406-237.6,405.9L-237.6,405.9z M-243.1,405.9
				L-243.1,405.9L-243.1,405.9L-243.1,405.9L-243.1,405.9z M-242.1,405.9h-0.1C-242.2,405.8-242.1,405.8-242.1,405.9z M-238.3,405.9
				L-238.3,405.9C-238.1,405.9-238.4,405.8-238.3,405.9z M-243.3,405.9c-0.1,0.1-0.2-0.1-0.3-0.1
				C-243.6,405.6-243.4,405.8-243.3,405.9z M-239.1,405.6c-0.3,0.1-0.5-0.3-0.8-0.1c0.4,0.1,0.6,0.3,1,0.3
				C-238.8,405.7-239.1,405.7-239.1,405.6z M-247.9,405.6c0.1,0,0.1,0.1,0.2,0.2C-247.6,405.7-247.8,405.6-247.9,405.6
				c0.1-0.2,0.1-0.6-0.1-0.7c0,0.3-0.1,0.6,0.1,0.9C-247.8,405.8-247.9,405.7-247.9,405.6z M-247.3,405.8L-247.3,405.8
				c-0.1,0.1,0,0.1,0,0.1C-247.3,405.8-247.3,405.8-247.3,405.8z M-242.4,405.8c-0.1,0.1-0.3-0.1-0.3-0.1
				C-242.7,405.6-242.6,405.8-242.4,405.8z M-244.8,405.8c-0.1,0-0.1,0-0.1-0.1S-244.8,405.7-244.8,405.8z M-244.6,405.6
				c0,0.1,0,0.1,0,0.1c-0.1,0-0.1-0.1-0.3-0.2C-244.9,405.4-244.8,405.6-244.6,405.6z M-244.4,405.8
				C-244.4,405.8-244.5,405.7-244.4,405.8C-244.4,405.7-244.4,405.7-244.4,405.8z M-248.7,404.5c0.1,0.4,0,0.9,0.2,1.2
				C-248.7,405.3-248.6,404.8-248.7,404.5z M-243.8,405.7c0-0.1-0.3,0-0.3-0.2C-243.9,405.6-243.8,405.5-243.8,405.7z M-243.5,405.6
				L-243.5,405.6C-243.5,405.7-243.5,405.7-243.5,405.6C-243.6,405.6-243.5,405.6-243.5,405.6z M-240.8,404.8
				C-240.8,404.8-240.9,404.8-240.8,404.8c0.3,0.2,1,0.3,1.4,0.4c0,0-0.1,0-0.1,0.1c0.8,0.1,1.6,0.4,2.2,0.4c0-0.1-0.1-0.1-0.1-0.2
				c-0.1,0-0.1,0.1-0.2,0.1c-0.1-0.1-0.3-0.1-0.4-0.2c-0.5,0-0.9-0.3-1.6-0.3c-0.6-0.3-1.3-0.6-2.1-0.6c0.2,0.2,0.5,0.2,0.7,0.4
				C-241,404.7-240.8,404.7-240.8,404.8z M-240.6,405.6C-240.6,405.6-240.5,405.6-240.6,405.6C-240.6,405.5-240.6,405.5-240.6,405.6
				z M-246.4,405.5c-0.1,0-0.1-0.1-0.1-0.1S-246.4,405.4-246.4,405.5z M-240.9,405.4L-240.9,405.4C-241,405.5-241,405.5-240.9,405.4
				C-240.9,405.5-240.9,405.5-240.9,405.4C-240.9,405.5-240.9,405.5-240.9,405.4z M-245.6,405.4
				C-245.7,405.5-245.6,405.5-245.6,405.4C-245.5,405.4-245.5,405.4-245.6,405.4z M-243.7,405.4c-0.2,0-0.4-0.1-0.6-0.2
				C-244.1,405.3-243.7,405.2-243.7,405.4z M-243.1,405.4C-243.1,405.4-243.2,405.4-243.1,405.4
				C-243.2,405.4-243.2,405.4-243.1,405.4C-243.2,405.3-243.1,405.3-243.1,405.4z M-243,405.3C-243,405.3-243,405.4-243,405.3
				C-243.1,405.4-243.1,405.3-243,405.3z M-249.3,405c0.1,0,0.1,0.3,0,0.3C-249.2,405.2-249.3,405.2-249.3,405z M-241.1,405.4
				C-241.1,405.3-241.1,405.3-241.1,405.4C-241.2,405.3-241.2,405.3-241.1,405.4C-241.2,405.3-241.2,405.3-241.1,405.4
				C-241.2,405.3-241.2,405.3-241.1,405.4C-241.2,405.4-241.1,405.4-241.1,405.4z M-248.1,405.3c0-0.2,0-0.3,0-0.5
				c-0.1,0-0.1-0.1-0.2-0.1C-248.4,404.9-248.2,405.2-248.1,405.3L-248.1,405.3z M-245.5,405.1c0,0.1,0.2,0.2,0.1,0.2
				c0-0.1,0-0.1-0.1-0.1C-245.6,405.2-245.5,405.2-245.5,405.1c0,0-0.1,0.1-0.2,0l0,0C-245.6,405.1-245.6,405.1-245.5,405.1z
				 M-244.9,405.3c-0.1,0-0.1-0.1-0.1-0.1S-244.9,405.2-244.9,405.3z M-237.9,405.1C-237.9,405.1-237.9,405.2-237.9,405.1
				c0.1,0.1,0.2,0.2,0.3,0.1C-237.6,405.1-237.8,405.1-237.9,405.1z M-249.4,405.2C-249.4,405.3-249.5,405.2-249.4,405.2
				C-249.4,405.1-249.5,405.2-249.4,405.2z M-242.9,405.1c0.1,0,0.1,0.1,0.3,0.1C-242.6,405-242.8,405-242.9,405.1z M-244.5,405.1
				C-244.4,405.1-244.5,405.1-244.5,405.1L-244.5,405.1z M-244,405.1c0,0.1-0.2,0-0.1-0.1C-244.1,405-244.1,405.1-244,405.1z
				 M-245.7,405.1L-245.7,405.1L-245.7,405.1z M-244.2,405.1L-244.2,405.1C-244.3,405-244.3,405-244.2,405.1
				C-244.3,405-244.2,405-244.2,405.1z M-246,405L-246,405C-246,404.9-246,405-246,405z M-245.9,405C-245.8,405-245.8,405-245.9,405
				L-245.9,405z M-243.9,404.7c0.2,0.2,0.4,0.1,0.8,0.2v0.1c0.1,0,0.1,0.1,0.2,0c0-0.1,0-0.1,0-0.1c0,0.1,0.2,0.1,0.2,0
				c-0.5-0.2-0.9-0.3-1.4-0.5l-0.1,0.1c-0.1-0.1-0.2-0.1-0.3-0.1C-244.4,404.5-244.2,404.7-243.9,404.7L-243.9,404.7z M-244.4,405
				c-0.1,0-0.3,0-0.4-0.1C-244.6,404.9-244.6,404.9-244.4,405z M-243.4,404.9L-243.4,404.9C-243.3,405-243.3,405-243.4,404.9
				C-243.3,404.9-243.3,404.9-243.4,404.9z M-238.5,404.9c-0.1,0-0.1,0-0.1-0.1C-238.6,404.9-238.5,404.8-238.5,404.9z
				 M-244.9,404.8C-244.9,404.8-244.9,404.9-244.9,404.8C-244.9,404.9-244.9,404.9-244.9,404.8z M-238.9,404.8c0.1-0.1,0.2,0,0.2,0
				l0,0C-238.7,404.9-238.8,404.9-238.9,404.8z M-249.3,404.6L-249.3,404.6C-249.3,404.5-249.3,404.6-249.3,404.6z M-244,404.6
				C-244,404.6-244.1,404.6-244,404.6L-244,404.6z M-246.3,404.6C-246.3,404.7-246.4,404.6-246.3,404.6
				C-246.3,404.5-246.3,404.6-246.3,404.6z M-246.2,404.4c0.1,0,0.3,0.2,0.3,0.1C-245.9,404.4-246.1,404.3-246.2,404.4z M-246.8,404
				c0,0.2,0.2,0.2,0.4,0.3C-246.5,404.2-246.7,404.1-246.8,404z M-247.6,404.1c0,0.1,0,0.2,0,0.2s0-0.1,0.1-0.1
				C-247.4,404.1-247.5,404.1-247.6,404.1z M-243.5,404.1c0,0.1,0.3,0.2,0.4,0.1C-243.3,404.1-243.4,404.1-243.5,404.1z M-247,404.2
				C-246.9,404.3-246.9,404.2-247,404.2C-246.9,404.2-247,404.1-247,404.2C-247,404.1-247,404.1-247,404.2L-247,404.2z
				 M-242.3,404.2C-242.2,404.2-242.2,404.2-242.3,404.2C-242.1,404.1-242.3,404.1-242.3,404.2z M-243.8,403.9
				c-0.2,0-0.2-0.1-0.3-0.1v0.1c0.2,0.1,0.3,0.1,0.4,0.2C-243.7,404.1-243.8,404-243.8,403.9z M-247.5,403.9
				C-247.5,404-247.5,404-247.5,403.9C-247.5,404-247.5,403.9-247.5,403.9z M-248.2,404C-248.2,404-248.2,403.9-248.2,404
				C-248.2,403.9-248.2,404-248.2,404z M-246.6,403.9C-246.6,404-246.5,404-246.6,403.9C-246.5,403.9-246.6,403.9-246.6,403.9z
				 M-248.3,403.8h-0.1c0,0.1,0,0.1,0.1,0.2C-248.3,403.9-248.2,403.9-248.3,403.8z M-242.5,403.8
				C-242.5,403.8-242.4,403.8-242.5,403.8C-242.4,403.9-242.4,403.9-242.5,403.8C-242.4,403.9-242.5,403.9-242.5,403.8
				C-242.5,403.9-242.5,403.9-242.5,403.8z M-247,403.7c0,0.1,0,0.1,0,0.1c0.1,0,0.3,0.1,0.3,0C-246.9,403.8-246.9,403.7-247,403.7z
				 M-250.9,403.8c0.1,0,0.1,0.1,0.1,0S-250.9,403.7-250.9,403.8z M-243.8,403.8c0.1,0,0.2,0,0.2,0
				C-243.7,403.8-243.8,403.6-243.8,403.8z M-251.6,403.5v0.1c0.1,0.1,0.2,0,0.2,0C-251.5,403.6-251.5,403.5-251.6,403.5z
				 M-244.3,403.6c-0.1,0-0.1-0.1-0.2-0.1C-244.4,403.4-244.1,403.6-244.3,403.6L-244.3,403.6z M-244.8,403.4l-0.1,0.1
				C-244.8,403.4-244.8,403.5-244.8,403.4C-244.8,403.5-244.7,403.4-244.8,403.4z M-250.7,403.2c0-0.1-0.1-0.1,0-0.1
				s0.1,0.1,0.2,0.1c-0.1-0.3-0.4-0.2-0.7-0.3c0,0,0,0,0,0.1c0.2,0,0.4,0.1,0.3,0.2C-250.8,403.2-250.8,403.3-250.7,403.2z
				 M-250.4,403.1L-250.4,403.1L-250.4,403.1z M-247.7,402.4c0.1,0,0.1,0,0.1-0.1C-247.7,402.3-247.7,402.3-247.7,402.4z
				 M-248.4,402.1c0.1,0,0-0.2,0.2-0.1c0.1,0.1,0,0.1,0,0.2c0.1,0,0.2,0.1,0.2,0c-0.1-0.3-0.2-0.7-0.2-0.9c0.1-0.1,0,0.1,0.1,0.1
				c0-0.2-0.1-0.4-0.3-0.5c0.1,0.1-0.1,0.2,0,0.4c-0.1,0.1-0.1,0-0.2,0c0,0.2,0,0.3,0,0.4c0.1,0,0.1,0,0.1,0.1
				C-248.4,401.9-248.5,402-248.4,402.1z M-247.3,402.1C-247.3,402-247.3,402-247.3,402.1C-247.4,402-247.4,402.1-247.3,402.1z
				 M-248.3,401.6c-0.1,0-0.1-0.2,0-0.1C-248.3,401.5-248.3,401.5-248.3,401.6z M-247.3,401.6c-0.2-0.1-0.1-0.3-0.1-0.6
				C-247.3,401.1-247.3,401.4-247.3,401.6z M-248.6,401.3L-248.6,401.3C-248.5,401.3-248.5,401.4-248.6,401.3
				C-248.5,401.3-248.5,401.2-248.6,401.3z M-248.5,401.2C-248.5,401.2-248.5,401.1-248.5,401.2L-248.5,401.2z M-248.2,400.7
				c0,0.1,0,0.1,0.1,0.2C-248.1,400.8-248.1,400.7-248.2,400.7z M-247.4,400.8L-247.4,400.8C-247.4,400.9-247.4,400.8-247.4,400.8z
				 M-249.6,400.6c0.1,0,0.1,0.1,0.1,0.1s0,0-0.1,0C-249.6,400.7-249.6,400.6-249.6,400.6z M-247.5,400.4c0.1,0.1,0.1,0.2,0,0.3
				C-247.5,400.7-247.4,400.5-247.5,400.4z M-248.4,400.5C-248.5,400.5-248.5,400.5-248.4,400.5
				C-248.5,400.6-248.5,400.6-248.4,400.5C-248.5,400.5-248.4,400.5-248.4,400.5z M-248.4,400.4c-0.1-0.3,0-0.6-0.1-0.7
				c-0.1,0.2,0,0.4-0.1,0.6C-248.5,400.3-248.6,400.5-248.4,400.4z M-247.9,400.3L-247.9,400.3C-248,400.3-248,400.3-247.9,400.3z
				 M-249.7,400.2L-249.7,400.2C-249.7,400.3-249.7,400.3-249.7,400.2C-249.7,400.3-249.7,400.3-249.7,400.2
				C-249.7,400.3-249.7,400.3-249.7,400.2z M-249.5,400c0.1,0.1,0.1-0.3,0-0.3C-249.5,399.8-249.5,399.9-249.5,400z M-248.2,399.8
				C-248.2,399.8-248.3,399.8-248.2,399.8C-248.3,399.9-248.3,399.9-248.2,399.8C-248.3,399.9-248.2,399.9-248.2,399.8
				C-248.2,399.9-248.2,399.9-248.2,399.8z M-248.4,399.2c-0.1,0.1,0,0.2,0,0.3C-248.2,399.5-248.2,399.2-248.4,399.2z
				 M-248.6,398.7C-248.6,398.7-248.6,398.8-248.6,398.7L-248.6,398.7z M-248.8,398c-0.1,0.1,0,0.1,0,0.2
				C-248.6,398.2-248.7,398-248.8,398z"/>
			<path class="st3" d="M-255.2,391.5c0,0.1-0.1,0.2,0.1,0.2c0.1,0.3,0,0.6,0.1,0.8c0,0.1-0.1,0.1-0.1,0c0.1,0.1,0.2,0.1,0.3,0.1
				c0-0.2,0-0.5-0.2-0.7c0.3,0.1,0.2,0.4,0.3,0.7c0.7,0.1,1.4,0.3,2.1,0.5c0,0.1,0,0.1,0,0.1c0.3,0,0.5,0.3,0.8,0.3
				c0.2,0.4,0.9,0.2,1.2,0.5c0.2-0.1,0.6,0.2,1,0.2c0,0.1,0,0.1,0.1,0.2c0.4,0.1,0.5,0.1,0.8,0.1c0,0.1,0,0.1,0,0.1
				c0.3-0.1,0.4,0.2,0.8,0.2c0,0.1-0.1,0.1,0,0.1c0,0,0.1,0,0.1-0.1c0.2,0.2,0.6,0.1,0.7,0.3c0.1,0,0.1-0.1,0.2,0s-0.1,0.1,0.1,0.1
				c0.1,0,0.1,0,0.1-0.1c0.7,0.2,1.4,0.6,2.2,0.6c0,0.1,0,0.1,0.1,0.1c0.1,0,0.3,0,0.4,0.1c0.4,0,0.7,0.2,1.1,0.3
				c0-0.7-0.1-1.4-0.1-2.1c0.1,0,0,0,0.1,0c0,0,0,0.1,0.1,0.1c0,0,0,0-0.1-0.1c-0.2-0.5-0.1-1.2-0.1-1.8c0-0.1-0.1-0.1-0.1-0.1
				c0.1-0.3,0.1-0.7,0.1-1.1c0.2,0.4,0.5,0.7,0.7,1.2h0.1c0,0.1-0.1,0-0.1,0.1c0,0.1,0.1,0,0.1,0c-0.1,0.4,0,0.8,0.2,1.1
				c0.1,0,0-0.1,0-0.2c0.1,0.2,0,0.5,0.1,0.6c0.1,0,0.1-0.1,0.1-0.1c-0.1,0-0.1-0.1-0.1-0.2c0.1,0.1,0.1,0.3,0.2,0.5
				c0.1,0,0.1,0,0.2,0c0-0.1-0.1,0-0.1-0.1s0-0.2-0.1-0.3c0.1,0,0.1,0.1,0.1,0.1c0.1,0-0.1-0.1,0.1-0.1c0.1,0.4,0.3,0.7,0.4,1.1
				c0,0.1,0,0,0.1,0c0.1,0.5,0,0.9,0.2,1.2c0,0.1-0.1,0.1-0.1,0.1c0.2,0.6,0.1,1,0.4,1.5c-0.1,0.1-0.1,0.4,0.1,0.4
				c-0.1,0.1,0,0.1,0.1,0.2c0,0.1,0,0,0,0v-0.1c0.3,0.1,0.3,0.5,0.7,0.5c-0.1,0.1-0.1,0.2,0.1,0.1c-0.1,0.3,0.2,0.3,0.3,0.4
				c-0.3,0-0.6-0.1-0.9-0.1c0.1,0.6,0.1,1.4,0.6,1.8c0,0.2,0,0.2,0.1,0.4c-0.6,0.4-1.4,0.6-2.1,0.6c0-0.2-0.3-0.1-0.4-0.2
				c0-0.2-0.1-0.4-0.1-0.7h0.1c0-0.3-0.1-0.6-0.1-0.9c-0.1-0.3-0.2-0.8-0.3-1.2c0,0,0-0.1,0.1-0.1c0-0.1-0.1-0.1-0.1-0.2
				c-0.1,0-0.3,0-0.3-0.2c-0.3,0.1-0.5-0.2-0.9-0.2c0,0.1,0.2,0,0.2,0.1c-0.2,0.1-0.4-0.3-0.6-0.1c-0.1-0.1-0.2-0.1-0.3-0.2
				c-0.1,0-0.1,0.1-0.1,0.1c-0.1-0.1-0.4-0.2-0.6-0.2c-0.2-0.2-0.5-0.2-0.8-0.3c-0.6-0.2-1.2-0.5-1.9-0.7c0-0.1-0.2,0-0.2-0.1
				c-0.5-0.1-1-0.3-1.4-0.5c-0.3,0.3-0.3,0.3-0.3,0.3c-0.1,0-0.1-0.1,0-0.1c-0.3-0.1-0.4-0.2-0.6-0.3c-0.1,0.1,0,0.1,0,0.1
				c0.1,0,0.2,0.1,0.3,0.1c-0.2,0-0.6-0.2-0.8-0.3c-0.1-0.2-0.1-0.4-0.3-0.4c0-0.3-0.4-0.2-0.6-0.4l-0.1,0.1c0,0.1,0.1,0.1,0.1,0.1
				c-0.1,0.1-0.2,0-0.2-0.2c-0.3-0.1-0.7-0.3-1.1-0.3c0.1,0.1,0.3,0.1,0.4,0.2c0,0.1-0.1,0.1-0.1,0.1c-0.1,0.1-0.1-0.1-0.1-0.1
				c0.1,0.3,0.6,0.2,0.8,0.4c-0.2,0-0.6-0.1-0.8-0.2c-0.1,0,0,0.1-0.1,0.1c0,0.1,0,0.1,0,0.1c-0.2,0.1-0.4,0-0.5-0.2
				c-0.1,0-0.1,0.1,0,0.1c-0.1,0-0.5,0-0.6-0.1c-0.1,0,0,0.1-0.1,0.1c0,0.1,0.2,0.1,0.2,0.2c-0.1,0-0.1-0.1-0.2,0
				c-0.1-0.1-0.3-0.1-0.4-0.2c-0.2,0.1,0,0.3-0.1,0.5c-0.1,0-0.1-0.1-0.1-0.1v-0.1c-0.1,0,0,0.1,0,0.1c0.3,0.2,0.1,0.5,0.4,0.6
				c0,0.1,0,0.3,0.1,0.3c0,0.1-0.1,0.1-0.1,0.1c0.1,0.2,0.3,0.5,0.3,0.8c-0.1-0.1-0.1,0.1-0.2,0v-0.1l0,0c-0.1,0-0.1,0-0.1,0
				c-0.1,0.1,0.1,0.2,0,0.3c-0.1,0-0.2-0.1-0.3-0.1c0,0.1,0.1,0.1,0.2,0.1c0,0.1-0.2,0-0.3,0.1c0,0,0.1,0,0.2,0.1
				c0,0.1-0.1,0-0.1,0.1c-0.1,0,0-0.1-0.1-0.1c0,0.2-0.2,0.4-0.4,0.5c-0.1-0.1-0.1,0.1-0.2,0c0,0.1-0.1,0.3-0.2,0.2c0.1,0,0,0,0-0.1
				c-0.1,0,0,0.1,0,0.1c-0.2-0.1-0.4,0-0.5,0.1c-0.1,0-0.1-0.1-0.1-0.1c0.1-0.2-0.2-0.3-0.3-0.4c0-0.1,0-0.1,0.1-0.1
				c-0.2-0.1-0.2-0.3-0.3-0.5c0-0.1,0.1,0,0.1,0v-0.1c0-0.1-0.1,0-0.1,0c0.1-0.1-0.1-0.2-0.1-0.4c0.1,0.1,0.1,0.1,0.1,0.1
				c0-0.1-0.1-0.2-0.2-0.2c0-0.1,0-0.1,0-0.2c0.1,0,0.1,0,0.2,0c0-0.1-0.1-0.1-0.2-0.1v-0.1c0,0.1,0,0,0,0c0-0.1-0.1,0-0.1-0.1
				c0.1,0.1,0,0,0.1,0c0-0.1,0-0.1-0.1-0.1c0,0,0,0,0-0.1h0.1c0-0.1-0.2-0.1-0.2-0.2c0.1,0,0.1,0,0.1,0c-0.2-0.3-0.2-0.7-0.3-1.1
				c0.1-0.1,0,0,0-0.1c0.1,0,0.1,0.1,0.1,0.1c0.1,0,0-0.1,0-0.3c-0.1,0,0,0.1-0.1,0.1c-0.1-0.1-0.1-0.1-0.1-0.2
				c0.1,0.1,0.1-0.1,0.2,0c0-0.1-0.1-0.1,0-0.1c-0.1,0-0.1,0-0.1,0s0,0.1,0.1,0c-0.1,0.1-0.2,0-0.2-0.1s0-0.2,0-0.3
				c0.2,0.1,0,0.4,0.3,0.3c0-0.1-0.2-0.2,0-0.2l-0.1-0.1h0.1c0,0-0.2-0.3,0-0.3c-0.2-0.1,0-0.3-0.2-0.5c0,0,0.1,0,0.1-0.1h-0.1
				c-0.1,0.2,0,0.3,0,0.4c-0.3-0.2-0.1-0.7-0.1-0.9c0,0,0,0,0.1,0h-0.1c-0.1-0.1,0-0.1,0.1,0c0-0.1-0.1-0.1,0-0.2
				c0-0.1-0.1,0-0.1-0.1c0.1-0.1,0.1,0,0.2,0.1c0.1-0.1,0-0.5-0.1-0.6c0.1,0,0-0.1,0.1-0.2c-0.1-0.1-0.1-0.1-0.1-0.2
				c0,0,0.1,0,0.1-0.1s-0.1-0.1-0.2-0.1c0-0.1,0.1,0,0.2,0c0-0.1-0.1-0.1,0-0.1c0,0-0.1,0-0.1-0.1s0.1-0.2,0-0.3
				c-0.1,0-0.1,0.1-0.2,0.1c0,0,0-0.1,0-0.2s0.1,0.1,0.2,0c0,0-0.1-0.1-0.1-0.2c0,0,0.1,0,0.1-0.1c-0.2,0,0.1-0.4-0.2-0.4
				c0-0.3,0.1-0.6,0-1h0.1c0-0.1-0.1-0.1-0.1-0.1c0-0.1,0.1-0.1,0.1-0.2c-0.1-0.1,0-0.3,0-0.5c0.6,0.3,0.6,1.2,1,1.4
				c0.1,0.2,0,0.3,0.2,0.4c-0.1,0.2,0,0.4,0.1,0.5c0.1,0,0.1,0,0.1-0.1c0.1,0.1,0.1,0.2,0.3,0.3c0,0.1,0,0.3,0.2,0.3
				c-0.1,0.1,0,0.2-0.1,0.2c0,0.1,0,0.1,0.1,0c-0.1,0.2,0,0.5,0.2,0.5C-255.1,391.5-255.1,391.6-255.2,391.5
				C-255.2,391.6-255.1,391.5-255.2,391.5z M-255.4,398.6L-255.4,398.6L-255.4,398.6z M-243.5,398.6L-243.5,398.6
				C-243.4,398.6-243.5,398.6-243.5,398.6z M-243.5,398.6c-0.1,0-0.1,0-0.1-0.1C-243.5,398.5-243.5,398.5-243.5,398.6z
				 M-242.9,398.5h0.1C-242.8,398.4-242.9,398.4-242.9,398.5z M-242.7,398.5C-242.7,398.5-242.7,398.4-242.7,398.5
				C-242.7,398.4-242.7,398.5-242.7,398.5z M-243.1,398.3C-243.2,398.4-243,398.4-243.1,398.3C-243,398.4-243,398.3-243.1,398.3z
				 M-244.3,398.4c-0.1,0-0.1-0.1-0.1-0.2C-244.4,398.2-244.4,398.3-244.3,398.4z M-243.1,398.4
				C-243.2,398.4-243.1,398.3-243.1,398.4C-243.2,398.3-243.2,398.4-243.1,398.4z M-243.4,398.3c0,0,0.1,0.1,0.1,0H-243.4z
				 M-243,398.3L-243,398.3L-243,398.3C-242.9,398.3-242.9,398.3-243,398.3z M-244.8,398.3c-0.1-0.1-0.2-0.1-0.2-0.3
				C-244.9,398.1-244.8,398.2-244.8,398.3z M-242.9,398.3c0.1,0.1,0.1,0,0.2,0.1C-242.7,398.2-242.9,398.1-242.9,398.3z M-255,398.2
				C-255,398.2-254.9,398.2-255,398.2C-254.9,398.2-255,398.2-255,398.2z M-244.2,398.2L-244.2,398.2L-244.2,398.2z M-243.5,398.1
				L-243.5,398.1c0,0.1,0.1,0.1,0.2,0.1C-243.3,398.1-243.4,398.1-243.5,398.1z M-242.9,398.1c-0.1,0-0.1,0.1-0.1,0
				C-243.1,398.1-243.1,398.1-242.9,398.1C-243.1,398.1-242.9,398.1-242.9,398.1z M-243.2,398.1
				C-243.2,398.1-243.1,398.1-243.2,398.1L-243.2,398.1z M-245.2,398.1C-245.3,398.1-245.2,398-245.2,398.1
				C-245.2,397.9-245.1,398.1-245.2,398.1z M-240.6,398.1C-240.6,398.1-240.6,398-240.6,398.1C-240.6,397.9-240.5,398-240.6,398.1z
				 M-243.3,398C-243.4,398-243.4,398-243.3,398C-243.4,398.1-243.3,398.1-243.3,398C-243.3,398-243.4,398-243.3,398z M-247.1,396.2
				c0,0-0.1-0.1,0-0.1c0.2,0.1,0.5,0.3,0.7,0.2c0.1,0.2,0.2,0.2,0.2,0.4c0.1,0,0-0.1,0.1-0.1c0.1,0.2,0.3,0.2,0.6,0.3v-0.1
				c0.1,0.1,0.1,0.2,0.2,0.1c-0.1,0.1,0.1,0.1,0.1,0.2c-0.1,0-0.1,0-0.1,0.1c0.1,0,0,0.2,0.1,0.2c0.2,0,0.3,0,0.4,0.1
				c-0.1,0-0.2-0.1-0.3-0.1c0,0.2,0.2,0.1,0.3,0.2c0.1-0.1,0.2,0,0.3-0.1c0,0.1,0.1,0.1,0.1,0.2c0.3-0.1,0.4,0.1,0.7,0.2
				c0-0.1,0.1,0,0.2,0c0.1,0,0-0.1,0.1-0.1c0.1,0,0.3,0.2,0.3,0c-0.3-0.1-0.7-0.1-0.8-0.5c-0.3,0.1-0.3,0-0.5-0.1
				c-0.1,0.1-0.1,0.1-0.1,0.1c-0.3,0-0.4-0.2-0.6-0.4c0.1,0,0.1-0.1,0.1-0.1c0.1,0.1,0.4,0.2,0.6,0.3c0-0.1-0.1-0.1-0.2-0.2
				c0.1,0,0.1-0.1,0.2-0.1c-0.3-0.1-0.6-0.3-0.9-0.4c0.1,0.2,0.1,0.2,0.1,0.4c-0.2-0.1-0.4-0.4-0.7-0.3c-0.3-0.5-1-0.2-1.3-0.7
				c-0.3,0-0.7-0.3-0.8-0.1c0,0,0-0.1-0.1-0.1l0,0c0,0,0,0,0,0.1c0,0.1,0.1,0.1,0.1,0.1c-0.1,0-0.1,0-0.1,0
				c-0.1-0.2-0.2-0.2-0.4-0.3c0,0.1,0.1,0.1,0,0.1c-0.2-0.1-0.3-0.3-0.6-0.3c-0.1-0.1-0.1-0.2-0.2-0.3c0,0.2,0.1,0.3,0.2,0.4
				c-0.1,0-0.1-0.1-0.2-0.2c-0.3,0-0.5-0.1-0.7-0.3c-0.3,0.1-0.6-0.1-0.8-0.3c0,0.1,0,0.1,0,0.1s0-0.1-0.1-0.1
				c-0.1,0.1,0.1,0.1,0,0.1c-0.1,0-0.1-0.1-0.2-0.1c0,0.1,0,0.1,0.1,0.2c0.2-0.1,0.3,0.2,0.4,0.1c0,0.1,0.1,0.1,0.1,0.1
				c0.1,0,0.1,0,0.2,0c0.3,0.3,0.8,0.3,1.2,0.6c0.4-0.1,0.7,0.3,1.1,0.3c0.1,0.2,0.3,0.2,0.4,0.3c-0.1,0-0.1,0-0.1,0
				c0.1,0.1,0.1,0,0.2,0c0,0.1-0.1,0.1,0,0.2c0,0,0-0.1,0.1-0.1c0,0.1,0,0.1,0,0.2c0.1,0,0.1,0.1,0.2,0
				C-247.1,396.5-247.1,396.4-247.1,396.2c-0.1,0.1-0.1,0.1-0.1,0H-247.1z M-243.1,397.9c0,0.1,0.2,0.2,0.2,0.1
				C-243,397.9-243,397.9-243.1,397.9z M-254.1,397.9c0,0.1-0.1,0.1-0.1,0.1C-254.2,397.9-254.1,397.9-254.1,397.9z M-243.9,397.8
				c-0.2,0-0.2-0.1-0.5-0.1c0,0,0,0,0-0.1C-244.2,397.6-244.1,397.7-243.9,397.8z M-254.4,397.6L-254.4,397.6L-254.4,397.6z
				 M-243,397.6v-0.1c-0.1,0-0.2-0.1-0.2-0.1s0,0.1-0.1,0.1c-0.2,0-0.7-0.4-0.8-0.2c-0.1,0-0.2-0.1-0.2,0c0,0,0.2,0.1,0.2,0
				C-243.6,397.4-243.4,397.4-243,397.6z M-243.7,397.6L-243.7,397.6C-243.7,397.5-243.7,397.5-243.7,397.6
				C-243.7,397.5-243.8,397.5-243.7,397.6C-243.8,397.5-243.8,397.6-243.7,397.6C-243.8,397.6-243.7,397.6-243.7,397.6L-243.7,397.6
				z M-245.9,397.4c0,0.1,0,0.1,0.1,0.1C-245.8,397.4-245.9,397.4-245.9,397.4z M-245.5,397.4C-245.5,397.4-245.6,397.4-245.5,397.4
				C-245.6,397.5-245.6,397.5-245.5,397.4C-245.6,397.5-245.5,397.5-245.5,397.4C-245.5,397.5-245.5,397.5-245.5,397.4z
				 M-253.9,397.3C-253.9,397.3-253.9,397.4-253.9,397.3c0.1,0.1,0.1,0.1,0.1,0.1C-253.8,397.4-253.8,397.3-253.9,397.3z
				 M-246.4,397.2c0,0.2,0.2,0.2,0.3,0.2c0-0.1-0.2-0.1-0.1-0.2c-0.1-0.1-0.2-0.1-0.3-0.1c0-0.1,0-0.1,0-0.1c0.2,0,0.3,0.1,0.4,0.2
				c0.2,0,0.3,0.2,0.6,0.1c-0.1,0-0.1-0.1-0.1-0.1c0.1,0,0.1,0.1,0.1,0c-0.1-0.2-0.5-0.3-0.6-0.2c-0.2-0.2-0.4-0.2-0.7-0.3
				c0,0,0,0.1-0.1,0.1c-0.1,0-0.3-0.2-0.4-0.1c-0.1-0.1-0.3-0.3-0.3-0.1c0-0.1-0.1,0.1-0.1,0c0,0,0,0,0-0.1
				c-0.2,0.1-0.3-0.1-0.4-0.1c-0.1,0,0-0.1-0.1-0.1c-0.1,0.1-0.2,0-0.3,0.1c0,0.1,0.1,0.1,0.1,0.1c0.1,0,0,0,0.1-0.1
				c0,0.1,0,0.1,0,0.1c0.2,0.1,0.3,0.2,0.6,0.1c0.3,0.2,0.8,0.3,1.1,0.6C-246.5,397.2-246.5,397.2-246.4,397.2
				S-246.3,397.2-246.4,397.2C-246.3,397.2-246.4,397.2-246.4,397.2z M-244.9,397.3L-244.9,397.3
				C-244.9,397.3-244.9,397.4-244.9,397.3C-244.9,397.4-244.9,397.4-244.9,397.3C-244.9,397.4-244.9,397.3-244.9,397.3z
				 M-244.8,397.2c0.1,0.1,0.1,0.1,0.2,0.1C-244.6,397.3-244.7,397.2-244.8,397.2z M-246.6,397.3L-246.6,397.3
				C-246.6,397.3-246.6,397.2-246.6,397.3z M-246.2,397.2C-246.2,397.2-246.3,397.2-246.2,397.2
				C-246.3,397.2-246.3,397.2-246.2,397.2z M-243.7,397.1c0,0.1,0,0.1,0.1,0.1C-243.6,397.1-243.6,397.1-243.7,397.1z M-245.2,397.1
				c-0.1,0-0.1-0.1-0.1-0.1C-245.1,397-245.1,397.1-245.2,397.1z M-244.6,397c0.1,0,0.1,0,0.1,0.1
				C-244.5,397.1-244.6,397.1-244.6,397z M-245,397C-245,397-245,397.1-245,397C-245,397.1-245.1,397.1-245,397z M-248.5,396.6
				C-248.5,396.6-248.5,396.7-248.5,396.6c0.5,0.1,0.9,0.6,1.3,0.4C-247.7,396.9-248.1,396.7-248.5,396.6z M-256.5,397
				C-256.4,397-256.4,397-256.5,397C-256.4,397-256.5,397-256.5,397z M-244.7,397c-0.1,0.1-0.2-0.1-0.3-0.2
				C-244.8,396.8-244.8,397-244.7,397z M-243.1,396.7c0,0.1,0.1,0.1,0.1,0.1C-242.9,396.7-243.1,396.8-243.1,396.7z M-243.3,396.7
				C-243.3,396.7-243.2,396.8-243.3,396.7C-243.1,396.6-243.3,396.6-243.3,396.7z M-246.5,396.6
				C-246.5,396.6-246.6,396.6-246.5,396.6C-246.6,396.7-246.6,396.7-246.5,396.6C-246.6,396.7-246.5,396.7-246.5,396.6
				C-246.5,396.7-246.5,396.7-246.5,396.6z M-245.3,396.7c0-0.3-0.3-0.1-0.4-0.3c-0.1,0-0.1,0-0.1,0c0,0.1,0,0.1,0.1,0.2
				c0.2,0,0.2,0.1,0.3,0.1v-0.1C-245.4,396.6-245.4,396.7-245.3,396.7z M-245.9,396.6L-245.9,396.6
				C-245.9,396.6-245.9,396.7-245.9,396.6C-245.9,396.7-245.9,396.7-245.9,396.6C-245.9,396.7-245.9,396.6-245.9,396.6z
				 M-249.1,396.4c0.1,0.1,0.3,0.3,0.5,0.2C-248.8,396.5-248.9,396.4-249.1,396.4z M-247.9,396.6c-0.1,0-0.1,0-0.2-0.1
				C-248.1,396.4-247.9,396.5-247.9,396.6z M-246.7,396.4C-246.8,396.5-246.7,396.6-246.7,396.4
				C-246.7,396.5-246.6,396.4-246.7,396.4z M-246.6,396.4c0.1,0,0,0.2,0.2,0.1C-246.5,396.5-246.6,396.3-246.6,396.4z M-241.9,396.2
				c-0.1,0.1,0,0.2-0.1,0.2c0.1,0,0,0.1,0.1,0.1C-241.8,396.4-241.8,396.3-241.9,396.2z M-249.2,396.3c-0.1,0-0.2,0-0.2,0
				C-249.4,396.4-249.3,396.4-249.2,396.3C-249.2,396.4-249.2,396.4-249.2,396.3z M-249.5,396c0.2,0,0.1,0.2,0.3,0.2
				c0.2-0.2,0.4,0.4,0.6,0.2c-0.1,0-0.1-0.1,0-0.2c-0.2,0-0.3-0.1-0.4-0.2c0,0.1,0,0.1,0,0.1c-0.2-0.1-0.4-0.3-0.6-0.4
				c-0.1,0.1-0.1,0.2-0.3,0.1C-249.9,396-249.7,396-249.5,396C-249.5,396-249.6,396-249.5,396z M-243.2,396.4
				C-243.3,396.4-243.2,396.3-243.2,396.4C-243.3,396.4-243.3,396.4-243.2,396.4z M-246.9,396.3C-246.9,396.3-247,396.3-246.9,396.3
				C-246.9,396.4-246.9,396.4-246.9,396.3L-246.9,396.3z M-256.6,396.3C-256.6,396.4-256.6,396.4-256.6,396.3
				C-256.6,396.4-256.6,396.4-256.6,396.3z M-249.5,396.3c0,0,0.1,0.1,0.1,0C-249.3,396.3-249.5,396.3-249.5,396.3z M-249.8,396.3
				c0,0.1-0.1,0-0.1,0H-249.8z M-256.6,396.3L-256.6,396.3L-256.6,396.3z M-242.1,394.2C-242.1,394.3-242,394.2-242.1,394.2
				c-0.1-0.2-0.2-0.4-0.3-0.6c-0.1,0.4,0.1,0.9-0.1,1.2c0.1,0.2,0.1,0.4,0.1,0.6c0,0,0.1,0,0.1,0.1c0,0.3-0.2,0.6,0.1,0.8
				c0,0,0-0.2,0-0.3c0.1,0.1,0,0.2,0.2,0.2c0-0.1-0.1-0.3-0.1-0.5c0.1-0.4-0.3-0.6-0.2-1.1c0.1,0.3,0.2,0.7,0.5,1
				C-241.9,395.3-241.9,394.6-242.1,394.2c0,0.1,0,0.1,0,0.2C-242.2,394.4-242.2,394.2-242.1,394.2z M-256.6,396.3L-256.6,396.3
				C-256.7,396.3-256.7,396.3-256.6,396.3z M-247.6,396c0.1,0,0.4,0,0.4,0.2C-247.4,396.2-247.5,396.1-247.6,396z M-250.3,396.1
				C-250.3,396.1-250.2,396.2-250.3,396.1C-250.2,396.1-250.3,396.1-250.3,396.1z M-246.6,396.1
				C-246.5,396.1-246.7,396.1-246.6,396.1L-246.6,396.1L-246.6,396.1z M-241.4,395.8c0,0.1-0.1,0.3,0.1,0.3
				C-241.4,396-241.3,395.9-241.4,395.8z M-248.2,396.1C-248.2,396-248.3,396-248.2,396.1C-248.3,396.1-248.3,396.1-248.2,396.1
				C-248.3,396.1-248.2,396.1-248.2,396.1z M-241.9,395.7c-0.1,0.1,0,0.3,0.1,0.3C-241.8,395.9-241.9,395.8-241.9,395.7z
				 M-242.8,395.7c-0.1,0-0.1,0-0.1,0.1c0.1,0-0.1,0.2,0.1,0.2C-242.9,395.9-242.8,395.9-242.8,395.7z M-256.5,395.8
				C-256.5,395.9-256.5,396-256.5,395.8C-256.4,395.9-256.4,395.8-256.5,395.8z M-250.5,395.9C-250.6,395.9-250.6,395.9-250.5,395.9
				C-250.6,395.9-250.6,395.9-250.5,395.9C-250.6,395.9-250.6,395.9-250.5,395.9L-250.5,395.9z M-248.7,395.9L-248.7,395.9
				C-248.7,395.9-248.8,395.9-248.7,395.9z M-250.4,395.7c0.1,0.1,0.2,0.1,0.4,0.1C-250,395.7-250.4,395.6-250.4,395.7z
				 M-251.8,395.7c-0.1,0.1-0.2,0-0.2-0.1C-251.9,395.6-251.9,395.7-251.8,395.7z M-241.8,395.8
				C-241.8,395.8-241.8,395.7-241.8,395.8C-241.8,395.7-241.8,395.8-241.8,395.8z M-256.4,395.6
				C-256.4,395.7-256.4,395.7-256.4,395.6C-256.4,395.7-256.4,395.6-256.4,395.6z M-252.3,395.6c0.1,0,0-0.1,0-0.1
				c0.1,0,0.1,0.1,0.2,0.1c-0.1,0.1-0.3-0.1-0.4,0c-0.1,0-0.1-0.1-0.1-0.1C-252.4,395.5-252.4,395.6-252.3,395.6z M-250.9,395.6
				C-250.9,395.6-250.9,395.7-250.9,395.6C-250.8,395.6-250.8,395.6-250.9,395.6z M-253,395.7c-0.1,0-0.2-0.1-0.3-0.1
				C-253.2,395.6-253.1,395.6-253,395.7z M-254.4,395.6L-254.4,395.6C-254.3,395.6-254.4,395.5-254.4,395.6z M-251.2,395.6
				c-0.1,0.1-0.1-0.1-0.1-0.1C-251.2,395.5-251.3,395.6-251.2,395.6z M-246.7,395.5c0,0.1,0.1,0.1,0.2,0.1
				C-246.5,395.5-246.7,395.4-246.7,395.5z M-256.5,395.5C-256.5,395.5-256.4,395.6-256.5,395.5
				C-256.4,395.5-256.5,395.4-256.5,395.5z M-254.5,395.3C-254.6,395.4-254.6,395.4-254.5,395.3c0,0.2,0,0.2,0.1,0.2
				C-254.4,395.4-254.4,395.3-254.5,395.3z M-248.6,395.5C-248.5,395.5-248.5,395.5-248.6,395.5
				C-248.5,395.4-248.6,395.4-248.6,395.5z M-256.6,395.4L-256.6,395.4C-256.5,395.4-256.6,395.3-256.6,395.4z M-241.5,395.2
				c0,0.1,0,0.2,0.1,0.2C-241.4,395.3-241.5,395.3-241.5,395.2z M-254,395.2c-0.1,0.1,0,0.1,0.1,0.1
				C-253.9,395.3-253.9,395.3-254,395.2z M-252.3,395.2c0.1,0,0.1,0.1,0.2,0.1C-252.2,395.3-252.4,395.3-252.3,395.2z M-253.3,395.2
				C-253.3,395.2-253.4,395.2-253.3,395.2C-253.4,395.2-253.4,395.2-253.3,395.2C-253.4,395.2-253.3,395.2-253.3,395.2L-253.3,395.2
				z M-253,395.2c0,0,0.1,0,0.1-0.1C-253,395.2-253.1,395.1-253,395.2z M-256.7,395c0,0.1,0,0.2,0.1,0.2
				C-256.6,395.1-256.6,395-256.7,395z M-241.3,395.2L-241.3,395.2C-241.2,395.1-241.4,395.1-241.3,395.2z M-241.2,395
				c-0.1,0-0.1,0-0.1,0C-241.3,395-241.3,395.1-241.2,395C-241.2,395.1-241.2,395-241.2,395z M-241.5,395.1
				C-241.5,395-241.5,395-241.5,395.1C-241.6,395-241.6,395.1-241.5,395.1z M-248.2,395c0-0.1-0.2-0.1-0.3-0.2c0,0.1,0,0.1,0,0.1
				C-248.3,395-248.3,395-248.2,395z M-253,395C-252.9,394.9-253.1,394.9-253,395L-253,395L-253,395z M-242.9,394.8
				C-243,394.9-243,394.8-242.9,394.8C-243,394.9-243,394.9-242.9,394.8C-242.9,394.9-242.9,394.9-242.9,394.8z M-256.6,394.8
				L-256.6,394.8C-256.6,394.8-256.7,394.8-256.6,394.8C-256.7,394.8-256.6,394.8-256.6,394.8z M-243,394.6c0,0.1,0,0.1,0.1,0.2
				C-243,394.8-242.9,394.6-243,394.6z M-251.5,394.5c0,0.1,0.1,0.2,0.1,0.2S-251.4,394.6-251.5,394.5z M-250.8,394.7
				C-250.8,394.7-250.9,394.7-250.8,394.7C-250.8,394.7-250.8,394.8-250.8,394.7L-250.8,394.7z M-248.3,394.7
				C-248.4,394.7-248.4,394.8-248.3,394.7L-248.3,394.7z M-256.6,394.5C-256.6,394.6-256.6,394.6-256.6,394.5
				C-256.6,394.6-256.6,394.5-256.6,394.5z M-243,394.5C-243,394.5-243,394.6-243,394.5L-243,394.5z M-249,394.6
				C-249,394.5-249,394.5-249,394.6C-249,394.5-249,394.5-249,394.6C-249,394.5-249,394.5-249,394.6L-249,394.6L-249,394.6z
				 M-242.1,394.6c0.1,0,0-0.2,0-0.2C-242.2,394.4-242.1,394.5-242.1,394.6z M-249.4,394.3c0,0.1,0.1,0.2,0.2,0.1
				C-249.2,394.4-249.3,394.3-249.4,394.3z M-250.6,394.3L-250.6,394.3C-250.6,394.4-250.6,394.4-250.6,394.3
				C-250.6,394.4-250.6,394.4-250.6,394.3C-250.6,394.4-250.6,394.4-250.6,394.3z M-253.3,394.1c0,0.1,0,0.2,0.1,0.1
				c0-0.1,0-0.1,0-0.2c-0.1,0-0.1,0-0.2-0.1c-0.1,0.2-0.1-0.1-0.2,0c0,0.1,0,0.1,0,0.1C-253.5,394.2-253.4,394.1-253.3,394.1
				C-253.4,394.2-253.4,394.2-253.3,394.1z M-249.6,394.2C-249.7,394.2-249.7,394.1-249.6,394.2
				C-249.7,394.2-249.7,394.2-249.6,394.2C-249.7,394.2-249.7,394.2-249.6,394.2L-249.6,394.2z M-256.4,394.1V394
				C-256.5,394-256.5,394.2-256.4,394.1C-256.4,394.2-256.4,394.1-256.4,394.1z M-256.7,393.9C-256.7,394-256.7,394-256.7,393.9
				C-256.7,394-256.7,393.9-256.7,393.9z M-256.8,393.8l0.1,0.1c-0.1,0-0.1,0-0.2,0C-256.9,393.9-256.8,393.9-256.8,393.8z
				 M-256.7,393.7c-0.1,0.1-0.1,0-0.2,0C-256.9,393.6-256.8,393.7-256.7,393.7z M-256.8,393.6c-0.1,0.1-0.1-0.1-0.1-0.1
				C-256.9,393.4-256.8,393.5-256.8,393.6z M-242.4,393.5L-242.4,393.5C-242.4,393.4-242.4,393.5-242.4,393.5
				C-242.5,393.5-242.4,393.6-242.4,393.5L-242.4,393.5z M-251.5,393.4C-251.5,393.5-251.6,393.4-251.5,393.4L-251.5,393.4z
				 M-256.1,393.4L-256.1,393.4L-256.1,393.4z M-256,393C-256.1,393.2-256.1,392.9-256,393c-0.1,0.1-0.1,0.1-0.2,0.1
				c0,0.1,0,0.2,0.1,0.4C-256.1,393.2-255.9,393.1-256,393z M-256.6,393L-256.6,393C-256.5,393.1-256.5,393.1-256.6,393
				C-256.5,393-256.6,393-256.6,393z M-256.8,392.7L-256.8,392.7c0,0.1-0.1,0.3,0,0.3C-256.8,392.9-256.7,392.9-256.8,392.7z
				 M-256.6,392.8C-256.6,392.9-256.6,393-256.6,392.8C-256.5,392.9-256.5,392.9-256.6,392.8z M-256.1,392.7c0.1,0,0,0.1,0.1,0.1
				C-255.9,392.7-256.1,392.6-256.1,392.7z M-256.4,392.7c0,0.1,0.1,0.1,0.1,0C-256.3,392.7-256.4,392.7-256.4,392.7z M-254,392.8
				C-254.1,392.8-254,392.7-254,392.8C-254.1,392.7-254.1,392.8-254,392.8z M-254.5,392.7c0,0,0.1,0.1,0.1,0
				S-254.5,392.6-254.5,392.7z M-256.8,392.4c-0.1,0.1,0,0.1-0.1,0.2l0.1,0.1C-256.8,392.6-256.7,392.5-256.8,392.4z M-256,391.8
				c-0.1,0-0.1,0-0.1-0.1c-0.1,0-0.1,0-0.1,0c0.1,0.1,0.3,0.4,0.2,0.5c0-0.1-0.1-0.1-0.1-0.1c0,0.1,0.1,0.2,0,0.3
				c0.1,0,0.1,0,0.1,0.1h-0.1c0,0.1,0.1,0.2,0.2,0.2C-256.1,392.4-255.9,392-256,391.8C-256.1,391.8-256,391.8-256,391.8z
				 M-256.4,392.5C-256.5,392.5-256.4,392.5-256.4,392.5C-256.5,392.5-256.5,392.5-256.4,392.5z M-255.2,392.1c-0.1,0-0.1,0.3,0,0.3
				C-255.1,392.4-255.2,392.3-255.2,392.1z M-255.6,392.3C-255.6,392.4-255.5,392.3-255.6,392.3L-255.6,392.3z M-256.8,392.3
				L-256.8,392.3L-256.8,392.3z M-256.6,392.3L-256.6,392.3C-256.5,392.3-256.7,392.3-256.6,392.3z M-256.9,392c0,0.1,0,0.1,0,0.1
				c-0.1-0.1-0.1,0-0.1,0c-0.1,0,0-0.1-0.1-0.2C-257.1,391.9-257,392-256.9,392z M-256.3,392L-256.3,392
				C-256.2,392-256.4,392-256.3,392z M-256.4,392C-256.4,392-256.4,391.9-256.4,392C-256.4,391.9-256.4,392-256.4,392z
				 M-256.1,391.8L-256.1,391.8C-256.1,391.9-256.1,391.9-256.1,391.8z M-256.5,391.6C-256.4,391.6-256.4,391.7-256.5,391.6
				C-256.3,391.6-256.5,391.6-256.5,391.6z M-255.4,391.6C-255.5,391.6-255.4,391.7-255.4,391.6L-255.4,391.6
				C-255.4,391.6-255.5,391.6-255.4,391.6z M-255.1,391.6C-255.1,391.6-255.1,391.7-255.1,391.6L-255.1,391.6z M-256.1,391.5
				c0,0.1,0,0.1,0.1,0.1C-256.1,391.6-256,391.5-256.1,391.5z M-257,391.5C-257,391.5-256.9,391.5-257,391.5
				C-256.9,391.5-256.9,391.5-257,391.5C-256.9,391.5-257,391.5-257,391.5L-257,391.5z M-255.6,391.5L-255.6,391.5
				C-255.5,391.4-255.7,391.4-255.6,391.5z M-257,391.4C-257.1,391.4-257.1,391.4-257,391.4C-257.1,391.4-257.1,391.4-257,391.4
				C-257.2,391.4-257,391.4-257,391.4z M-256.2,391.4c0,0,0.1,0.1,0.1,0C-256.2,391.4-256.2,391.3-256.2,391.4z M-255.7,390.8
				c0,0.2,0.1,0.3,0,0.4c0.1,0,0.1,0.2,0.2,0.2C-255.6,391.2-255.6,390.8-255.7,390.8z M-256.1,391.2L-256.1,391.2
				C-256.1,391.2-256.1,391.3-256.1,391.2C-256.1,391.3-256.1,391.3-256.1,391.2C-256.1,391.3-256.1,391.2-256.1,391.2z M-257,390.8
				c-0.1,0.1,0,0.2,0.1,0.2c0,0.1-0.1,0-0.2,0c0.1-0.1,0-0.1,0-0.3C-257.1,390.7-257.1,390.8-257,390.8z M-256.3,390.4
				c0,0.2-0.1,0.4,0.1,0.6C-256.2,390.8-256.1,390.5-256.3,390.4z M-255.6,390.8L-255.6,390.8C-255.4,390.7-255.6,390.7-255.6,390.8
				z M-255.7,390.3c0,0.2,0,0.3,0.1,0.4C-255.5,390.6-255.6,390.3-255.7,390.3z M-256.2,389.3C-256.2,389.3-256.2,389.4-256.2,389.3
				C-256.2,389.4-256.1,389.3-256.2,389.3z"/>
			<path class="st3" d="M-260.1,376c0.1,0-0.1,0.1,0,0.1c0.2,0,0.5,0.1,0.5,0.2c0.1,0,0.3-0.1,0.3,0.1c0.1,0,0.1-0.1,0.1-0.1
				c0.5,0.2,0.9,0.5,1.7,0.4c0.2,0.1,0.4,0.4,0.6,0.3c0.2,0.1,0.3,0.1,0.6,0.1c0,0.1,0.1,0.1,0.2,0.1c0,0.1-0.1,0-0.1,0.1
				c0.2,0.1,0.3,0.2,0.5,0.3c0.1-0.1,0.3-0.1,0.4-0.1c-0.2-0.1-0.5-0.1-0.7-0.1c0.1-0.1,0.3,0,0.5-0.1c-0.3-0.1-0.6-0.2-0.9-0.2
				c0-0.2,0.1-0.1,0.2,0c0.1,0,0.1-0.1,0.1-0.1c0.4,0.1,0.8,0.2,1.1,0.5c0.3-0.1,0.5,0.1,0.8,0.2c0-0.1-0.1-0.1-0.1-0.1
				c-0.3,0-0.4-0.3-0.6-0.2c-0.1,0-0.1-0.1-0.1-0.2c-0.1,0-0.1,0-0.2,0c0.1-0.1,0-0.1,0-0.1c-0.1,0.1-0.2-0.1-0.3-0.1
				c0.2-0.1,0.5,0.3,0.7,0.1c0.2,0.3,0.6,0.1,0.8,0.5c0.6,0.1,1.1,0.5,1.7,0.6c0,0.2,0.4,0.2,0.5,0.1c0.3,0.1,0.4,0.3,0.7,0.4
				c0,0.1,0,0.2,0.2,0.2c0,0.1-0.1,0-0.1,0.1c0.1,0.1,0.4,0.1,0.5,0c0-0.1-0.1,0-0.2-0.1c0.1,0,0.4,0,0.5,0.1c0,0.2-0.1,0.1-0.3,0.1
				c0.2,0.2,0.5,0.1,0.7,0.1c0,0.1-0.1,0.1-0.2,0.1c0.2,0.1,0.6,0,0.8,0.3c0.2,0,0.4,0,0.6,0.1c0.1-0.1,0.2,0,0.4,0
				c0.1,0.4,0.6,0.3,0.7,0.7c0.3,0,0.4,0.2,0.6,0.3c0.3,0,0.6,0.2,1,0.3v0.1c0.2,0,0.3,0.1,0.5,0.2c0.1,0,0-0.1,0-0.2
				c0.7,0.4,1.3,0.8,2,1.1c0.5,0.1,0.7,0.4,1.3,0.5c0.1,0.1,0.3,0.1,0.4,0.3c0,0,0.1-0.1,0.1,0c0.1,0.1,0.3,0,0.3,0.2
				c1,0.3,1.8,0.9,2.6,1.4c0.3,0.3,0.6,0.7,0.9,1c-0.1,0.1,0.1,0.2,0.1,0.3c0.5,0,0.6,0.8,0.6,1.1c0,0.1,0.1,0.2,0.2,0.3
				c-0.1,0-0.1,0.2,0.1,0.2c0,0.1-0.1,0.1-0.1,0.1c0.2,0.3,0.2,0.8,0.1,1.1c-0.3,0-0.3,0.3-0.5,0.6c-0.2,0-0.3,0.1-0.4,0.2
				c-0.3,0-0.5,0.1-0.7,0.2c0.1-0.1,0.2-0.1,0.3-0.2c0,0,0,0,0-0.1c0.1,0,0.1,0.1,0.1,0s-0.2,0-0.2-0.1c-0.3,0.4-0.7,0.5-1.3,0.6
				c0-0.1,0-0.1,0-0.1c-0.1,0-0.1,0.1-0.1,0.1c-0.4-0.1-0.6,0.1-1,0c-0.1,0-0.1,0.1-0.1,0.1c-0.4,0-1.1,0-1.6,0.1
				c-1.1,0-2.6-0.2-3.8-0.1c-0.5-0.1-0.9,0-1.4,0c-0.4-0.1-1-0.1-1.4,0c-0.1,0-0.1-0.2-0.1-0.1v-0.1c-0.2,0.1-0.5-0.1-0.6,0.1
				c-0.3-0.2-0.8-0.1-1.2-0.2c-0.3-0.1-0.7,0-0.9,0c-0.2-0.1-0.5,0.1-0.8,0c-0.3-0.1-0.8-0.1-1.1-0.1c-0.1-0.1-0.2,0-0.3-0.1
				c0.2-0.4-0.7-0.3-0.5-0.8c-0.2-0.2-0.3-0.7-0.2-1c0.1,0,0.2,0,0.3,0c0,0,0,0,0.1,0c0-0.3-0.3-0.3-0.2-0.6c0.1-0.1,0.1,0.1,0.1,0
				c-0.2-0.3,0-0.6,0.2-0.8c0.1,0,0.1,0.1,0.2,0.2c0.7,0.1,1.5,0.1,2.3,0.2c0.9,0.1,1.8,0.1,2.7,0.3c0.4-0.1,0.6,0.2,1,0.1
				c0.1,0.1,0.2,0,0.2,0.1c0.1,0,0.3,0,0.3-0.1c0.2-0.1,0.4,0,0.6,0.1c0.1,0,0-0.1,0-0.1c0.3-0.1,0.7,0.2,0.9,0.1
				c0-0.1-0.2,0-0.2-0.1c0.3,0.1,0.4,0.2,0.8,0.2c0-0.1-0.1-0.1-0.1-0.2c0.1,0,0.2,0.1,0.3,0.1c-0.4,0.3,0.1,0.2,0.6,0.2
				c0-0.1-0.1-0.1-0.1-0.2c-0.1,0-0.1,0-0.1,0.1c-0.1,0-0.3,0-0.4-0.1c-0.1,0,0,0.1,0,0.1c-0.2,0-0.5-0.1-0.6-0.2
				c0.2,0,0.6,0,0.7,0.1c0.4-0.1,0.5,0,0.9,0.1c0,0.1-0.1,0-0.2,0.1c0.1,0.1,0.4,0.1,0.6,0.1c0-0.1-0.2-0.1-0.3-0.1
				c0-0.2-0.2-0.1-0.3-0.2c0.1,0.1,0.3,0,0.4,0l0.1,0.1l0.1-0.1l0.1,0.1c0.3,0.1,0.6-0.2,0.7,0.1c0.3-0.1,0.6-0.1,0.9,0
				c0.1,0,0,0,0-0.1c0.3,0.1,0.5-0.1,0.8-0.1c0,0,0,0.1,0.1,0.2c0.1-0.1,0.2,0,0.2,0.1c0.1-0.1,0.2-0.1,0.4-0.1
				c0-0.1-0.2-0.2-0.3-0.1c-0.1,0-0.2-0.1-0.3-0.2c0.2,0,0.4,0,0.6,0.1c0,0.1,0,0.1,0,0.1c0.1-0.1,0.1-0.1,0.3-0.2
				c0-0.1-0.1-0.1-0.1-0.1c0-0.1,0.1,0,0.1,0c-0.7-0.5-1.4-1-2.1-1.3c-0.1-0.3-0.6-0.3-0.8-0.5c-0.1,0-0.1,0-0.1,0
				c-0.1-0.1-0.1-0.1-0.2-0.2c-0.6-0.1-0.8-0.3-1.2-0.6c-0.1,0-0.1,0-0.1,0c-0.1-0.3-0.5-0.2-0.6-0.5c-0.1,0.1-0.2,0-0.3,0.1
				c-0.1,0-0.1-0.1,0-0.1c-0.2-0.1-0.2-0.4-0.5-0.4c-0.1,0-0.1,0.1-0.1,0.1c-0.2-0.1-0.4-0.2-0.7-0.3v-0.1c-0.3-0.1-0.5-0.4-0.9-0.4
				v-0.1c-0.4-0.2-0.8-0.3-1.3-0.6c-0.1,0-0.2,0-0.3,0s-0.1-0.1-0.3-0.1c0-0.1,0.1,0,0.2-0.1c-0.1-0.1-0.3-0.1-0.4-0.3
				c-0.1,0,0,0.1-0.1,0.1v-0.1c-0.1-0.1-0.6-0.1-0.6-0.3c-0.2,0-0.3,0-0.4-0.1c0,0-0.1,0-0.1,0.1c-0.2-0.2-0.8,0-0.8-0.4
				c-0.1,0-0.1-0.1-0.2,0c0-0.2,0.1-0.1,0.2-0.1c0,0-0.2-0.1-0.2,0c-0.1,0,0-0.1,0-0.1c-0.1,0-0.2-0.1-0.3-0.1c0-0.1,0,0,0.1,0
				c-0.1-0.1-0.2-0.1-0.3-0.2c-0.1,0-0.1,0.1-0.3,0.1c0,0.1,0.1,0.1,0.2,0.1c0,0.1,0,0.1,0,0.1c-0.5-0.1-0.8-0.3-1.3-0.5
				c0.2-0.1,0.5,0.1,0.7,0.1c0-0.1,0.1-0.2,0-0.2c-0.3,0-0.7-0.1-1,0c0-0.1-0.1,0-0.1-0.1c-0.6-0.1-1-0.3-1.5-0.6
				c0.1-0.1,0.1,0,0.2,0.1c0.1-0.1-0.2-0.2-0.3-0.3c-0.1,0.1,0.2,0.1,0.1,0.2c-0.3-0.1-0.6-0.2-1-0.4c-0.4,0.1-0.7-0.3-1-0.4
				c0.1,0,0.1,0,0.1,0c-0.1-0.1-0.3-0.2-0.4-0.1c-0.3-0.2-0.7-0.4-1-0.6c0.1,0,0.1,0,0.1-0.1c-0.1,0-0.1,0-0.1,0.1
				c-0.6-0.3-1.1-0.7-1.8-1c0-0.1,0-0.1,0-0.1c-0.3,0-0.4-0.3-0.7-0.3c0.1-0.1-0.1-0.2-0.3-0.2c-0.2-0.2-0.5-0.4-0.8-0.5l0,0
				C-261.4,375.4-260.8,375.9-260.1,376z M-239.9,389.4C-239.9,389.4-239.9,389.5-239.9,389.4C-239.8,389.4-239.8,389.4-239.9,389.4
				z M-241.6,389.3L-241.6,389.3L-241.6,389.3C-241.6,389.4-241.6,389.4-241.6,389.3L-241.6,389.3z M-238.6,389.1
				C-238.4,389.2-238.5,389-238.6,389.1L-238.6,389.1z M-241.1,389.1C-241.1,389.1-241.1,389-241.1,389.1L-241.1,389.1L-241.1,389.1
				L-241.1,389.1z M-237.6,388.8C-237.5,388.8-237.6,388.7-237.6,388.8C-237.6,388.7-237.6,388.7-237.6,388.8z M-240.3,388.6
				c0.3-0.1,0.8-0.1,1-0.2C-239.6,388.4-240,388.5-240.3,388.6z M-237.5,388.6L-237.5,388.6C-237.6,388.6-237.6,388.6-237.5,388.6z
				 M-243,388.6C-243,388.5-243,388.5-243,388.6C-243,388.5-243,388.6-243,388.6z M-243.1,388.5c-0.1-0.1-0.7-0.1-0.8,0
				c0.1,0,0.1-0.1,0.3,0C-243.5,388.4-243.2,388.6-243.1,388.5z M-240,388.3c0.1,0,0.1,0.1,0.1,0.1c0.1-0.1,0.2,0,0.1-0.1
				c0.1,0,0.1,0,0.2,0.1c0-0.2,0.2-0.2,0.3-0.2c0-0.1-0.3-0.1-0.4-0.1c-0.1,0.1,0,0.1-0.1,0.2c-0.1-0.1-0.3-0.1-0.4,0
				c-0.3-0.1-0.4,0-0.6,0.1c-0.3-0.1-0.8-0.1-1.1,0.1c0.1,0,0.1,0,0.2,0.1C-241.1,388.4-240.5,388.5-240,388.3z M-238.6,388.2
				c-0.1-0.1-0.2,0.1-0.2,0.2c0,0,0.1,0,0.2,0C-238.7,388.3-238.6,388.3-238.6,388.2z M-239.2,388.2c0.2,0,0.4-0.1,0.3-0.3
				C-239.1,387.9-239.1,388-239.2,388.2z M-246.1,387.6C-246.1,387.7-246,387.7-246.1,387.6L-246.1,387.6z M-237.2,387.6
				C-237.2,387.5-237.2,387.5-237.2,387.6C-237.2,387.5-237.2,387.6-237.2,387.6z M-241.4,387.2c-0.1,0-0.2,0.1-0.2,0.2
				c-0.1-0.1-0.3-0.1-0.3,0c-0.2-0.1-0.3-0.1-0.6-0.1c0,0,0,0,0,0.1c0.5,0.1,1,0.1,1.4,0C-241,387.2-241.4,387.4-241.4,387.2z
				 M-243.5,387.4c0.3,0.1,0.7,0.1,1,0C-242.8,387.3-243.3,387.2-243.5,387.4z M-240.9,387.4C-240.9,387.3-241,387.3-240.9,387.4
				C-241,387.4-241,387.4-240.9,387.4L-240.9,387.4z M-246.3,387.3c-0.3,0-0.3-0.1-0.6-0.1c0,0.1,0,0.1,0,0.1c-0.1-0.1-0.1,0-0.1,0
				c0-0.1-0.1-0.1-0.1-0.1c-0.1,0.1,0.1,0,0.1,0.1c-0.1,0-0.2-0.1-0.3-0.1c0,0.1-0.1,0-0.1,0.1c0.1,0.1,0.4,0.1,0.7,0.1
				C-246.7,387.3-246.4,387.5-246.3,387.3z M-244.4,387.4C-244.4,387.3-244.4,387.3-244.4,387.4
				C-244.4,387.3-244.4,387.4-244.4,387.4z M-241.5,387.3C-241.4,387.3-241.4,387.3-241.5,387.3
				C-241.5,387.4-241.5,387.3-241.5,387.3z M-247.9,387.2h0.1C-247.7,387.1-247.9,387.1-247.9,387.2z M-248.5,387.1L-248.5,387.1
				c-0.1,0-0.1,0-0.1,0.1C-248.6,387.2-248.5,387.2-248.5,387.1C-248.5,387.2-248.5,387.2-248.5,387.1z M-245.2,387.1
				C-245.3,387.1-245.3,387.1-245.2,387.1C-245.3,387.2-245.3,387.2-245.2,387.1C-245.3,387.2-245.3,387.2-245.2,387.1
				C-245.2,387.2-245.2,387.2-245.2,387.1z M-248.1,387.2c0,0,0.1,0,0.1-0.1C-248.1,387.1-248.1,387.1-248.1,387.2z M-247.8,387.1
				C-247.8,387-247.8,387-247.8,387.1C-247.8,387-247.8,387.1-247.8,387.1z M-248,386.9c0.1,0,0.1,0,0.1,0.1
				C-248,386.9-248,387-248,386.9z M-237.7,386.4C-237.7,386.4-237.7,386.3-237.7,386.4C-237.8,386.3-237.8,386.4-237.7,386.4z
				 M-244,384.1c-0.1,0.1-0.2-0.1-0.2,0.1c0.1,0,0.1,0.1,0.2,0.1C-244,384.2-244,384.2-244,384.1z M-245.5,383.8
				C-245.5,383.8-245.5,383.9-245.5,383.8c0.1,0.1,0.1,0.1,0.1,0C-245.4,383.8-245.4,383.8-245.5,383.8z M-245.8,383.8L-245.8,383.8
				L-245.8,383.8z M-244.6,383.5c0-0.2,0.1,0,0.2-0.1c-0.1-0.2-0.5-0.1-0.7-0.2c0,0.1-0.1,0-0.1,0.1c0.2,0,0.4,0.1,0.5,0.1
				C-244.6,383.4-244.6,383.5-244.6,383.5z M-245.3,383.1c0.1,0.1,0.3,0.1,0.4,0.1C-244.9,383.1-245.1,382.9-245.3,383.1
				c0-0.1,0-0.2-0.1-0.2C-245.4,383-245.3,383-245.3,383.1C-245.2,383.2-245.4,383.1-245.3,383.1z M-246,382.7c0,0.1,0.1,0.1,0.1,0
				C-245.9,382.7-245.9,382.7-246,382.7z M-244.2,382.5L-244.2,382.5C-244.2,382.6-244.2,382.6-244.2,382.5
				C-244.2,382.6-244.2,382.6-244.2,382.5C-244.2,382.6-244.2,382.6-244.2,382.5z M-246.6,382.3L-246.6,382.3
				C-246.6,382.3-246.6,382.4-246.6,382.3L-246.6,382.3z M-247.5,382C-247.5,382-247.6,382-247.5,382c0.3,0.2,0.5,0.3,0.9,0.3
				C-246.9,382.1-247.2,381.9-247.5,382c0.1-0.1,0.2,0,0.2-0.1c-0.1,0-0.3-0.1-0.3-0.2c-0.1,0-0.2,0.1-0.3,0v0.1
				c0.1,0,0.2,0,0.2,0.1C-247.7,381.8-247.7,381.9-247.5,382z M-249.1,382C-249.1,382.1-249.1,382.1-249.1,382
				C-249.1,382.1-249,382.1-249.1,382C-249,382.1-249.1,382-249.1,382z M-249.3,381.2c0.2,0.3,0.6,0.1,0.9,0.3
				c0.2-0.1,0.6,0,0.6-0.3c-0.5,0.2-1.2-0.3-1.7-0.3v0.1c0.1-0.1,0.3,0,0.3,0.1S-249.2,381.2-249.3,381.2z M-249.7,381.2
				c0,0.1,0.1,0.1,0.1,0C-249.6,381.2-249.6,381.2-249.7,381.2z M-248.1,381.3C-248,381.3-247.9,381.2-248.1,381.3
				C-248,381.2-248.1,381.2-248.1,381.3z M-246.4,381.2c0,0,0.1,0.1,0.1,0H-246.4z M-246.4,381C-246.4,381-246.5,381-246.4,381
				c0,0.1-0.1,0.1-0.1,0.1h0.1C-246.4,381.1-246.3,381-246.4,381z M-246.7,381C-246.7,380.9-246.7,380.9-246.7,381
				C-246.7,380.9-246.7,381-246.7,381z M-249.9,380.9c0.1,0,0.1,0.1,0.2,0C-249.7,380.8-249.9,380.8-249.9,380.9
				c0.1-0.2,0.5-0.2,0.7-0.2v-0.1c-0.1,0-0.1,0-0.1,0c0-0.1,0.1-0.1,0-0.1c-0.1,0-0.2,0.1-0.3-0.1c0.1,0,0.1,0,0.3,0
				c-0.4-0.1-0.7-0.2-1.1-0.3c-0.1-0.2-0.3-0.3-0.4-0.2c-0.1,0.1-0.5-0.1-0.6,0.1c-0.1,0-0.1,0-0.1-0.1c0.1-0.1,0.3-0.1,0.4-0.2
				c-0.3-0.1-0.8-0.1-1.1-0.4c0,0,0-0.1,0.1-0.1c0.1,0,0.1,0.1,0.2,0c-0.1-0.1-0.1-0.1-0.1-0.2c-0.6-0.1-0.8-0.5-1.4-0.5
				c0.1,0,0.1,0,0.2-0.1c-0.1-0.1-0.3-0.1-0.5-0.2c-0.1,0-0.1,0-0.2,0c-0.1-0.3-0.6-0.2-0.7-0.5c-0.1,0-0.1,0.1-0.1,0.1
				c-0.1-0.2-0.3-0.2-0.5-0.2c0.1,0.2,0.2,0.3,0.4,0.3c-0.3,0-0.3-0.2-0.5-0.2c0-0.1,0.1,0,0.1-0.1c-0.5,0-0.8-0.3-1.2-0.3
				c0.1-0.1,0.4,0,0.6-0.1c-0.1-0.1-0.2-0.1-0.3-0.1c0,0.1,0.1,0.1,0,0.1c-0.1,0-0.1-0.1-0.2-0.1c0,0.1-0.2,0-0.2,0.1
				c-0.1,0.1-0.3,0-0.4,0.1c0.4,0.1,0.8,0.5,1.1,0.4c0,0.1,0.3,0,0.2,0.3c0.6,0.2,1.1,0.6,1.8,0.6c0,0.1,0.1,0.1,0.2,0.1
				c0,0.1-0.2,0-0.2,0.1c0.1,0.1,0.1,0.1,0.2,0.2c0.6,0.1,1.1,0.3,1.6,0.7c0.1-0.1,0.3,0.1,0.3,0.2c0.2-0.1,0.4,0,0.6,0.1
				c0.1,0.2,0.3,0.3,0.5,0.4c0.1,0.2,0.3,0.2,0.5,0.1c0,0.1,0.1,0,0.1,0.1c-0.1,0-0.3-0.1-0.3,0c0.2,0,0.4,0.2,0.5,0
				c-0.1,0-0.1,0-0.2,0c0.1-0.1,0.2,0,0.3,0C-250.1,380.7-250,380.9-249.9,380.9L-249.9,380.9L-249.9,380.9z M-252,380.7
				C-252,380.7-252,380.8-252,380.7C-252,380.8-252,380.8-252,380.7z M-250,380.4c0.1,0,0.1,0.1,0.2,0c-0.1,0.1-0.3,0.1-0.5,0.1
				C-250.3,380.4-249.9,380.6-250,380.4z M-247.8,380.4C-247.8,380.4-247.8,380.5-247.8,380.4C-247.7,380.5-247.7,380.5-247.8,380.4
				C-247.7,380.4-247.7,380.4-247.8,380.4z M-247.9,380.3c-0.2,0.1-0.3-0.1-0.5-0.1c0,0-0.1,0.1,0,0.1c0.2,0.1,0.3,0.1,0.5,0.2
				C-247.9,380.3-247.9,380.3-247.9,380.3z M-250,380.3c-0.1,0-0.2,0-0.2-0.1L-250,380.3z M-252.7,380.2c0.1,0,0.1,0.1,0.2,0
				C-252.5,380.1-252.7,380.1-252.7,380.2z M-250.5,380.1c0,0.1,0.1,0,0.1,0.1c-0.1,0-0.3,0-0.5,0
				C-250.8,380.1-250.6,380.2-250.5,380.1z M-248.5,380.1C-248.6,380.1-248.6,380.1-248.5,380.1
				C-248.6,380.1-248.5,380.1-248.5,380.1L-248.5,380.1z M-253.9,379.8c0.1,0,0.1,0.1,0.1-0.1C-253.8,379.8-253.9,379.7-253.9,379.8
				z M-254.2,379.6C-254.2,379.6-254.3,379.7-254.2,379.6c0.1,0.2,0.1,0.1,0.3,0.2C-254,379.6-254.1,379.7-254.2,379.6z
				 M-254.5,379.5c-0.1-0.1-0.1,0-0.2,0.1c0.1,0,0.1,0.1,0.2,0.1C-254.5,379.6-254.5,379.5-254.5,379.5z M-249.7,379.5
				c-0.3-0.1-0.6-0.3-0.9-0.3c0-0.1-0.1-0.1-0.1-0.1c0.1,0,0.1,0.1,0.1,0.1C-250.4,379.4-250,379.6-249.7,379.5z M-254.7,379.4
				L-254.7,379.4c-0.1,0-0.1-0.1-0.2-0.1c0,0.1-0.1,0.1-0.1,0.1c0.1,0,0.1-0.1,0.1-0.1C-254.9,379.5-254.7,379.5-254.7,379.4z
				 M-252.4,379.4h-0.1C-252.6,379.3-252.4,379.3-252.4,379.4z M-255,379.2C-255.1,379.2-255.1,379.2-255,379.2
				C-255.1,379.2-255,379.2-255,379.2L-255,379.2z M-252.4,379.2c-0.1,0.1-0.1,0-0.2,0C-252.6,379.1-252.4,379.2-252.4,379.2z
				 M-250.8,379.1C-250.8,379-250.8,379-250.8,379.1C-250.8,379-250.8,379.1-250.8,379.1z M-256.3,378.8
				C-256.3,378.8-256.2,378.8-256.3,378.8L-256.3,378.8z M-252,378.5C-252,378.6-252.1,378.6-252,378.5c0.1,0.1,0.1,0.2,0.2,0.2
				C-251.8,378.6-251.9,378.5-252,378.5z M-255.2,378.7L-255.2,378.7L-255.2,378.7z M-256.8,378.7c0.1,0,0.1,0,0.1-0.1
				C-256.8,378.6-256.9,378.6-256.8,378.7z M-253.8,378.6c-0.1,0.1-0.3-0.2-0.5-0.1c-0.1,0-0.1-0.1-0.1-0.1
				C-254.2,378.5-254,378.5-253.8,378.6z M-251.5,378.5c0.1,0,0.1,0.1,0.2,0.1C-251.3,378.4-251.5,378.4-251.5,378.5z M-252.8,378.2
				c0.2,0.1,0.5,0.3,0.7,0.3C-252.4,378.4-252.6,378.1-252.8,378.2z M-257.4,378.4C-257.4,378.4-257.5,378.4-257.4,378.4
				L-257.4,378.4z M-254.5,378.3C-254.4,378.3-254.4,378.4-254.5,378.3C-254.5,378.4-254.5,378.4-254.5,378.3z M-254.3,378.3
				L-254.3,378.3L-254.3,378.3z M-254.6,378.3c0-0.1,0.2,0,0.2,0.1C-254.4,378.3-254.5,378.3-254.6,378.3z M-254.6,378.2
				c-0.1-0.1-0.3,0-0.3-0.1C-254.8,378.2-254.6,378.1-254.6,378.2z M-253,378.1C-253.1,378.2-253,378.2-253,378.1
				C-253,378.2-253,378.1-253,378.1z M-253.4,377.9c0,0.1,0.3,0.3,0.3,0.1C-253.2,378-253.3,378-253.4,377.9z M-255.2,378.1
				c0.1-0.1,0.3-0.1,0.3-0.1s0,0,0,0.1C-255,378.1-255.1,378.1-255.2,378.1z M-255.5,378L-255.5,378
				C-255.5,378.1-255.5,378-255.5,378z M-255.7,378c-0.1,0-0.1,0.1-0.1,0.1C-255.8,378-255.8,378-255.7,378z M-256,378
				C-256,377.9-255.9,378-256,378C-256,377.9-256.1,378-256,378z M-255.7,377.8C-255.7,377.9-255.7,377.9-255.7,377.8
				C-255.7,377.9-255.7,377.9-255.7,377.8C-255.8,377.8-255.7,377.8-255.7,377.8z M-253.8,377.7c-0.1-0.1-0.3,0-0.3,0.1
				c0.1,0,0.1,0.1,0.3,0.1C-253.9,377.8-253.8,377.8-253.8,377.7z M-254.7,377.7C-254.8,377.7-254.8,377.7-254.7,377.7
				C-254.8,377.7-254.8,377.7-254.7,377.7C-254.8,377.7-254.8,377.7-254.7,377.7L-254.7,377.7z M-256.8,377.3c0-0.1-0.1-0.1-0.1-0.1
				C-256.9,377.3-256.8,377.3-256.8,377.3z M-257.4,377.2c0.1,0,0.1-0.1,0.2-0.1c-0.2-0.3-0.7-0.3-1.1-0.3c0.2,0.1,0.5,0.3,0.6,0.2
				C-257.5,377-257.5,377.2-257.4,377.2z M-258.3,376.8C-258.4,376.7-258.4,376.9-258.3,376.8C-258.4,376.8-258.4,376.8-258.3,376.8
				L-258.3,376.8z M-257,376.6h-0.1c0,0,0.1,0,0.1,0.1C-257,376.7-257,376.7-257,376.6c0.2,0,0.2,0.1,0.3,0.2c0,0-0.1,0-0.1,0.1
				c-0.2-0.1-0.3-0.1-0.6-0.1h0.1c0-0.1-0.1-0.1-0.2-0.1C-257.3,376.5-257.1,376.6-257,376.6z M-257.5,376.6
				C-257.4,376.6-257.4,376.6-257.5,376.6C-257.4,376.6-257.4,376.6-257.5,376.6C-257.4,376.6-257.4,376.6-257.5,376.6L-257.5,376.6
				z M-255.7,376.5C-255.7,376.5-255.7,376.6-255.7,376.5C-255.7,376.6-255.7,376.6-255.7,376.5z"/>
			<path class="st3" d="M-256.3,366.9c0.1,0,0.1-0.1,0-0.1c0.7-0.8,1.7-1.2,2.7-1.6c0-0.1-0.1-0.2-0.2-0.2c-0.1,0,0.1,0.1,0.1,0.1
				c0,0.1-0.1-0.1-0.2,0c0,0.1,0.1,0,0.1,0.1c-0.2,0-0.6,0.3-0.8,0c0.6-0.1,1-0.3,1.7-0.2c-0.1,0-0.1,0.1-0.2,0.1
				c0.2,0.1,0.4,0,0.5-0.1c0-0.1-0.1,0-0.1-0.1c0.1-0.1,0.2,0,0.3,0v0.1c0.1,0,0-0.1,0-0.1c0.9-0.2,2.2-0.2,3,0c0.1-0.1,0.3,0,0.4,0
				c0.2,0.1,0.4,0.1,0.6,0.1c1.3,0.2,2.4,0.7,3.4,1.1c0.6,0.4,1.2,0.7,1.8,1.1c0.6,0.5,1.4,1,1.8,1.6c0.1,0,0.3,0.1,0.3,0.2
				c-0.1,0.1,0.3,0.3,0.4,0.5c0,0,0,0.1,0.1,0.2c0.1,0.1,0.2,0.3,0.3,0.5c0.1,0.1,0.2,0.3,0.2,0.4c0.2,0.7,0.6,1.4,0.4,2.3
				c0,0.1,0.1,0.1,0.1,0.2c-0.1,0.1,0,0.4-0.2,0.6c0,0.1,0.1,0.1,0.1,0.1c-0.2,0.5-0.5,1.1-0.8,1.5c0,0-0.1,0-0.1-0.1
				c-0.6,0.3-1,0.8-1.7,1.1c-0.3-0.1-0.6,0-0.8,0.1c-0.2-0.1-0.4,0.1-0.6,0.1c-1.3,0.2-2.8-0.1-4-0.5c0-0.1,0.1-0.2,0-0.3
				s-0.2-0.1-0.3-0.3l0.1-0.1c-0.4-0.3-0.7-0.6-1.2-0.8c-0.1,0.1-0.1,0.3,0.1,0.4c-0.1,0.1-0.2-0.2-0.4-0.2
				c-0.1-0.4-0.2-0.8-0.2-1.3c0.1-0.3,0.1-0.7,0.2-1c-0.2-0.5,0-0.9,0.2-1.2c0.5-0.2,0.8,0.2,0.9,0.5c0.1,0,0.1-0.1,0.1,0
				c0.1,0.3,0.6,0.3,0.6,0.7c0,0.1-0.1,0.1-0.1,0.1c0,0.1,0.1,0.1,0,0.2c0.6,0.8,2,1.4,3.1,1.4c0.8,0.1,1.4-0.1,1.9-0.2
				c0.5-0.1,0.9-0.1,1.2-0.5c0.1-0.8-0.3-1.5-0.7-1.9c0-0.1,0.1-0.1,0-0.1c-0.5-0.7-1.1-1.4-1.9-1.8v-0.1c-0.6-0.5-1.3-1-2.2-1.3
				v-0.1c-0.6-0.2-1.2-0.5-1.9-0.6c0-0.1-0.1-0.1-0.1-0.1c-1.2-0.1-2.4-0.4-3.6-0.2c-0.1,0-0.1-0.1-0.2-0.1c-0.2,0-0.3,0.1-0.4,0.1
				c0-0.1,0.1-0.1,0.2-0.1c-0.2-0.1-0.7,0.1-1,0.1c0,0.1-0.1,0.1-0.2,0.1c0-0.1,0.1,0,0.1-0.1c-0.1,0-0.2,0.1-0.4,0
				c-0.5,0.1-1,0.4-1.4,0.7c0,0.1,0,0.1,0,0.2h-0.1c0,0,0,0.1,0.1,0.1c0,0.1-0.1,0.1-0.1,0.2c0,0.8,0.6,1.4,0.8,2
				c0.2,0.1,0.1,0.4,0.3,0.4v0.1c0.1,0.1,0.2,0.2,0.3,0.2c-0.1,0.2,0.3,0.6,0.5,0.8c0,0.1,0,0.2,0,0.3c0.1,0.1,0.2,0,0.2,0.1
				c-0.1,0,0,0.1,0,0.1c0.1,0,0-0.1,0-0.1c0.3,0.1,0.6,0.3,0.6,0.7c0.3,0.1,0.6,0.3,0.8,0.6c-0.1,0-0.1-0.1-0.2,0
				c0.2,0.3,0.6,0.4,0.8,0.6c-0.3,0-0.6-0.2-0.8-0.3c0.3,0.2,0.6,0.4,0.8,0.7c-0.2,0.1-0.3-0.1-0.3-0.2c-0.2,0-0.3-0.1-0.4-0.1
				c0.1,0.4,0.8,0.3,0.8,0.6c0.3,0,0.4,0.3,0.6,0.5c0.1,0,0.2,0,0.3,0c0.3,0.7,1.2,0.7,1.7,1.1c0.1,0,0.1-0.1,0-0.1
				c0.2,0.1,0.5,0.1,0.6,0.3c-0.6,0-0.9-0.1-1.4-0.2c0-0.1,0-0.1,0-0.1c-0.2,0.1-0.4-0.3-0.7-0.1c0-0.1,0,0,0-0.1
				c-0.6-0.3-1.2-0.6-1.9-0.9c0-0.1-0.1-0.1,0-0.1c-0.1-0.1-0.2-0.1-0.3-0.2c0.1-0.1,0-0.1-0.1-0.1c0.1-0.1-0.1-0.1-0.2-0.1
				c0,0.1-0.1,0.1-0.1,0.2c-0.1,0-0.1-0.1-0.3-0.2c0-0.1,0.1-0.1,0.1-0.1c-0.6-0.3-0.9-0.7-1.4-1c0-0.1,0.2,0,0.2-0.1
				c0-0.1-0.2,0-0.2,0s0,0,0-0.1c0.1,0,0.1,0,0.1,0s0-0.1-0.1-0.1c-0.1,0,0,0.1,0,0.1s0,0,0,0.1c-0.1-0.1-0.3-0.2-0.4-0.4
				c0.1-0.1,0.1,0,0.1,0c0,0.1,0.1,0.1,0.1,0.1c0.1,0,0-0.1-0.1-0.1c0.1-0.2-0.3-0.3-0.2-0.5c-0.3-0.1-0.4-0.3-0.6-0.6
				c0.1,0,0.1,0,0.1,0c-0.1-0.3-0.4-0.4-0.6-0.6c0.1,0,0.1,0.1,0.2,0.1c-0.1-0.1-0.1-0.3-0.2-0.3c0.3-0.1,0.3,0.3,0.5,0.4
				c-0.1-0.5-0.9-0.6-1.1-1c0.1,0,0.2,0.1,0.1-0.1c0.1,0,0,0.1,0.1,0.1c0.1-0.2-0.2-0.6-0.4-0.4c0-0.1-0.1-0.1-0.1-0.2
				c0.1,0,0.1,0.1,0.1,0c-0.2-0.2-0.4-0.6-0.2-0.9c-0.2-0.3,0-0.6-0.1-0.9c0.1,0,0.1-0.1,0-0.1c0.1,0,0.1,0,0.1,0
				c0-0.3,0-0.5,0.1-0.6c0-0.1,0,0-0.1,0c0.1-0.5,0.5-0.9,0.7-1.4c0.4-0.4,0.8-0.8,1.4-1c0.1,0,0.2,0,0.3,0
				c-0.1,0.1-0.2,0.1-0.1,0.2c-0.6,0.3-1.1,0.6-1.4,1.1h-0.1c0,0.1,0,0.1,0,0.2C-256.3,366.8-256.3,366.8-256.3,366.9z
				 M-250.4,375.6c0,0.1,0.1,0.1,0.1,0.1C-250.3,375.6-250.3,375.5-250.4,375.6z M-251.5,375.7
				C-251.5,375.5-251.3,375.8-251.5,375.7L-251.5,375.7z M-251.6,375.5h-0.1C-251.7,375.5-251.6,375.5-251.6,375.5z M-252.3,375.2
				C-252.3,375.2-252.2,375.2-252.3,375.2C-252.2,375.2-252.2,375.3-252.3,375.2C-252.2,375.3-252.3,375.3-252.3,375.2
				C-252.3,375.3-252.3,375.2-252.3,375.2z M-240.7,375L-240.7,375C-240.8,375-240.8,375.1-240.7,375
				C-240.7,375.1-240.7,375.1-240.7,375C-240.7,375.1-240.7,375-240.7,375z M-252.3,375c0,0-0.1,0-0.1-0.1
				C-252.4,374.9-252.3,374.9-252.3,375C-252.3,374.9-252.3,375-252.3,375z M-252.7,374.8c0,0.1,0.1,0.1,0.1,0.1
				C-252.6,374.8-252.6,374.8-252.7,374.8z M-253.1,374.4c0-0.1-0.1-0.1-0.1-0.1C-253.1,374.3-253.1,374.4-253.1,374.4
				c0.3,0.1,0.5,0.4,0.6,0.3c-0.1-0.1-0.4-0.2-0.4-0.4c-0.1-0.1-0.2-0.1-0.3-0.3h0.1c-0.1,0-0.1,0.1-0.2,0.1c-0.1-0.1,0.1-0.1,0-0.1
				c-0.1,0-0.1,0-0.1-0.1c-0.1,0-0.1,0.1-0.1,0.1c0-0.2-0.2-0.1-0.1-0.2c-0.3,0-0.4-0.5-0.6-0.3c0.1,0,0.3,0.2,0.2,0.3
				C-253.7,374.1-253.4,374.2-253.1,374.4z M-240.5,374.6C-240.5,374.6-240.5,374.7-240.5,374.6
				C-240.4,374.6-240.4,374.6-240.5,374.6z M-240.3,374.4C-240.4,374.4-240.4,374.4-240.3,374.4
				C-240.4,374.5-240.4,374.5-240.3,374.4C-240.4,374.5-240.3,374.5-240.3,374.4z M-252.9,374.4c0,0.1-0.1,0-0.1-0.1
				C-253,374.3-253,374.3-252.9,374.4z M-252.3,374.1c0.1-0.2-0.2-0.2-0.2-0.3c-0.2,0-0.4-0.3-0.5-0.1c0.1,0.1,0.5,0.1,0.4,0.3
				C-252.5,373.9-252.5,374.1-252.3,374.1z M-249.6,373.9C-249.6,373.9-249.5,373.9-249.6,373.9L-249.6,373.9z M-254.2,373.9
				l-0.1-0.1C-254.3,373.8-254.2,373.8-254.2,373.9z M-254.6,372.1c-0.1,0-0.1-0.1-0.2-0.1c0.1,0.2,0.3,0.1,0.4,0.2
				c0,0.1,0,0.1,0,0.1c0.1,0,0.2,0,0.2,0.1c0,0.1-0.1,0-0.1,0.1c0.1,0.1,0.2,0.1,0.2,0.3c0.2-0.1,0.3,0,0.4,0.1
				c-0.1,0-0.2-0.1-0.3,0c0.4,0,0.6,0.3,0.9,0.5c-0.1-0.3-0.5-0.3-0.5-0.6c-0.6-0.4-1-1-1.5-1.4c0-0.1,0-0.1,0-0.1
				c-0.3-0.2-0.3-0.6-0.6-0.8c0,0.1,0,0.1-0.1,0.3c0.3,0.2,0.4,0.8,0.8,0.8c-0.1-0.1-0.2-0.2-0.2-0.3c0.1,0,0.1,0.1,0.1,0.1
				C-255,371.7-254.7,371.9-254.6,372.1z M-253.5,373.5C-253.5,373.4-253.5,373.4-253.5,373.5C-253.6,373.2-253.7,373.4-253.5,373.5
				C-253.6,373.4-253.5,373.5-253.5,373.5z M-254.3,373.3C-254.2,373.3-254.2,373.3-254.3,373.3
				C-254.1,373.2-254.3,373.2-254.3,373.3z M-254.5,373C-254.5,373.1-254.4,373.1-254.5,373C-254.4,373-254.5,373-254.5,373z
				 M-254.6,372.8L-254.6,372.8c0,0,0,0.1,0.1,0.2C-254.5,373-254.6,372.9-254.6,372.8z M-255,372.5c0,0.1,0.1,0.1,0.2,0.2
				C-254.8,372.6-254.9,372.5-255,372.5z M-255.5,372.6C-255.5,372.4-255.2,372.7-255.5,372.6L-255.5,372.6z M-255.4,372.5
				c0,0-0.1,0-0.1-0.1C-255.5,372.4-255.4,372.4-255.4,372.5z M-255.6,372.2C-255.5,372.2-255.5,372.3-255.6,372.2
				C-255.5,372.3-255.6,372.3-255.6,372.2z M-255.8,372.1C-255.7,372.1-255.7,372.1-255.8,372.1
				C-255.7,372.2-255.7,372.2-255.8,372.1C-255.7,372.2-255.7,372.2-255.8,372.1C-255.7,372.2-255.7,372.2-255.8,372.1
				C-255.7,372.2-255.7,372.2-255.8,372.1C-255.8,372.2-255.8,372.1-255.8,372.1z M-255.4,371.9c0,0.1,0.1,0.1,0.1,0.1
				C-255.3,371.9-255.3,371.9-255.4,371.9z M-254.9,371.9L-254.9,371.9c0.1,0.1,0.1,0.1,0.1,0.1
				C-254.8,371.9-254.8,371.9-254.9,371.9z M-255.8,371.9c0,0.1-0.1,0-0.1,0.1c-0.1,0,0-0.1-0.1-0.1
				C-255.9,371.8-255.9,371.8-255.8,371.9z M-255.1,371.7c0.1,0,0.1,0.1,0.1,0.1C-254.9,371.7-255.1,371.7-255.1,371.7z M-256,371.5
				C-256,371.6-256.1,371.5-256,371.5C-256.2,371.6-256.1,371.5-256,371.5z M-256,371.4C-256,371.4-256.1,371.4-256,371.4
				c-0.2,0.1-0.2,0-0.2,0C-256.1,371.3-256.1,371.3-256,371.4z M-256.3,371.4c0.1-0.1-0.1-0.1-0.1-0.2c0.1,0,0.2,0.1,0.2,0.1
				S-256.2,371.4-256.3,371.4z M-256.4,370.9C-256.4,371-256.3,371.1-256.4,370.9C-256.4,371-256.3,370.9-256.4,370.9z
				 M-240.2,370.9L-240.2,370.9C-240.2,370.9-240.2,371-240.2,370.9C-240.2,370.9-240.1,370.9-240.2,370.9z M-256.2,370.8
				L-256.2,370.8L-256.2,370.8L-256.2,370.8z M-256.2,370.6C-256.2,370.6-256.3,370.6-256.2,370.6
				C-256.3,370.6-256.3,370.7-256.2,370.6C-256.3,370.7-256.2,370.7-256.2,370.6C-256.2,370.7-256.2,370.6-256.2,370.6z
				 M-256.6,370.6c-0.1,0-0.1-0.1-0.2-0.2C-256.7,370.5-256.6,370.5-256.6,370.6z M-256.4,370.6c0,0.1-0.1,0-0.1-0.1
				C-256.4,370.5-256.5,370.6-256.4,370.6z M-255.8,370.4L-255.8,370.4C-255.9,370.4-255.9,370.4-255.8,370.4
				C-255.8,370.5-255.8,370.5-255.8,370.4L-255.8,370.4z M-256.3,370.4L-256.3,370.4C-256.4,370.4-256.4,370.4-256.3,370.4
				L-256.3,370.4L-256.3,370.4z M-256.1,370c0.1,0.2,0.1,0.3,0.2,0.4C-255.9,370.2-256,370.1-256.1,370z M-256.5,370.2
				c0,0.1,0.1,0.1,0.1,0.1C-256.4,370.2-256.4,370.1-256.5,370.2z M-256.6,369.8L-256.6,369.8C-256.5,369.7-256.6,369.7-256.6,369.8
				z M-257,369.6c0,0.1,0,0.2,0.1,0.1C-256.9,369.6-256.9,369.6-257,369.6z M-256.8,369.4c0.1,0.1,0,0.2,0.1,0.2
				C-256.7,369.5-256.8,369.4-256.8,369.4z M-256.4,369.5c-0.1-0.1-0.1-0.4-0.2-0.5c0.1,0,0.1-0.2,0-0.2
				C-256.7,369-256.4,369.3-256.4,369.5C-256.6,369.5-256.5,369.5-256.4,369.5z M-256.8,368.6C-256.7,368.6-256.8,368.8-256.8,368.6
				C-256.7,368.6-256.8,368.6-256.8,368.6z M-256.8,368.2c0,0,0,0.1-0.1,0.1c0.2-0.1,0,0.3,0.1,0.3
				C-256.7,368.5-256.7,368.2-256.8,368.2z M-256.8,368.1C-256.8,368.1-256.8,368.2-256.8,368.1L-256.8,368.1z M-255.2,367.7
				C-255.2,367.7-255.2,367.6-255.2,367.7L-255.2,367.7z M-254.9,367.3C-254.8,367.2-255,367.2-254.9,367.3
				C-255,367.3-254.9,367.3-254.9,367.3L-254.9,367.3z M-254.1,367.2c0.3-0.1,0.5-0.2,0.8-0.3C-253.6,366.9-254,367-254.1,367.2z
				 M-254.7,366.8C-254.7,366.8-254.6,366.8-254.7,366.8C-254.6,366.7-254.7,366.7-254.7,366.8z M-253.6,366.7
				C-253.6,366.7-253.5,366.6-253.6,366.7C-253.6,366.6-253.6,366.7-253.6,366.7z M-253.8,366.7
				C-253.7,366.7-253.7,366.7-253.8,366.7C-253.7,366.6-253.8,366.6-253.8,366.7z M-254.4,366.6c0.2,0.1,0.6,0.1,0.7-0.2
				C-253.9,366.4-254.3,366.4-254.4,366.6z M-247.9,366.6c0.1,0,0.2,0.1,0.2,0C-247.7,366.6-247.9,366.4-247.9,366.6z M-252.5,366.4
				c0.3,0,0.4,0,0.6,0.1c0.3-0.1,0.7-0.1,0.8-0.3c-0.3,0-0.5,0.1-0.7,0.1c0.7-0.3,1.7,0.1,2.2-0.1c-0.2-0.1-0.6,0-0.8-0.1
				c0.7-0.2,1.4,0.1,2,0.1c0-0.1,0.3,0,0.2-0.2c-0.3-0.1-0.4,0-0.6-0.1c-0.6,0.2-1.2-0.1-1.9-0.1c-0.3,0-0.7,0-1.1,0
				c-0.3,0-0.7,0.1-0.9,0.2c0.2,0.2,0.7-0.2,0.9,0.2c-0.5,0-0.8,0.1-1.2,0.1c0.1,0,0.1,0.1,0,0.1l0,0c0.4,0,0.6,0.1,0.8,0
				C-252.3,366.5-252.5,366.6-252.5,366.4z M-249.3,366.4c0.1,0,0.2,0,0.2-0.1C-249.1,366.4-249.3,366.3-249.3,366.4z M-251,366.4
				c0.1,0,0.1,0,0.1,0C-250.8,366.3-251,366.3-251,366.4z M-252.8,366.2c-0.1,0-0.2,0-0.3,0.1c0.3-0.1,0.3,0.1,0.5,0
				C-252.6,366.3-252.7,366.3-252.8,366.2z M-252.1,366.2c0,0,0.2,0.1,0.2,0C-252,366.3-252.1,366.2-252.1,366.2z M-253.3,366.2
				c0.1,0.1,0.4,0,0.4-0.1C-253,366.2-253.2,366.1-253.3,366.2z M-251.4,366.1l-0.1,0.1C-251.5,366.1-251.4,366.1-251.4,366.1z
				 M-248.8,366.1c0,0.1,0,0.1-0.1,0.1C-248.9,366.1-248.9,366.1-248.8,366.1z M-250.4,366.1c-0.2-0.1-0.5,0.1-0.8,0
				C-251.1,366.1-250.6,365.9-250.4,366.1z M-250.2,366.1c-0.1,0-0.1,0-0.1,0C-250.4,366-250.2,366-250.2,366.1z M-251.6,365.8
				c0.3-0.2,0.8,0,0.9-0.2c-0.9,0-2-0.2-2.8,0.2c0.3,0,0.5-0.1,0.7,0C-252.3,365.8-252,365.7-251.6,365.8z M-249.9,365.8
				c0.1,0,0.1,0,0.1,0C-249.8,365.7-249.9,365.7-249.9,365.8z M-250,365.7C-250,365.7-250.1,365.7-250,365.7
				C-250.1,365.7-250.1,365.7-250,365.7C-250.1,365.7-250,365.7-250,365.7L-250,365.7z M-253.2,365.5L-253.2,365.5
				C-253.1,365.4-253.3,365.4-253.2,365.5z M-254.4,365.3C-254.4,365.4-254.5,365.4-254.4,365.3
				C-254.5,365.4-254.5,365.4-254.4,365.3C-254.5,365.3-254.5,365.3-254.4,365.3z M-253.5,365c0,0.1,0.2,0.1,0.2,0
				C-253.3,365-253.4,365.1-253.5,365z"/>
		</g>
	</g>
</g>
</svg>
