<?xml version="1.0" standalone="no"?>
<!DOCTYPE svg PUBLIC "-//W3C//DTD SVG 20010904//EN"
 "http://www.w3.org/TR/2001/REC-SVG-20010904/DTD/svg10.dtd">
<svg version="1.0" xmlns="http://www.w3.org/2000/svg"
 width="700.000000pt" height="700.000000pt" viewBox="0 0 700.000000 700.000000"
 preserveAspectRatio="xMidYMid meet">
<metadata>
Created by potrace 1.11, written by Peter Selinger 2001-2013
</metadata>
<g transform="translate(0.000000,700.000000) scale(0.100000,-0.100000)"
fill="#000000" stroke="none">
<path d="M5228 6555 c-2 -1 -91 -5 -198 -9 -107 -4 -220 -8 -250 -11 -30 -2
-93 -7 -140 -10 -83 -5 -145 -11 -205 -20 -16 -2 -52 -7 -80 -11 -27 -3 -53
-8 -56 -10 -4 -2 -17 5 -29 16 -28 24 -30 24 -57 5 -34 -24 -85 -25 -104 -2
-13 16 -19 17 -36 7 -13 -9 -18 -20 -15 -36 5 -27 10 -25 -158 -53 -177 -31
-231 -36 -453 -46 -54 -2 -101 -6 -105 -9 -4 -2 -34 -7 -67 -11 -32 -3 -62 -8
-65 -10 -16 -10 -162 -20 -285 -19 -119 0 -148 4 -196 23 -56 21 -139 92 -139
118 0 7 -10 15 -22 17 -13 3 -53 12 -89 20 -36 9 -71 16 -77 16 -19 0 -40 -41
-62 -125 -12 -44 -28 -90 -36 -103 -12 -19 -13 -30 -4 -55 6 -18 13 -66 16
-107 7 -100 8 -102 46 -98 32 3 33 1 56 -62 58 -164 82 -240 84 -265 2 -17 21
-46 56 -80 29 -29 54 -63 55 -75 1 -13 12 -27 27 -34 25 -11 67 -44 102 -81
18 -19 33 -20 331 -20 234 -1 318 3 337 12 27 14 143 16 175 3 13 -5 25 -3 35
6 9 7 31 15 50 19 19 3 46 7 60 10 14 2 48 7 75 10 28 3 61 8 75 10 14 2 70
11 125 20 55 9 111 18 125 20 14 2 39 6 55 9 17 3 68 10 115 16 47 5 101 12
120 15 19 2 60 7 90 10 30 4 66 8 80 10 46 7 260 16 260 11 0 -2 -75 -58 -167
-122 -93 -65 -208 -148 -258 -186 -49 -38 -101 -77 -115 -87 -60 -45 -343
-269 -513 -406 -127 -102 -186 -156 -186 -170 -1 -14 -46 -56 -138 -130 -190
-152 -327 -271 -398 -346 -33 -35 -80 -81 -105 -104 -80 -72 -293 -288 -380
-384 -203 -226 -372 -375 -501 -442 -14 -8 -47 -39 -73 -69 -134 -157 -167
-189 -232 -233 -39 -26 -77 -47 -83 -47 -6 0 -11 -9 -11 -20 0 -24 -36 -35
-72 -21 -22 8 -28 6 -47 -19 -11 -16 -21 -32 -21 -36 0 -3 -37 -43 -83 -87
-46 -45 -112 -116 -147 -157 -36 -41 -69 -80 -75 -86 -5 -6 -37 -42 -70 -80
-75 -86 -175 -192 -241 -256 -39 -36 -53 -58 -58 -87 -3 -20 -20 -57 -37 -82
-17 -24 -38 -56 -47 -72 -9 -15 -25 -30 -35 -33 -24 -7 -58 -45 -114 -124 -44
-62 -100 -120 -115 -120 -4 0 -17 -19 -29 -43 -12 -23 -38 -62 -58 -86 -20
-25 -44 -56 -53 -70 -10 -14 -22 -27 -28 -27 -5 -1 -14 -2 -20 -3 -5 0 -10
-14 -10 -29 0 -37 -49 -105 -97 -136 -64 -40 -86 -70 -87 -119 -1 -39 8 -57
74 -158 139 -212 255 -341 384 -427 65 -43 74 -46 141 -48 60 -2 80 2 134 27
34 16 64 29 66 29 6 0 314 178 355 205 46 30 171 95 238 123 29 13 90 46 135
75 45 29 116 70 157 92 41 21 89 47 107 56 134 75 170 92 197 95 40 5 98 30
164 71 36 23 60 31 75 28 14 -4 55 6 102 25 123 47 155 64 229 119 65 48 82
56 115 51 8 -1 18 4 22 12 7 10 9 10 9 1 0 -19 17 -16 40 7 15 15 32 20 63 19
24 -1 54 5 67 14 14 8 77 32 140 52 172 55 208 75 158 88 -39 11 -11 19 69 22
43 2 87 5 98 8 51 13 215 68 215 73 0 2 -11 2 -25 -2 -30 -7 -34 11 -6 26 29
15 51 13 45 -5 -4 -8 -1 -15 5 -15 6 0 10 5 8 12 -1 6 6 14 17 16 13 3 16 0
11 -9 -6 -9 -3 -11 9 -6 10 4 27 8 39 8 16 1 14 3 -8 8 l-30 6 35 22 c67 41
195 133 155 111 -5 -3 -37 -9 -70 -12 -79 -9 -106 -16 -131 -31 -13 -9 -37
-11 -63 -8 -40 6 -57 22 -23 24 59 2 106 14 177 44 79 34 183 61 273 70 25 2
82 11 127 19 44 8 102 14 129 12 36 -1 55 3 74 18 23 18 25 19 37 2 12 -16 14
-16 32 2 32 33 130 90 175 102 119 31 308 114 316 138 2 8 -8 12 -27 12 -16 0
-32 4 -35 9 -6 10 73 33 86 25 5 -3 14 -1 21 4 7 6 44 22 82 36 39 15 107 49
152 76 81 50 103 58 103 41 0 -5 7 -11 15 -15 9 -3 32 11 60 38 57 56 98 74
275 126 80 24 170 54 200 67 64 28 130 71 130 85 0 13 -229 1 -300 -15 -34 -8
-71 -10 -98 -5 -64 11 -162 -2 -212 -27 -14 -7 -50 -16 -80 -18 -30 -3 -71
-12 -90 -20 -19 -8 -73 -22 -120 -31 -47 -9 -94 -18 -105 -20 -11 -2 -40 -7
-65 -11 -25 -4 -54 -9 -65 -11 -11 -3 -36 -7 -55 -10 -19 -3 -64 -14 -100 -24
-36 -11 -126 -31 -200 -45 -139 -26 -235 -46 -425 -90 -60 -14 -119 -27 -130
-30 -11 -2 -31 -7 -45 -10 -14 -3 -38 -8 -55 -11 -16 -3 -37 -8 -45 -11 -8 -4
-22 -8 -30 -9 -8 -1 -62 -12 -120 -24 -58 -12 -141 -27 -186 -35 -85 -15 -143
-38 -125 -50 17 -10 13 -33 -8 -40 -30 -9 -52 5 -46 29 2 11 2 16 -1 9 -9 -19
-193 -71 -277 -78 -100 -8 -230 -41 -432 -112 -88 -30 -198 -64 -245 -75 -47
-11 -107 -27 -135 -35 -73 -22 -84 -24 -152 -28 -57 -4 -63 -2 -63 15 0 31
-32 24 -71 -16 -18 -19 -58 -51 -88 -71 -56 -37 -150 -78 -159 -69 -6 6 65
102 104 141 23 23 30 25 54 15 22 -9 33 -8 62 9 38 23 69 28 109 17 30 -8 48
9 30 27 -19 19 -12 31 34 56 47 25 96 72 195 189 34 41 80 86 101 102 l39 28
-25 16 c-38 25 -31 44 30 70 114 51 223 147 335 295 14 18 43 56 65 84 23 29
56 72 75 97 l35 45 -35 -28 c-19 -15 -54 -37 -77 -48 -24 -12 -43 -25 -43 -30
0 -21 -164 -158 -176 -146 -11 10 13 39 114 137 150 147 221 210 236 210 7 0
26 10 42 22 16 12 23 15 17 8 -7 -8 -13 -21 -13 -30 0 -10 -9 -27 -20 -40 -30
-35 -24 -34 21 2 22 18 47 46 54 63 18 42 85 116 97 109 6 -4 8 -3 5 3 -3 5
10 25 29 44 23 22 33 27 28 15 -7 -17 -4 -19 35 -13 46 6 125 52 116 67 -7 11
-70 3 -100 -12 -14 -8 -12 -2 9 20 23 24 35 30 56 26 37 -8 133 42 126 65 -4
11 12 29 48 56 122 91 246 197 246 211 0 8 8 14 18 14 23 0 79 38 177 120 44
37 95 75 113 84 17 9 32 20 32 25 0 16 69 76 117 101 26 14 52 31 57 39 21 33
78 82 130 111 31 18 54 36 51 40 -8 12 13 60 26 60 23 0 186 105 264 170 188
157 381 287 715 482 366 213 466 268 488 268 13 0 25 7 29 15 7 20 58 46 144
74 78 26 103 54 147 168 19 50 43 88 82 130 69 75 78 87 117 148 76 119 148
303 203 517 28 108 31 130 20 144 -26 30 -129 74 -215 90 -11 2 -31 6 -45 9
-14 2 -50 7 -80 10 -30 3 -73 8 -95 11 -37 5 -1062 13 -1067 9z m-3305 -3581
c17 -18 -39 -94 -70 -94 -16 0 -5 26 31 72 22 28 29 32 39 22z m694 -254 c-9
-24 -17 -30 -41 -30 -16 0 -27 3 -23 6 6 6 70 52 74 54 1 0 -4 -13 -10 -30z
m-47 -50 l25 -7 -29 -12 c-16 -7 -35 -10 -42 -7 -7 3 -27 -9 -45 -25 -18 -17
-42 -35 -53 -41 -12 -6 6 14 39 45 63 59 65 60 105 47z m-162 -187 c-13 -14
-38 -33 -57 -42 -30 -16 -31 -19 -18 -33 14 -13 11 -17 -22 -31 -21 -9 -73
-53 -117 -97 -43 -44 -92 -86 -107 -93 -19 -8 -26 -18 -24 -29 4 -12 -4 -19
-27 -23 -17 -4 -56 -20 -86 -36 l-55 -29 37 35 c22 20 48 35 62 35 33 0 43 18
16 28 -20 8 -20 8 8 40 17 19 40 33 56 34 29 3 114 81 220 201 32 37 62 64 67
61 5 -3 16 -1 26 4 9 6 23 8 30 5 11 -4 9 -11 -9 -30z m-1008 -103 c0 -13 -56
-53 -80 -57 -27 -4 -17 17 23 45 33 23 57 28 57 12z m2375 -29 c-3 -6 -15 -8
-27 -6 -34 7 -34 15 1 15 18 0 30 -4 26 -9z m896 -76 c0 -6 -7 -12 -16 -13
-22 -5 -48 6 -41 16 7 12 56 9 57 -3z m115 -27 c5 -8 0 -9 -17 -4 -13 4 -30 8
-36 8 -7 1 -13 5 -13 9 0 22 50 13 66 -13z m-1299 6 c-3 -3 -12 -4 -19 -1 -8
3 -5 6 6 6 11 1 17 -2 13 -5z m1003 -26 c0 -11 -21 -25 -68 -45 -8 -4 -10 1
-6 13 9 25 33 44 56 44 10 0 18 -6 18 -12z m-910 -438 c-14 -10 -52 -26 -85
-35 -33 -9 -69 -19 -80 -22 -17 -5 -18 -4 -7 9 19 23 95 50 192 67 3 0 -6 -8
-20 -19z"/>
<path d="M3229 3263 c-13 -15 -12 -15 9 -4 23 12 28 21 13 21 -5 0 -15 -7 -22
-17z"/>
<path d="M3159 3193 c-13 -16 -12 -17 4 -4 16 13 21 21 13 21 -2 0 -10 -8 -17
-17z"/>
<path d="M4155 1918 c-16 -6 -38 -18 -48 -26 -13 -12 -20 -13 -29 -4 -16 16
-71 15 -86 0 -7 -7 -12 -20 -12 -30 0 -10 -8 -18 -17 -19 -10 0 -13 -3 -7 -5
17 -7 64 14 62 28 -2 8 10 14 30 16 32 3 33 2 20 -19 -7 -13 -22 -31 -33 -41
-20 -17 -20 -17 8 -18 15 0 45 11 65 25 20 14 42 25 50 25 19 0 112 49 112 59
0 22 -64 27 -115 9z"/>
<path d="M4315 1900 c-3 -5 -2 -10 4 -10 5 0 13 5 16 10 3 6 2 10 -4 10 -5 0
-13 -4 -16 -10z"/>
<path d="M3886 1795 c-25 -19 -19 -26 12 -14 15 6 28 10 30 10 11 -4 24 0 18
6 -11 11 -43 10 -60 -2z"/>
</g>
</svg>
